# 3ds Max Wavefront OBJ Exporter v0.97b - (c)2007 guruware
# File Created: 15.02.2018 23:42:38

mtllib 10x7 Overhead garage door frame.mtl

#
# object Frame
#

v  2.0000 0.0000 -152.3018
v  2.0000 0.0000 -160.3022
v  2.0000 198.5524 -160.3018
v  2.0000 195.2400 -152.3018
v  2.0000 222.3600 -125.1818
v  2.0000 230.3600 -128.4938
v  2.0000 230.3600 128.4940
v  2.0000 222.3600 125.1821
v  2.0000 195.2400 152.3021
v  2.0000 198.5524 160.3021
v  2.0000 0.0000 160.3024
v  2.0000 0.0000 152.3021
v  0.0000 230.3600 -128.4938
v  0.0000 230.3600 128.4940
v  0.0000 198.5524 160.3021
v  0.0000 0.0000 160.3024
v  0.0000 0.0000 152.3021
v  0.0000 195.2400 152.3021
v  0.0000 222.3600 -125.1818
v  0.0000 222.3600 125.1821
v  -0.0000 0.0000 -152.3018
v  -0.0000 195.2400 -152.3018
v  -0.0000 0.0000 -160.3022
v  -0.0000 198.5524 -160.3018
# 24 vertices

vn 1.0000 -0.0000 -0.0000
vn 1.0000 -0.0000 0.0000
vn -0.0000 1.0000 0.0000
vn -0.0000 0.0000 1.0000
vn 0.0000 0.0000 1.0000
vn 0.0000 -1.0000 -0.0000
vn 0.0000 0.0000 -1.0000
vn -0.0000 0.0000 -1.0000
vn 0.0000 -0.7071 -0.7071
vn 0.0000 -0.7071 0.7071
vn -0.0000 0.7071 -0.7071
vn -0.0000 0.7071 0.7071
# 12 vertex normals

vt 0.1344 -2.0929 0.0000
vt 0.3459 -2.0929 0.0000
vt 0.3459 3.1570 0.0000
vt 0.1344 3.0694 0.0000
vt 0.6725 -2.8581 0.0000
vt 0.8841 -2.9457 0.0000
vt 0.8841 3.8493 0.0000
vt 0.6725 3.7617 0.0000
vt -0.2307 3.0694 0.0000
vt -0.4422 3.1570 0.0000
vt -0.4422 -2.0929 0.0000
vt -0.2307 -2.0929 0.0000
vt 0.9370 -2.9457 0.0000
vt 0.9370 3.8493 0.0000
vt -0.4951 3.1570 0.0000
vt -0.4951 -2.0929 0.0000
vt -0.4422 -2.1458 0.0000
vt -0.2307 -2.1458 0.0000
vt -0.1778 -2.0929 0.0000
vt -0.1778 3.0694 0.0000
vt 0.6197 -2.8581 0.0000
vt 0.6197 3.7617 0.0000
vt 0.0815 -2.0929 0.0000
vt 0.0815 3.0694 0.0000
vt 0.1344 -2.1458 0.0000
vt 0.3459 -2.1458 0.0000
vt 0.3988 -2.0929 0.0000
vt 0.3988 3.1570 0.0000
vt 1.4374 -1.0455 0.0000
vt 1.4374 -0.0315 0.0000
vt 1.3845 -0.0315 0.0000
vt 1.3845 -1.0455 0.0000
vt 1.0859 -1.3417 0.0000
vt 1.0859 -2.3558 0.0000
vt 1.1388 -2.3558 0.0000
vt 1.1388 -1.3417 0.0000
vt 1.3503 -2.4435 0.0000
vt 1.3503 -1.2541 0.0000
vt 1.1730 0.0562 0.0000
vt 1.1730 -1.1332 0.0000
vt 1.4032 -2.4435 0.0000
vt 1.4032 -1.2541 0.0000
vt 1.1201 0.0562 0.0000
vt 1.1201 -1.1332 0.0000
# 44 texture coords

g Frame
usemtl Material__27
s 1
f 1/1/1 2/2/1 3/3/2 4/4/2 
f 5/5/2 6/6/2 7/7/1 8/8/1 
f 9/9/1 10/10/1 11/11/1 12/12/1 
s 2
f 13/13/3 14/14/3 7/7/3 6/6/3 
f 15/15/4 16/16/5 11/11/4 10/10/4 
s 4
f 16/17/6 17/18/6 12/12/6 11/11/6 
s 2
f 17/19/7 17/19/7 18/20/7 9/9/7 
f 17/19/7 9/9/7 12/12/7 
f 19/21/6 5/5/6 8/8/6 20/22/6 
f 21/23/5 1/1/5 4/4/5 21/23/5 
f 22/24/5 21/23/5 4/4/5 
s 4
f 21/25/6 23/26/6 2/2/6 1/1/6 
s 2
f 23/27/8 24/28/8 3/3/8 2/2/7 
s 4
f 18/29/9 20/30/9 8/31/9 9/32/9 
f 19/33/10 22/34/10 4/35/10 5/36/10 
s 1
f 5/36/2 4/35/2 3/37/2 6/38/2 
f 9/32/1 8/31/1 7/39/1 10/40/1 
s 4
f 24/41/11 13/42/11 6/38/11 3/37/11 
f 14/43/12 15/44/12 10/40/12 7/39/12 
# 17 polygons - 2 triangles

