# Blender v2.76 (sub 0) OBJ File: ''
# www.blender.org
mtllib 1x1_Loft_Gable_Window_Frame.mtl
o Frame
v 2.000000 83.302910 -24.239979
v 2.000000 74.302902 -15.239981
v 2.000000 43.822906 -15.239991
v 2.000000 34.822906 -24.239994
v 2.000000 34.822891 24.240005
v 2.000000 43.822891 15.240008
v 2.000000 74.302895 15.240019
v 2.000000 83.302887 24.240021
v 0.000000 83.302887 24.240021
v 0.000000 34.822891 24.240005
v 0.000000 34.822906 -24.239994
v 0.000000 83.302910 -24.239979
v 0.000000 74.302902 -15.239981
v 0.000000 43.822906 -15.239991
v 0.000000 43.822891 15.240008
v 0.000000 74.302895 15.240019
vt 0.415000 1.264300
vt 0.109300 0.958600
vt 0.109300 -0.076800
vt 0.415000 -0.382500
vt 1.060700 -0.382500
vt 1.366400 -0.076800
vt 1.366400 0.958600
vt 1.060700 1.264300
vt -0.060700 -0.382500
vt -0.060700 1.264300
vt -0.366400 0.958600
vt -0.366400 -0.076800
vt 0.585000 1.264300
vt 0.585000 -0.382500
vt 0.890700 -0.076800
vt 0.890700 0.958600
vt 0.992800 1.264300
vt 0.992800 -0.382500
vt 0.517100 1.264300
vt 0.517100 -0.382500
vt 0.482900 -0.382500
vt 0.482900 1.264300
vt 0.007200 -0.382500
vt 0.007200 1.264300
vt 0.041400 0.958600
vt 0.041400 -0.076800
vt 0.958600 -0.076800
vt 0.958600 0.958600
vt 1.434300 -0.076800
vt 1.434300 0.958600
vt -0.434300 0.958600
vt -0.434300 -0.076800
vn 1.000000 -0.000000 0.000000
vn 0.000000 -0.000000 1.000000
vn 0.000000 -1.000000 -0.000000
vn 0.000000 0.000000 -1.000000
vn 0.000000 1.000000 0.000000
usemtl Material__27
s 1
f 1/1/1 2/2/1 3/3/1 4/4/1
f 5/5/1 6/6/1 7/7/1 8/8/1
f 1/9/1 8/10/1 7/11/1 2/12/1
f 5/13/1 4/14/1 3/15/1 6/16/1
f 9/17/2 10/18/2 5/5/2 8/8/2
f 10/19/3 11/20/3 4/14/3 5/13/3
f 11/21/4 12/22/4 1/1/4 4/4/4
f 12/23/5 9/24/5 8/10/5 1/9/5
f 13/25/2 14/26/2 3/3/2 2/2/2
f 14/27/5 15/28/5 6/16/5 3/15/5
f 15/29/4 16/30/4 7/7/4 6/6/4
f 16/31/3 13/32/3 2/12/3 7/11/3
