# 3ds Max Wavefront OBJ Exporter v0.97b - (c)2007 guruware
<<<<<<< HEAD
# File Created: 16.02.2018 00:06:23
=======
# File Created: 04.02.2018 00:17:17
>>>>>>> add window models

mtllib 23x10 Transom window with grids (frame).mtl

#
# object Frame
#

<<<<<<< HEAD
v  2.0000 191.0000 -38.2100
v  2.0000 191.0000 -29.2100
v  2.0000 165.6000 -29.2100
v  2.0000 165.6000 -38.2100
v  2.0000 165.6000 38.2100
v  2.0000 165.6000 29.2100
v  2.0000 191.0000 29.2100
v  2.0000 191.0000 38.2100
v  2.0000 200.0000 -29.2100
v  2.0000 200.0000 29.2100
v  2.0000 156.6000 29.2100
v  2.0000 156.6000 -29.2100
v  2.0000 200.0000 -38.2100
v  2.0000 156.6000 -38.2100
v  2.0000 156.6000 38.2100
v  2.0000 200.0000 38.2100
v  0.0000 200.0000 39.7100
v  0.0000 191.0000 39.7100
v  2.0000 191.0000 39.7100
v  2.0000 200.0000 39.7100
v  0.0000 191.0000 38.2100
v  0.0000 165.6000 38.2100
v  0.0000 165.6000 39.7100
v  0.0000 156.6000 39.7100
v  2.0000 156.6000 39.7100
v  2.0000 165.6000 39.7100
v  0.0000 156.6000 38.2100
v  0.0000 156.6000 29.2100
v  -0.0000 156.6000 -29.2100
v  -0.0000 156.6000 -38.2100
v  -0.0000 156.6000 -39.7100
v  -0.0000 165.6000 -39.7100
v  2.0000 165.6000 -39.7100
v  2.0000 156.6000 -39.7100
v  -0.0000 165.6000 -38.2100
v  -0.0000 191.0000 -38.2100
v  -0.0000 191.0000 -39.7100
v  -0.0000 200.0000 -39.7100
v  2.0000 200.0000 -39.7100
v  2.0000 191.0000 -39.7100
v  -0.0000 200.0000 -38.2100
v  -0.0000 200.0000 -29.2100
v  0.0000 200.0000 29.2100
v  0.0000 200.0000 38.2100
v  -0.0000 191.0000 -29.2100
v  -0.0000 165.6000 -29.2100
v  0.0000 165.6000 29.2100
v  0.0000 191.0000 29.2100
# 48 vertices

vn 1.0000 -0.0000 -0.0000
vn 1.0000 0.0000 -0.0000
vn 0.0000 0.0000 1.0000
vn -0.0000 -1.0000 0.0000
vn -0.0000 0.0000 -1.0000
vn 0.0000 1.0000 -0.0000
vn 1.0000 -0.0000 0.0000
=======
v  2.0000 38.2100 191.0000
v  2.0000 29.2100 191.0000
v  2.0000 29.2100 165.6000
v  2.0000 38.2100 165.6000
v  2.0000 -38.2100 165.6000
v  2.0000 -29.2100 165.6000
v  2.0000 -29.2100 191.0000
v  2.0000 -38.2100 191.0000
v  2.0000 29.2100 200.0000
v  2.0000 -29.2100 200.0000
v  2.0000 -29.2100 156.6000
v  2.0000 29.2100 156.6000
v  2.0000 38.2100 200.0000
v  2.0000 38.2100 156.6000
v  2.0000 -38.2100 156.6000
v  2.0000 -38.2100 200.0000
v  0.0000 -39.7100 200.0000
v  0.0000 -39.7100 191.0000
v  2.0000 -39.7100 191.0000
v  2.0000 -39.7100 200.0000
v  0.0000 -38.2100 191.0000
v  0.0000 -38.2100 165.6000
v  0.0000 -39.7100 165.6000
v  0.0000 -39.7100 156.6000
v  2.0000 -39.7100 156.6000
v  2.0000 -39.7100 165.6000
v  0.0000 -38.2100 156.6000
v  0.0000 -29.2100 156.6000
v  -0.0000 29.2100 156.6000
v  -0.0000 38.2100 156.6000
v  -0.0000 39.7100 156.6000
v  -0.0000 39.7100 165.6000
v  2.0000 39.7100 165.6000
v  2.0000 39.7100 156.6000
v  -0.0000 38.2100 165.6000
v  -0.0000 38.2100 191.0000
v  -0.0000 39.7100 191.0000
v  -0.0000 39.7100 200.0000
v  2.0000 39.7100 200.0000
v  2.0000 39.7100 191.0000
v  -0.0000 38.2100 200.0000
v  -0.0000 29.2100 200.0000
v  0.0000 -29.2100 200.0000
v  0.0000 -38.2100 200.0000
v  -0.0000 29.2100 191.0000
v  -0.0000 29.2100 165.6000
v  0.0000 -29.2100 165.6000
v  0.0000 -29.2100 191.0000
# 48 vertices

vn 1.0000 0.0000 -0.0000
vn 1.0000 0.0000 0.0000
vn 0.0000 -1.0000 0.0000
vn -0.0000 -0.0000 -1.0000
vn -0.0000 1.0000 0.0000
vn 0.0000 0.0000 1.0000
vn 1.0000 -0.0000 -0.0000
>>>>>>> add window models
# 7 vertex normals

vt 0.7767 1.0685 0.0000
vt 0.3658 1.0685 0.0000
vt 0.3658 -0.0912 0.0000
vt 0.7767 -0.0912 0.0000
vt 1.0448 -0.0944 0.0000
vt 1.4557 -0.0944 0.0000
vt 1.4557 1.0654 0.0000
vt 1.0448 1.0654 0.0000
vt -0.6085 -0.8337 0.0000
vt -0.6085 1.8337 0.0000
vt -1.0194 1.8337 0.0000
vt -1.0194 -0.8337 0.0000
vt -0.3216 1.8337 0.0000
vt -0.3216 -0.8337 0.0000
vt 0.0893 -0.8337 0.0000
vt 0.0893 1.8337 0.0000
vt -0.6085 -1.2446 0.0000
vt -1.0194 -1.2446 0.0000
vt -0.3216 -1.2446 0.0000
vt 0.0893 -1.2446 0.0000
vt -0.3216 2.2446 0.0000
vt 0.0893 2.2446 0.0000
vt -0.6085 2.2446 0.0000
vt -1.0194 2.2446 0.0000
vt -0.6085 2.4044 0.0000
vt -1.0194 2.4044 0.0000
vt -1.0194 2.3131 0.0000
vt -0.6085 2.3131 0.0000
vt 0.9535 1.0654 0.0000
vt 0.9535 -0.0944 0.0000
vt 0.0893 2.4044 0.0000
vt -0.3216 2.4044 0.0000
vt -0.3216 2.3131 0.0000
vt 0.0893 2.3131 0.0000
vt -0.4130 2.2446 0.0000
vt -0.4130 1.8337 0.0000
vt -0.4130 -0.8337 0.0000
vt -0.4130 -1.2446 0.0000
vt -0.3216 -1.4044 0.0000
vt 0.0893 -1.4044 0.0000
vt 0.0893 -1.3131 0.0000
vt -0.3216 -1.3131 0.0000
vt 0.8680 -0.0912 0.0000
vt 0.8680 1.0685 0.0000
vt -1.0194 -1.4044 0.0000
vt -0.6085 -1.4044 0.0000
vt -0.6085 -1.3131 0.0000
vt -1.0194 -1.3131 0.0000
vt -0.5171 -1.2446 0.0000
vt -0.5171 -0.8337 0.0000
vt -0.5171 1.8337 0.0000
vt -0.5171 2.2446 0.0000
vt 0.2744 1.0685 0.0000
vt 0.2744 -0.0912 0.0000
vt 0.1806 -0.8337 0.0000
vt 0.1806 1.8337 0.0000
vt 1.5470 -0.0944 0.0000
vt 1.5470 1.0654 0.0000
vt -1.1107 1.8337 0.0000
vt -1.1107 -0.8337 0.0000
vt -1.1107 2.2446 0.0000
vt -1.1107 2.3131 0.0000
vt -0.5171 2.3131 0.0000
vt -0.4130 2.3131 0.0000
vt 0.1806 2.2446 0.0000
vt 0.1806 2.3131 0.0000
vt 0.1806 -1.2446 0.0000
vt 0.1806 -1.3131 0.0000
vt -0.4130 -1.3131 0.0000
vt -0.5171 -1.3131 0.0000
vt -1.1107 -1.2446 0.0000
vt -1.1107 -1.3131 0.0000
# 72 texture coords

g Frame
usemtl Material__27
s off
f 1/1/1 2/2/1 3/3/1 4/4/1 
f 5/5/1 6/6/1 7/7/1 8/8/1 
f 9/9/2 10/10/2 7/11/2 2/12/2 
f 11/13/1 12/14/1 3/15/1 6/16/1 
f 13/17/1 9/9/1 2/12/1 1/18/1 
f 12/14/1 14/19/1 4/20/1 3/15/1 
f 15/21/1 11/13/1 6/16/1 5/22/1 
f 10/10/1 16/23/1 8/24/1 7/11/1 
f 17/25/3 18/26/3 19/27/3 20/28/3 
f 21/29/3 22/30/3 5/5/3 8/8/3 
f 23/31/3 24/32/3 25/33/3 26/34/3 
f 27/35/4 28/36/4 11/13/4 15/21/4 
f 28/36/4 29/37/4 12/14/4 11/13/4 
f 29/37/4 30/38/4 14/19/4 12/14/4 
f 31/39/5 32/40/5 33/41/5 34/42/5 
f 35/43/5 36/44/5 1/1/5 4/4/5 
f 37/45/5 38/46/5 39/47/5 40/48/5 
f 41/49/6 42/50/6 9/9/6 13/17/6 
f 42/50/6 43/51/6 10/10/6 9/9/6 
f 43/51/6 44/52/6 16/23/6 10/10/6 
f 45/53/3 46/54/3 3/3/3 2/2/3 
f 46/55/6 47/56/6 6/16/6 3/15/6 
f 47/57/5 48/58/5 7/7/5 6/6/5 
f 48/59/4 45/60/4 2/12/4 7/11/4 
f 21/61/4 8/24/4 19/27/4 18/62/4 
f 8/24/1 16/23/1 20/28/1 19/27/1 
f 16/23/6 44/52/6 17/63/6 20/28/6 
f 27/35/4 15/21/4 25/33/4 24/64/4 
f 15/21/1 5/22/1 26/34/1 25/33/1 
f 5/22/6 22/65/6 23/66/6 26/34/6 
f 35/67/6 4/20/6 33/41/6 32/68/6 
f 4/20/2 14/19/2 34/42/2 33/41/2 
f 14/19/4 30/38/4 31/69/4 34/42/4 
f 41/49/6 13/17/6 39/47/6 38/70/6 
f 13/17/7 1/18/7 40/48/7 39/47/7 
f 1/18/4 36/71/4 37/72/4 40/48/4 
# 36 polygons

