# 3ds Max Wavefront OBJ Exporter v0.97b - (c)2007 guruware
# File Created: 03.02.2018 21:06:11

mtllib 24x24 Vinyl double pane window (without grids) frame.mtl

#
# object Windows_Frame
#

v  2.0000 37.3261 160.1339
v  2.0000 30.4799 160.1339
v  2.0000 30.4799 99.1746
v  2.0000 37.3261 99.1746
v  2.0000 -37.3261 99.1746
v  2.0000 -30.4799 99.1746
v  2.0000 -30.4799 160.1339
v  2.0000 -37.3261 160.1339
v  2.0000 30.4799 166.9801
v  2.0000 -30.4799 166.9801
v  2.0000 -30.4799 92.3284
v  2.0000 30.4799 92.3284
v  2.0000 37.3261 166.9801
v  2.0000 37.3261 92.3284
v  2.0000 -37.3261 92.3284
v  2.0000 -37.3261 166.9801
v  0.0000 -38.8261 166.9801
v  0.0000 -38.8261 160.1339
v  2.0000 -38.8261 160.1339
v  2.0000 -38.8261 166.9801
v  0.0000 -37.3261 160.1339
v  0.0000 -37.3261 99.1746
v  0.0000 -38.8261 99.1746
v  0.0000 -38.8261 92.3284
v  2.0000 -38.8261 92.3284
v  2.0000 -38.8261 99.1746
v  0.0000 -37.3261 92.3284
v  -0.0000 -30.4799 92.3284
v  -0.0000 30.4799 92.3284
v  -0.0000 37.3261 92.3284
v  -0.0000 38.8261 92.3284
v  -0.0000 38.8261 99.1746
v  2.0000 38.8261 99.1746
v  2.0000 38.8261 92.3284
v  -0.0000 37.3261 99.1746
v  -0.0000 37.3261 160.1339
v  -0.0000 38.8261 160.1339
v  -0.0000 38.8261 166.9801
v  2.0000 38.8261 166.9801
v  2.0000 38.8261 160.1339
v  -0.0000 37.3261 166.9801
v  0.0000 30.4799 166.9801
v  0.0000 -30.4799 166.9801
v  0.0000 -37.3261 166.9801
v  0.0000 30.4799 160.1339
v  -0.0000 30.4799 99.1746
v  0.0000 -30.4799 99.1746
v  0.0000 -30.4799 160.1339
# 48 vertices

vn 1.0000 0.0000 -0.0000
vn 1.0000 0.0000 0.0000
vn 1.0000 -0.0000 -0.0000
vn 0.0000 -1.0000 0.0000
vn 0.0000 0.0000 -1.0000
vn 0.0000 1.0000 0.0000
vn 0.0000 0.0000 1.0000
# 7 vertex normals

vt 1.0304 2.2580 0.0000
vt 0.6435 2.2580 0.0000
vt 0.6435 -1.1870 0.0000
vt 1.0304 -1.1870 0.0000
vt 1.4933 -1.1870 0.0000
vt 1.8802 -1.1870 0.0000
vt 1.8802 2.2580 0.0000
vt 1.4933 2.2580 0.0000
vt 0.1575 -1.2225 0.0000
vt 0.1575 2.2225 0.0000
vt -0.2294 2.2225 0.0000
vt -0.2294 -1.2225 0.0000
vt -1.1157 2.2225 0.0000
vt -1.1157 -1.2225 0.0000
vt -0.7288 -1.2225 0.0000
vt -0.7288 2.2225 0.0000
vt 0.1575 -1.6094 0.0000
vt -0.2294 -1.6094 0.0000
vt -1.1157 -1.6094 0.0000
vt -0.7288 -1.6094 0.0000
vt -1.1157 2.6094 0.0000
vt -0.7288 2.6094 0.0000
vt 0.1575 2.6094 0.0000
vt -0.2294 2.6094 0.0000
vt 0.1575 2.8072 0.0000
vt -0.2294 2.8072 0.0000
vt -0.2294 2.6941 0.0000
vt 0.1575 2.6941 0.0000
vt 1.3802 2.2580 0.0000
vt 1.3802 -1.1870 0.0000
vt -0.7288 2.8071 0.0000
vt -1.1157 2.8071 0.0000
vt -1.1157 2.6941 0.0000
vt -0.7288 2.6941 0.0000
vt -1.2287 2.6094 0.0000
vt -1.2287 2.2225 0.0000
vt -1.2287 -1.2225 0.0000
vt -1.2287 -1.6094 0.0000
vt -1.1157 -1.8072 0.0000
vt -0.7288 -1.8072 0.0000
vt -0.7288 -1.6942 0.0000
vt -1.1157 -1.6942 0.0000
vt 1.1434 -1.1870 0.0000
vt 1.1434 2.2580 0.0000
vt -0.2294 -1.8072 0.0000
vt 0.1575 -1.8072 0.0000
vt 0.1575 -1.6942 0.0000
vt -0.2294 -1.6942 0.0000
vt 0.2705 -1.6094 0.0000
vt 0.2705 -1.2225 0.0000
vt 0.2705 2.2225 0.0000
vt 0.2705 2.6094 0.0000
vt 0.5304 2.2580 0.0000
vt 0.5304 -1.1870 0.0000
vt -0.6158 -1.2225 0.0000
vt -0.6158 2.2225 0.0000
vt 1.9932 -1.1870 0.0000
vt 1.9932 2.2580 0.0000
vt -0.3424 2.2225 0.0000
vt -0.3424 -1.2225 0.0000
vt -0.3424 2.6094 0.0000
vt -0.3424 2.6941 0.0000
vt 0.2705 2.6941 0.0000
vt -1.2287 2.6941 0.0000
vt -0.6158 2.6094 0.0000
vt -0.6158 2.6941 0.0000
vt -0.6158 -1.6094 0.0000
vt -0.6158 -1.6942 0.0000
vt -1.2287 -1.6942 0.0000
vt 0.2705 -1.6942 0.0000
vt -0.3424 -1.6094 0.0000
vt -0.3424 -1.6942 0.0000
# 72 texture coords

g Windows_Frame
usemtl Material__27
s 1
f 1/1/1 2/2/2 3/3/1 4/4/1 
f 5/5/3 6/6/1 7/7/1 8/8/1 
f 9/9/2 10/10/1 7/11/1 2/12/2 
f 11/13/1 12/14/1 3/15/1 6/16/1 
f 13/17/2 9/9/2 2/12/2 1/18/1 
f 12/14/1 14/19/2 4/20/1 3/15/1 
f 15/21/3 11/13/1 6/16/1 5/22/3 
f 10/10/1 16/23/1 8/24/1 7/11/1 
s off
f 17/25/4 18/26/4 19/27/4 20/28/4 
f 21/29/4 22/30/4 5/5/4 8/8/4 
f 23/31/4 24/32/4 25/33/4 26/34/4 
f 27/35/5 28/36/5 11/13/5 15/21/5 
f 28/36/5 29/37/5 12/14/5 11/13/5 
f 29/37/5 30/38/5 14/19/5 12/14/5 
f 31/39/6 32/40/6 33/41/6 34/42/6 
f 35/43/6 36/44/6 1/1/6 4/4/6 
f 37/45/6 38/46/6 39/47/6 40/48/6 
f 41/49/7 42/50/7 9/9/7 13/17/7 
f 42/50/7 43/51/7 10/10/7 9/9/7 
f 43/51/7 44/52/7 16/23/7 10/10/7 
f 45/53/4 46/54/4 3/3/4 2/2/4 
f 46/55/7 47/56/7 6/16/7 3/15/7 
f 47/57/6 48/58/6 7/7/6 6/6/6 
f 48/59/5 45/60/5 2/12/5 7/11/5 
f 21/61/5 8/24/5 19/27/5 18/62/5 
f 8/24/1 16/23/1 20/28/1 19/27/1 
f 16/23/7 44/52/7 17/63/7 20/28/7 
f 27/35/5 15/21/5 25/33/5 24/64/5 
f 15/21/1 5/22/1 26/34/1 25/33/1 
f 5/22/7 22/65/7 23/66/7 26/34/7 
f 35/67/7 4/20/7 33/41/7 32/68/7 
f 4/20/2 14/19/2 34/42/2 33/41/2 
f 14/19/5 30/38/5 31/69/5 34/42/5 
f 41/49/7 13/17/7 39/47/7 38/70/7 
f 13/17/2 1/18/2 40/48/2 39/47/2 
f 1/18/5 36/71/5 37/72/5 40/48/5 
# 36 polygons

