# 3ds Max Wavefront OBJ Exporter v0.97b - (c)2007 guruware
# File Created: 20.07.2017 01:26:15

mtllib 29''_Transom_Window_Frame.mtl

#
# object Frame
#

v  2.0000 191.0000 -45.8300
v  2.0000 191.0000 -36.8300
v  2.0000 165.6000 -36.8300
v  2.0000 165.6000 -45.8300
v  2.0000 165.6000 45.8300
v  2.0000 165.6000 36.8300
v  2.0000 191.0000 36.8300
v  2.0000 191.0000 45.8300
v  2.0000 200.0000 -36.8300
v  2.0000 200.0000 36.8300
v  2.0000 156.6000 36.8300
v  2.0000 156.6000 -36.8300
v  2.0000 200.0000 -48.8300
v  2.0000 156.6000 -48.8300
v  2.0000 156.6000 48.8300
v  2.0000 200.0000 48.8300
v  0.0000 200.0000 48.8300
v  0.0000 191.0000 45.8300
v  0.0000 165.6000 45.8300
v  0.0000 156.6000 48.8300
v  0.0000 156.6000 36.8300
v  -0.0000 156.6000 -36.8300
v  -0.0000 156.6000 -48.8300
v  -0.0000 165.6000 -45.8300
v  -0.0000 191.0000 -45.8300
v  -0.0000 200.0000 -48.8300
v  -0.0000 200.0000 -36.8300
v  0.0000 200.0000 36.8300
v  -0.0000 191.0000 -36.8300
v  -0.0000 165.6000 -36.8300
v  0.0000 165.6000 36.8300
v  0.0000 191.0000 36.8300
# 32 vertices

vn 1.0000 -0.0000 -0.0000
vn 0.0000 -0.3162 0.9487
vn 0.0000 0.0000 1.0000
vn 0.0000 0.3162 0.9487
vn -0.0000 -1.0000 0.0000
vn -0.0000 0.3162 -0.9487
vn -0.0000 0.0000 -1.0000
vn -0.0000 -0.3162 -0.9487
vn 0.0000 1.0000 -0.0000
# 9 vertex normals

vt 0.9714 0.4804 0.0000
vt 0.7358 0.4804 0.0000
vt 0.7358 -0.1845 0.0000
vt 0.9714 -0.1845 0.0000
vt 0.7358 0.5105 0.0000
vt 0.9714 0.5105 0.0000
vt 0.9714 1.1753 0.0000
vt 0.7358 1.1753 0.0000
vt 0.2307 -0.4641 0.0000
vt 0.2307 1.4641 0.0000
vt -0.0049 1.4641 0.0000
vt -0.0049 -0.4641 0.0000
vt 0.3654 1.4641 0.0000
vt 0.3654 -0.4641 0.0000
vt 0.6010 -0.4641 0.0000
vt 0.6010 1.4641 0.0000
vt 0.2307 -0.7782 0.0000
vt -0.0049 -0.6997 0.0000
vt 0.3654 -0.7782 0.0000
vt 0.6010 -0.6997 0.0000
vt 0.3654 1.7782 0.0000
vt 0.6010 1.6997 0.0000
vt 0.2307 1.7782 0.0000
vt -0.0049 1.6997 0.0000
vt 0.2141 1.8279 0.0000
vt -0.0215 1.7493 0.0000
vt 0.6834 1.1753 0.0000
vt 0.6834 0.5105 0.0000
vt 0.6176 1.7493 0.0000
vt 0.3820 1.8279 0.0000
vt 0.3131 1.7782 0.0000
vt 0.3131 1.4641 0.0000
vt 0.3131 -0.4641 0.0000
vt 0.3131 -0.7782 0.0000
vt 0.3820 -0.8279 0.0000
vt 0.6176 -0.7493 0.0000
vt 1.0237 -0.1845 0.0000
vt 1.0237 0.4804 0.0000
vt -0.0215 -0.7493 0.0000
vt 0.2141 -0.8279 0.0000
vt 0.2830 -0.7782 0.0000
vt 0.2830 -0.4641 0.0000
vt 0.2830 1.4641 0.0000
vt 0.2830 1.7782 0.0000
vt 0.6834 0.4804 0.0000
vt 0.6834 -0.1845 0.0000
vt 0.6534 -0.4641 0.0000
vt 0.6534 1.4641 0.0000
vt 1.0237 0.5105 0.0000
vt 1.0237 1.1753 0.0000
vt -0.0573 1.4641 0.0000
vt -0.0573 -0.4641 0.0000
# 52 texture coords

g Frame
usemtl Material__27
s off
f 1/1/1 2/2/1 3/3/1 4/4/1 
f 5/5/1 6/6/1 7/7/1 8/8/1 
f 9/9/1 10/10/1 7/11/1 2/12/1 
f 11/13/1 12/14/1 3/15/1 6/16/1 
f 13/17/1 9/9/1 2/12/1 1/18/1 
f 12/14/1 14/19/1 4/20/1 3/15/1 
f 15/21/1 11/13/1 6/16/1 5/22/1 
f 10/10/1 16/23/1 8/24/1 7/11/1 
f 17/25/2 18/26/2 8/24/2 16/23/2 
f 18/27/3 19/28/3 5/5/3 8/8/3 
f 19/29/4 20/30/4 15/21/4 5/22/4 
f 20/31/5 21/32/5 11/13/5 15/21/5 
f 21/32/5 22/33/5 12/14/5 11/13/5 
f 22/33/5 23/34/5 14/19/5 12/14/5 
f 23/35/6 24/36/6 4/20/6 14/19/6 
f 24/37/7 25/38/7 1/1/7 4/4/7 
f 25/39/8 26/40/8 13/17/8 1/18/8 
f 26/41/9 27/42/9 9/9/9 13/17/9 
f 27/42/9 28/43/9 10/10/9 9/9/9 
f 28/43/9 17/44/9 16/23/9 10/10/9 
f 29/45/3 30/46/3 3/3/3 2/2/3 
f 30/47/9 31/48/9 6/16/9 3/15/9 
f 31/49/7 32/50/7 7/7/7 6/6/7 
f 32/51/5 29/52/5 2/12/5 7/11/5 
# 24 polygons

