# 3ds Max Wavefront OBJ Exporter v0.97b - (c)2007 guruware
<<<<<<< HEAD
# File Created: 16.02.2018 00:06:40
=======
# File Created: 04.02.2018 00:15:44
>>>>>>> add window models

mtllib 29x10 Transom window with grids (frame).mtl

#
# object Frame
#

<<<<<<< HEAD
v  2.0000 191.0000 -45.8300
v  2.0000 191.0000 -36.8300
v  2.0000 165.6000 -36.8300
v  2.0000 165.6000 -45.8300
v  2.0000 165.6000 45.8300
v  2.0000 165.6000 36.8300
v  2.0000 191.0000 36.8300
v  2.0000 191.0000 45.8300
v  2.0000 200.0000 -36.8300
v  2.0000 200.0000 36.8300
v  2.0000 156.6000 36.8300
v  2.0000 156.6000 -36.8300
v  2.0000 200.0000 -45.8300
v  2.0000 156.6000 -45.8300
v  2.0000 156.6000 45.8300
v  2.0000 200.0000 45.8300
v  0.0000 200.0000 47.3300
v  0.0000 191.0000 47.3300
v  2.0000 191.0000 47.3300
v  2.0000 200.0000 47.3300
v  0.0000 191.0000 45.8300
v  0.0000 165.6000 45.8300
v  0.0000 165.6000 47.3300
v  0.0000 156.6000 47.3300
v  2.0000 156.6000 47.3300
v  2.0000 165.6000 47.3300
v  0.0000 156.6000 45.8300
v  0.0000 156.6000 36.8300
v  -0.0000 156.6000 -36.8300
v  -0.0000 156.6000 -45.8300
v  -0.0000 156.6000 -47.3300
v  -0.0000 165.6000 -47.3300
v  2.0000 165.6000 -47.3300
v  2.0000 156.6000 -47.3300
v  -0.0000 165.6000 -45.8300
v  -0.0000 191.0000 -45.8300
v  -0.0000 191.0000 -47.3300
v  -0.0000 200.0000 -47.3300
v  2.0000 200.0000 -47.3300
v  2.0000 191.0000 -47.3300
v  -0.0000 200.0000 -45.8300
v  -0.0000 200.0000 -36.8300
v  0.0000 200.0000 36.8300
v  0.0000 200.0000 45.8300
v  -0.0000 191.0000 -36.8300
v  -0.0000 165.6000 -36.8300
v  0.0000 165.6000 36.8300
v  0.0000 191.0000 36.8300
# 48 vertices

vn 1.0000 -0.0000 -0.0000
vn 0.0000 0.0000 1.0000
vn -0.0000 -1.0000 0.0000
vn -0.0000 0.0000 -1.0000
vn 0.0000 1.0000 -0.0000
vn 1.0000 0.0000 -0.0000
=======
v  2.0000 45.8300 191.0000
v  2.0000 36.8300 191.0000
v  2.0000 36.8300 165.6000
v  2.0000 45.8300 165.6000
v  2.0000 -45.8300 165.6000
v  2.0000 -36.8300 165.6000
v  2.0000 -36.8300 191.0000
v  2.0000 -45.8300 191.0000
v  2.0000 36.8300 200.0000
v  2.0000 -36.8300 200.0000
v  2.0000 -36.8300 156.6000
v  2.0000 36.8300 156.6000
v  2.0000 45.8300 200.0000
v  2.0000 45.8300 156.6000
v  2.0000 -45.8300 156.6000
v  2.0000 -45.8300 200.0000
v  0.0000 -47.3300 200.0000
v  0.0000 -47.3300 191.0000
v  2.0000 -47.3300 191.0000
v  2.0000 -47.3300 200.0000
v  0.0000 -45.8300 191.0000
v  0.0000 -45.8300 165.6000
v  0.0000 -47.3300 165.6000
v  0.0000 -47.3300 156.6000
v  2.0000 -47.3300 156.6000
v  2.0000 -47.3300 165.6000
v  0.0000 -45.8300 156.6000
v  0.0000 -36.8300 156.6000
v  -0.0000 36.8300 156.6000
v  -0.0000 45.8300 156.6000
v  -0.0000 47.3300 156.6000
v  -0.0000 47.3300 165.6000
v  2.0000 47.3300 165.6000
v  2.0000 47.3300 156.6000
v  -0.0000 45.8300 165.6000
v  -0.0000 45.8300 191.0000
v  -0.0000 47.3300 191.0000
v  -0.0000 47.3300 200.0000
v  2.0000 47.3300 200.0000
v  2.0000 47.3300 191.0000
v  -0.0000 45.8300 200.0000
v  -0.0000 36.8300 200.0000
v  0.0000 -36.8300 200.0000
v  0.0000 -45.8300 200.0000
v  -0.0000 36.8300 191.0000
v  -0.0000 36.8300 165.6000
v  0.0000 -36.8300 165.6000
v  0.0000 -36.8300 191.0000
# 48 vertices

vn 1.0000 0.0000 -0.0000
vn 0.0000 -1.0000 0.0000
vn -0.0000 -0.0000 -1.0000
vn -0.0000 1.0000 0.0000
vn 0.0000 0.0000 1.0000
vn 1.0000 0.0000 0.0000
>>>>>>> add window models
# 6 vertex normals

vt 0.7555 1.0057 0.0000
vt 0.3869 1.0057 0.0000
vt 0.3869 -0.0347 0.0000
vt 0.7555 -0.0347 0.0000
vt 0.9659 -0.0347 0.0000
vt 1.3345 -0.0347 0.0000
vt 1.3345 1.0057 0.0000
vt 0.9659 1.0057 0.0000
vt -0.4025 -1.0085 0.0000
vt -0.4025 2.0085 0.0000
vt -0.7711 2.0085 0.0000
vt -0.7711 -1.0085 0.0000
vt -0.1921 2.0085 0.0000
vt -0.1921 -1.0085 0.0000
vt 0.1765 -1.0085 0.0000
vt 0.1765 2.0085 0.0000
vt -0.4025 -1.3771 0.0000
vt -0.7711 -1.3771 0.0000
vt -0.1921 -1.3771 0.0000
vt 0.1765 -1.3771 0.0000
vt -0.1921 2.3771 0.0000
vt 0.1765 2.3771 0.0000
vt -0.4025 2.3771 0.0000
vt -0.7711 2.3771 0.0000
vt -0.4025 2.5205 0.0000
vt -0.7711 2.5205 0.0000
vt -0.7711 2.4386 0.0000
vt -0.4025 2.4386 0.0000
vt 0.8840 1.0057 0.0000
vt 0.8840 -0.0347 0.0000
vt 0.1765 2.5205 0.0000
vt -0.1921 2.5205 0.0000
vt -0.1921 2.4386 0.0000
vt 0.1765 2.4386 0.0000
vt -0.2740 2.3771 0.0000
vt -0.2740 2.0085 0.0000
vt -0.2740 -1.0085 0.0000
vt -0.2740 -1.3771 0.0000
vt -0.1921 -1.5205 0.0000
vt 0.1765 -1.5205 0.0000
vt 0.1765 -1.4386 0.0000
vt -0.1921 -1.4386 0.0000
vt 0.8374 -0.0347 0.0000
vt 0.8374 1.0057 0.0000
vt -0.7711 -1.5205 0.0000
vt -0.4025 -1.5205 0.0000
vt -0.4025 -1.4386 0.0000
vt -0.7711 -1.4386 0.0000
vt -0.3206 -1.3771 0.0000
vt -0.3206 -1.0085 0.0000
vt -0.3206 2.0085 0.0000
vt -0.3206 2.3771 0.0000
vt 0.3050 1.0057 0.0000
vt 0.3050 -0.0347 0.0000
vt 0.2584 -1.0085 0.0000
vt 0.2584 2.0085 0.0000
vt 1.4164 -0.0347 0.0000
vt 1.4164 1.0057 0.0000
vt -0.8530 2.0085 0.0000
vt -0.8530 -1.0085 0.0000
vt -0.8530 2.3771 0.0000
vt -0.8531 2.4386 0.0000
vt -0.3206 2.4386 0.0000
vt -0.2740 2.4386 0.0000
vt 0.2584 2.3771 0.0000
vt 0.2584 2.4386 0.0000
vt 0.2584 -1.3771 0.0000
vt 0.2585 -1.4385 0.0000
vt -0.2740 -1.4386 0.0000
vt -0.3206 -1.4385 0.0000
vt -0.8530 -1.3772 0.0000
vt -0.8530 -1.4386 0.0000
# 72 texture coords

g Frame
usemtl Material__27
s off
f 1/1/1 2/2/1 3/3/1 4/4/1 
f 5/5/1 6/6/1 7/7/1 8/8/1 
f 9/9/1 10/10/1 7/11/1 2/12/1 
f 11/13/1 12/14/1 3/15/1 6/16/1 
f 13/17/1 9/9/1 2/12/1 1/18/1 
f 12/14/1 14/19/1 4/20/1 3/15/1 
f 15/21/1 11/13/1 6/16/1 5/22/1 
f 10/10/1 16/23/1 8/24/1 7/11/1 
f 17/25/2 18/26/2 19/27/2 20/28/2 
f 21/29/2 22/30/2 5/5/2 8/8/2 
f 23/31/2 24/32/2 25/33/2 26/34/2 
f 27/35/3 28/36/3 11/13/3 15/21/3 
f 28/36/3 29/37/3 12/14/3 11/13/3 
f 29/37/3 30/38/3 14/19/3 12/14/3 
f 31/39/4 32/40/4 33/41/4 34/42/4 
f 35/43/4 36/44/4 1/1/4 4/4/4 
f 37/45/4 38/46/4 39/47/4 40/48/4 
f 41/49/5 42/50/5 9/9/5 13/17/5 
f 42/50/5 43/51/5 10/10/5 9/9/5 
f 43/51/5 44/52/5 16/23/5 10/10/5 
f 45/53/2 46/54/2 3/3/2 2/2/2 
f 46/55/5 47/56/5 6/16/5 3/15/5 
f 47/57/4 48/58/4 7/7/4 6/6/4 
f 48/59/3 45/60/3 2/12/3 7/11/3 
f 21/61/3 8/24/3 19/27/3 18/62/3 
f 8/24/1 16/23/1 20/28/1 19/27/1 
f 16/23/5 44/52/5 17/63/5 20/28/5 
f 27/35/3 15/21/3 25/33/3 24/64/3 
f 15/21/1 5/22/1 26/34/1 25/33/1 
f 5/22/5 22/65/5 23/66/5 26/34/5 
f 35/67/5 4/20/5 33/41/5 32/68/5 
f 4/20/6 14/19/6 34/42/6 33/41/6 
f 14/19/3 30/38/3 31/69/3 34/42/3 
f 41/49/5 13/17/5 39/47/5 38/70/5 
f 13/17/1 1/18/1 40/48/1 39/47/1 
f 1/18/3 36/71/3 37/72/3 40/48/3 
# 36 polygons

