# 3ds Max Wavefront OBJ Exporter v0.97b - (c)2007 guruware
# File Created: 22.07.2017 02:03:44

mtllib 2'x3'_Single_Pane_Window_Frame.mtl

#
# object Frame
#

v  2.0000 190.6142 -39.8660
v  2.0000 190.6142 -30.4798
v  2.0000 99.1746 -30.4798
v  2.0000 99.1746 -39.8660
v  2.0000 99.1746 39.8660
v  2.0000 99.1746 30.4798
v  2.0000 190.6142 30.4798
v  2.0000 190.6142 39.8660
v  2.0000 200.0004 -30.4798
v  2.0000 200.0004 30.4798
v  2.0000 89.7884 30.4798
v  2.0000 89.7884 -30.4798
v  2.0000 200.0004 -42.8426
v  2.0000 89.7884 -42.8426
v  2.0000 89.7884 42.8426
v  2.0000 200.0004 42.8426
v  0.0000 200.0004 42.8426
v  0.0000 190.6142 39.8660
v  0.0000 99.1746 39.8660
v  0.0000 89.7884 42.8426
v  -0.0000 89.7884 30.4798
v  -0.0000 89.7884 -30.4798
v  -0.0000 89.7884 -42.8426
v  -0.0000 99.1746 -39.8660
v  -0.0000 190.6142 -39.8660
v  -0.0000 200.0004 -42.8426
v  0.0000 200.0004 -30.4798
v  0.0000 200.0004 30.4798
v  0.0000 190.6142 -30.4798
v  -0.0000 99.1746 -30.4798
v  0.0000 99.1746 30.4798
v  0.0000 190.6142 30.4798
# 32 vertices

vn 1.0000 -0.0000 -0.0000
vn 1.0000 0.0000 -0.0000
vn 1.0000 -0.0000 0.0000
vn 0.0000 -0.3023 0.9532
vn 0.0000 0.0000 1.0000
vn 0.0000 0.3023 0.9532
vn 0.0000 -1.0000 -0.0000
vn 0.0000 0.3023 -0.9532
vn 0.0000 0.0000 -1.0000
vn 0.0000 -0.3023 -0.9532
vn 0.0000 1.0000 -0.0000
# 11 vertex normals

vt 0.8528 1.7736 0.0000
vt 0.5827 1.7736 0.0000
vt 0.5827 -0.8577 0.0000
vt 0.8528 -0.8577 0.0000
vt 1.0248 -0.8577 0.0000
vt 1.2949 -0.8577 0.0000
vt 1.2949 1.7736 0.0000
vt 1.0248 1.7736 0.0000
vt 0.0061 -0.4547 0.0000
vt 0.0061 1.2952 0.0000
vt -0.2633 1.2952 0.0000
vt -0.2633 -0.4547 0.0000
vt 0.1573 1.2952 0.0000
vt 0.1573 -0.4547 0.0000
vt 0.4267 -0.4547 0.0000
vt 0.4267 1.2952 0.0000
vt 0.0061 -0.8096 0.0000
vt -0.2633 -0.7242 0.0000
vt 0.1573 -0.8096 0.0000
vt 0.4267 -0.7242 0.0000
vt 0.1573 1.6501 0.0000
vt 0.4267 1.5646 0.0000
vt 0.0061 1.6501 0.0000
vt -0.2633 1.5646 0.0000
vt -0.0112 1.7048 0.0000
vt -0.2807 1.6194 0.0000
vt 0.9672 1.7736 0.0000
vt 0.9672 -0.8577 0.0000
vt 0.4441 1.6194 0.0000
vt 0.1746 1.7048 0.0000
vt 0.0999 1.6501 0.0000
vt 0.0999 1.2952 0.0000
vt 0.0999 -0.4547 0.0000
vt 0.0999 -0.8096 0.0000
vt 0.1746 -0.8644 0.0000
vt 0.4441 -0.7789 0.0000
vt 0.9104 -0.8577 0.0000
vt 0.9104 1.7736 0.0000
vt -0.2807 -0.7789 0.0000
vt -0.0112 -0.8644 0.0000
vt 0.0636 -0.8096 0.0000
vt 0.0636 -0.4547 0.0000
vt 0.0636 1.2952 0.0000
vt 0.0636 1.6501 0.0000
vt 0.5252 1.7736 0.0000
vt 0.5252 -0.8577 0.0000
vt 0.4841 -0.4547 0.0000
vt 0.4841 1.2952 0.0000
vt 1.3524 -0.8577 0.0000
vt 1.3524 1.7736 0.0000
vt -0.3207 1.2952 0.0000
vt -0.3207 -0.4547 0.0000
# 52 texture coords

g Frame
usemtl Material__27
s 1
f 1/1/1 2/2/2 3/3/1 4/4/1 
f 5/5/3 6/6/1 7/7/1 8/8/1 
f 9/9/2 10/10/1 7/11/1 2/12/2 
f 11/13/1 12/14/1 3/15/1 6/16/1 
f 13/17/2 9/9/2 2/12/2 1/18/1 
f 12/14/1 14/19/2 4/20/1 3/15/1 
f 15/21/3 11/13/1 6/16/1 5/22/3 
f 10/10/1 16/23/1 8/24/1 7/11/1 
s off
f 17/25/4 18/26/4 8/24/4 16/23/4 
f 18/27/5 19/28/5 5/5/5 8/8/5 
f 19/29/6 20/30/6 15/21/6 5/22/6 
f 20/31/7 21/32/7 11/13/7 15/21/7 
f 21/32/7 22/33/7 12/14/7 11/13/7 
f 22/33/7 23/34/7 14/19/7 12/14/7 
f 23/35/8 24/36/8 4/20/8 14/19/8 
f 24/37/9 25/38/9 1/1/9 4/4/9 
f 25/39/10 26/40/10 13/17/10 1/18/10 
f 26/41/11 27/42/11 9/9/11 13/17/11 
f 27/42/11 28/43/11 10/10/11 9/9/11 
f 28/43/11 17/44/11 16/23/11 10/10/11 
f 29/45/5 30/46/5 3/3/5 2/2/5 
f 30/47/11 31/48/11 6/16/11 3/15/11 
f 31/49/9 32/50/9 7/7/9 6/6/9 
f 32/51/7 29/52/7 2/12/7 7/11/7 
# 24 polygons

