# 3ds Max Wavefront OBJ Exporter v0.97b - (c)2007 guruware
<<<<<<< HEAD
# File Created: 16.02.2018 00:08:24
=======
# File Created: 03.02.2018 22:38:01
>>>>>>> add window models

mtllib 30x40 Vinyl double pane window with grids (frame).mtl

#
# object Windows_Frame
#

<<<<<<< HEAD
v  2.0000 200.7739 -44.9461
v  2.0000 200.7739 -38.0999
v  2.0000 99.1746 -38.0999
v  2.0000 99.1746 -44.9461
v  2.0000 99.1746 44.9461
v  2.0000 99.1746 38.0999
v  2.0000 200.7739 38.0999
v  2.0000 200.7739 44.9461
v  2.0000 207.6201 -38.0999
v  2.0000 207.6201 38.0999
v  2.0000 92.3284 38.0999
v  2.0000 92.3284 -38.0999
v  2.0000 207.6201 -44.9461
v  2.0000 92.3284 -44.9461
v  2.0000 92.3284 44.9461
v  2.0000 207.6201 44.9461
v  0.0000 207.6201 46.4461
v  0.0000 200.7739 46.4461
v  2.0000 200.7739 46.4461
v  2.0000 207.6201 46.4461
v  0.0000 200.7739 44.9461
v  0.0000 99.1746 44.9461
v  0.0000 99.1746 46.4461
v  0.0000 92.3284 46.4461
v  2.0000 92.3284 46.4461
v  2.0000 99.1746 46.4461
v  0.0000 92.3284 44.9461
v  -0.0000 92.3284 38.0999
v  -0.0000 92.3284 -38.0999
v  -0.0000 92.3284 -44.9461
v  -0.0000 92.3284 -46.4461
v  -0.0000 99.1746 -46.4461
v  2.0000 99.1746 -46.4461
v  2.0000 92.3284 -46.4461
v  -0.0000 99.1746 -44.9461
v  -0.0000 200.7739 -44.9461
v  -0.0000 200.7739 -46.4461
v  -0.0000 207.6201 -46.4461
v  2.0000 207.6201 -46.4461
v  2.0000 200.7739 -46.4461
v  -0.0000 207.6201 -44.9461
v  0.0000 207.6201 -38.0999
v  0.0000 207.6201 38.0999
v  0.0000 207.6201 44.9461
v  0.0000 200.7739 -38.0999
v  -0.0000 99.1746 -38.0999
v  0.0000 99.1746 38.0999
v  0.0000 200.7739 38.0999
# 48 vertices

vn 1.0000 0.0000 -0.0000
vn 1.0000 -0.0000 -0.0000
vn 1.0000 -0.0000 0.0000
vn 0.0000 0.0000 1.0000
vn 0.0000 -1.0000 -0.0000
vn 0.0000 0.0000 -1.0000
vn 0.0000 1.0000 -0.0000
=======
v  2.0000 44.9461 200.7739
v  2.0000 38.0999 200.7739
v  2.0000 38.0999 99.1746
v  2.0000 44.9461 99.1746
v  2.0000 -44.9461 99.1746
v  2.0000 -38.0999 99.1746
v  2.0000 -38.0999 200.7739
v  2.0000 -44.9461 200.7739
v  2.0000 38.0999 207.6201
v  2.0000 -38.0999 207.6201
v  2.0000 -38.0999 92.3284
v  2.0000 38.0999 92.3284
v  2.0000 44.9461 207.6201
v  2.0000 44.9461 92.3284
v  2.0000 -44.9461 92.3284
v  2.0000 -44.9461 207.6201
v  0.0000 -46.4461 207.6201
v  0.0000 -46.4461 200.7739
v  2.0000 -46.4461 200.7739
v  2.0000 -46.4461 207.6201
v  0.0000 -44.9461 200.7739
v  0.0000 -44.9461 99.1746
v  0.0000 -46.4461 99.1746
v  0.0000 -46.4461 92.3284
v  2.0000 -46.4461 92.3284
v  2.0000 -46.4461 99.1746
v  0.0000 -44.9461 92.3284
v  -0.0000 -38.0999 92.3284
v  -0.0000 38.0999 92.3284
v  -0.0000 44.9461 92.3284
v  -0.0000 46.4461 92.3284
v  -0.0000 46.4461 99.1746
v  2.0000 46.4461 99.1746
v  2.0000 46.4461 92.3284
v  -0.0000 44.9461 99.1746
v  -0.0000 44.9461 200.7739
v  -0.0000 46.4461 200.7739
v  -0.0000 46.4461 207.6201
v  2.0000 46.4461 207.6201
v  2.0000 46.4461 200.7739
v  -0.0000 44.9461 207.6201
v  0.0000 38.0999 207.6201
v  0.0000 -38.0999 207.6201
v  0.0000 -44.9461 207.6201
v  0.0000 38.0999 200.7739
v  -0.0000 38.0999 99.1746
v  0.0000 -38.0999 99.1746
v  0.0000 -38.0999 200.7739
# 48 vertices

vn 1.0000 0.0000 0.0000
vn 1.0000 0.0000 -0.0000
vn 1.0000 -0.0000 -0.0000
vn 0.0000 -1.0000 0.0000
vn 0.0000 0.0000 -1.0000
vn 0.0000 1.0000 0.0000
vn 0.0000 0.0000 1.0000
>>>>>>> add window models
# 7 vertex normals

vt 1.1300 3.0368 0.0000
vt 0.7739 3.0368 0.0000
vt 0.7739 -2.2482 0.0000
vt 1.1300 -2.2482 0.0000
vt 1.5294 -2.2482 0.0000
vt 1.8856 -2.2482 0.0000
vt 1.8856 3.0368 0.0000
vt 1.5294 3.0368 0.0000
vt 0.4121 -1.4552 0.0000
vt 0.4121 2.5086 0.0000
vt 0.0560 2.5086 0.0000
vt 0.0560 -1.4552 0.0000
vt -0.6931 2.5086 0.0000
vt -0.6931 -1.4552 0.0000
vt -0.3370 -1.4552 0.0000
vt -0.3370 2.5086 0.0000
vt 0.4121 -1.8113 0.0000
vt 0.0560 -1.8113 0.0000
vt -0.6931 -1.8113 0.0000
vt -0.3370 -1.8113 0.0000
vt -0.6931 2.8647 0.0000
vt -0.3370 2.8647 0.0000
vt 0.4121 2.8647 0.0000
vt 0.0560 2.8647 0.0000
vt 0.4121 3.0467 0.0000
vt 0.0560 3.0467 0.0000
vt 0.0560 2.9427 0.0000
vt 0.4121 2.9427 0.0000
vt 1.4254 3.0368 0.0000
vt 1.4254 -2.2482 0.0000
vt -0.3370 3.0467 0.0000
vt -0.6931 3.0467 0.0000
vt -0.6931 2.9427 0.0000
vt -0.3370 2.9427 0.0000
vt -0.7972 2.8647 0.0000
vt -0.7972 2.5086 0.0000
vt -0.7972 -1.4552 0.0000
vt -0.7972 -1.8113 0.0000
vt -0.6931 -1.9934 0.0000
vt -0.3370 -1.9934 0.0000
vt -0.3370 -1.8894 0.0000
vt -0.6931 -1.8894 0.0000
vt 1.2340 -2.2482 0.0000
vt 1.2340 3.0368 0.0000
vt 0.0560 -1.9934 0.0000
vt 0.4121 -1.9934 0.0000
vt 0.4121 -1.8893 0.0000
vt 0.0560 -1.8893 0.0000
vt 0.5161 -1.8113 0.0000
vt 0.5161 -1.4552 0.0000
vt 0.5161 2.5086 0.0000
vt 0.5161 2.8647 0.0000
vt 0.6698 3.0368 0.0000
vt 0.6698 -2.2482 0.0000
vt -0.2330 -1.4552 0.0000
vt -0.2330 2.5086 0.0000
vt 1.9896 -2.2482 0.0000
vt 1.9896 3.0368 0.0000
vt -0.0481 2.5086 0.0000
vt -0.0481 -1.4552 0.0000
vt -0.0481 2.8647 0.0000
vt -0.0481 2.9427 0.0000
vt 0.5161 2.9427 0.0000
vt -0.7972 2.9427 0.0000
vt -0.2330 2.8647 0.0000
vt -0.2330 2.9427 0.0000
vt -0.2330 -1.8113 0.0000
vt -0.2330 -1.8894 0.0000
vt -0.7972 -1.8894 0.0000
vt 0.5161 -1.8893 0.0000
vt -0.0481 -1.8113 0.0000
vt -0.0481 -1.8893 0.0000
# 72 texture coords

g Windows_Frame
usemtl Material__27
s 1
f 1/1/1 2/2/1 3/3/2 4/4/2 
f 5/5/3 6/6/2 7/7/2 8/8/2 
f 9/9/1 10/10/2 7/11/2 2/12/1 
f 11/13/2 12/14/2 3/15/2 6/16/2 
f 13/17/1 9/9/1 2/12/1 1/18/1 
f 12/14/2 14/19/1 4/20/2 3/15/2 
f 15/21/3 11/13/2 6/16/2 5/22/3 
f 10/10/2 16/23/2 8/24/2 7/11/2 
s off
f 17/25/4 18/26/4 19/27/4 20/28/4 
f 21/29/4 22/30/4 5/5/4 8/8/4 
f 23/31/4 24/32/4 25/33/4 26/34/4 
f 27/35/5 28/36/5 11/13/5 15/21/5 
f 28/36/5 29/37/5 12/14/5 11/13/5 
f 29/37/5 30/38/5 14/19/5 12/14/5 
f 31/39/6 32/40/6 33/41/6 34/42/6 
f 35/43/6 36/44/6 1/1/6 4/4/6 
f 37/45/6 38/46/6 39/47/6 40/48/6 
f 41/49/7 42/50/7 9/9/7 13/17/7 
f 42/50/7 43/51/7 10/10/7 9/9/7 
f 43/51/7 44/52/7 16/23/7 10/10/7 
f 45/53/4 46/54/4 3/3/4 2/2/4 
f 46/55/7 47/56/7 6/16/7 3/15/7 
f 47/57/6 48/58/6 7/7/6 6/6/6 
f 48/59/5 45/60/5 2/12/5 7/11/5 
f 21/61/5 8/24/5 19/27/5 18/62/5 
f 8/24/2 16/23/2 20/28/2 19/27/2 
f 16/23/7 44/52/7 17/63/7 20/28/7 
f 27/35/5 15/21/5 25/33/5 24/64/5 
f 15/21/2 5/22/2 26/34/2 25/33/2 
f 5/22/7 22/65/7 23/66/7 26/34/7 
f 35/67/7 4/20/7 33/41/7 32/68/7 
f 4/20/1 14/19/1 34/42/1 33/41/1 
f 14/19/5 30/38/5 31/69/5 34/42/5 
f 41/49/7 13/17/7 39/47/7 38/70/7 
f 13/17/1 1/18/1 40/48/1 39/47/1 
f 1/18/5 36/71/5 37/72/5 40/48/5 
# 36 polygons

