# 3ds Max Wavefront OBJ Exporter v0.97b - (c)2007 guruware
# File Created: 15.02.2018 23:31:41

mtllib 3' steel entry door with half glass (left hand swing) Wall_Part.mtl

#
# object Door_Wall_Part
#

v  -15.0000 8.3850 45.7200
v  -15.0000 211.7850 45.7200
v  -0.0000 211.8850 45.8200
v  -0.0000 8.2850 45.8200
v  -15.0000 211.7850 -45.7200
v  -15.0000 8.3850 -45.7200
v  0.0000 8.2850 -45.8200
v  0.0000 211.8850 -45.8200
v  0.0000 8.2850 -48.0203
v  0.0000 211.8850 -48.0203
v  -0.0000 211.8850 48.0197
v  -0.0000 8.2850 48.0197
v  0.0000 214.0852 -45.8200
v  -0.0000 214.0852 45.8200
v  -0.0000 214.0850 48.0197
v  0.0000 214.0850 -48.0203
# 16 vertices

vn 0.0067 -0.0000 -1.0000
vn 0.0067 -0.0000 1.0000
vn 0.0067 -1.0000 0.0000
vn 1.0000 -0.0000 -0.0000
vn 1.0000 0.0000 0.0000
vn 1.0000 0.0000 -0.0000
# 6 vertex normals

vt 0.1620 -1.2559 0.0000
vt 0.1621 2.4482 0.0000
vt -0.1111 2.4501 0.0000
vt -0.1111 -1.2577 0.0000
vt -0.5118 2.4482 0.0000
vt -0.5118 -1.2559 0.0000
vt -0.2386 -1.2577 0.0000
vt -0.2386 2.4501 0.0000
vt 1.0557 0.4093 0.0000
vt 1.0557 -1.2559 0.0000
vt 1.3288 -1.2577 0.0000
vt 1.3288 0.4111 0.0000
vt -0.1985 -1.2577 0.0000
vt -0.1985 2.4501 0.0000
vt -0.1512 2.4501 0.0000
vt -0.1512 -1.2577 0.0000
vt 1.3689 -1.2577 0.0000
vt 1.3689 0.4111 0.0000
vt -0.1111 2.4901 0.0000
vt -0.1512 2.4901 0.0000
vt -0.1985 2.4901 0.0000
vt -0.2386 2.4901 0.0000
# 22 texture coords

g Door_Wall_Part
usemtl Material__27
s 2
f 1/1/1 2/2/1 3/3/1 4/4/1 
f 5/5/2 6/6/2 7/7/2 8/8/2 
s 4
f 2/9/3 5/10/3 8/11/3 3/12/3 
s off
f 8/8/4 7/7/4 9/13/4 10/14/4 
f 4/4/4 3/3/4 11/15/4 12/16/4 
f 3/12/5 8/11/5 13/17/5 14/18/5 
f 11/15/6 3/3/6 14/19/6 15/20/6 
f 8/8/6 10/14/6 16/21/6 13/22/6 
# 8 polygons

