# 3ds Max Wavefront OBJ Exporter v0.97b - (c)2007 guruware
# File Created: 15.02.2018 16:15:37

mtllib 3 Steel entry door with half glass (Left Hand, Out Swing) Frame.mtl

#
# object Frame001
#

v  2.0000 8.5453 47.8200
v  2.0000 8.5453 56.3053
v  2.0000 -0.0003 56.3053
v  2.0000 -0.0003 47.8200
v  2.0000 8.5453 -56.3053
v  2.0000 213.8850 -56.3053
v  2.0000 213.8850 -47.8200
v  2.0000 8.5453 -47.8200
v  2.0000 223.5850 59.0205
v  2.0000 213.8850 56.3053
v  2.0000 213.8850 47.8200
v  2.0000 223.5850 47.8200
v  2.0000 -0.0003 -47.8200
v  2.0000 223.5850 -59.0205
v  2.0000 223.5850 -47.8200
v  2.0000 -0.0003 -56.3053
v  -0.0000 223.5850 59.0205
v  -0.0000 213.8850 56.3053
v  -0.0000 8.5453 56.3053
v  -0.0000 -0.0003 56.3053
v  -0.0000 -0.0003 47.8200
v  0.0000 -0.0003 -47.8200
v  0.0000 -0.0003 -56.3053
v  0.0000 8.5453 -56.3053
v  0.0000 213.8850 -56.3053
v  0.0000 223.5850 -59.0205
v  0.0000 223.5850 -47.8200
v  0.0000 223.5850 47.8200
v  -0.0000 8.5453 47.8200
v  -0.0000 213.8850 47.8200
v  0.0000 213.8850 -47.8200
v  0.0000 8.5453 -47.8200
# 32 vertices

vn 1.0000 0.0000 -0.0000
vn 1.0000 -0.0000 -0.0000
vn 1.0000 -0.0000 0.0000
vn 0.0000 -0.2696 0.9630
vn 0.0000 0.0000 1.0000
vn 0.0000 -1.0000 -0.0000
vn 0.0000 0.0000 -1.0000
vn 0.0000 -0.2696 -0.9630
vn 0.0000 1.0000 -0.0000
# 9 vertex normals

vt 0.6751 -1.0657 0.0000
vt 0.5205 -1.0657 0.0000
vt 0.5205 -1.2213 0.0000
vt 0.6751 -1.2213 0.0000
vt 0.4003 -1.0657 0.0000
vt 0.4003 2.6738 0.0000
vt 0.2458 2.6738 0.0000
vt 0.2458 -1.0657 0.0000
vt 0.9719 0.9270 0.0000
vt 0.7952 0.8776 0.0000
vt 0.7952 0.7230 0.0000
vt 0.9719 0.7230 0.0000
vt 1.2470 2.1976 0.0000
vt 1.0886 2.1976 0.0000
vt 1.0886 0.4611 0.0000
vt 1.2470 0.4611 0.0000
vt 0.7952 -1.1732 0.0000
vt 0.9719 -1.2226 0.0000
vt 0.9719 -1.0187 0.0000
vt 0.7952 -1.0187 0.0000
vt 0.6751 2.6738 0.0000
vt 0.5205 2.6738 0.0000
vt 0.2458 -1.2213 0.0000
vt 0.4003 -1.2213 0.0000
vt 0.9621 0.9621 0.0000
vt 0.7854 0.9126 0.0000
vt 0.4841 2.6738 0.0000
vt 0.4841 -1.0657 0.0000
vt 0.4841 -1.2213 0.0000
vt 0.5205 -1.2577 0.0000
vt 0.6751 -1.2577 0.0000
vt 1.0523 2.1976 0.0000
vt 1.0523 0.4611 0.0000
vt 0.2458 -1.2577 0.0000
vt 0.4003 -1.2577 0.0000
vt 0.4368 -1.2213 0.0000
vt 0.4368 -1.0657 0.0000
vt 0.4368 2.6738 0.0000
vt 0.7854 -1.2083 0.0000
vt 0.9621 -1.2577 0.0000
vt 1.0083 -1.2226 0.0000
vt 1.0083 -1.0187 0.0000
vt 1.0083 0.7230 0.0000
vt 1.0083 0.9270 0.0000
vt 0.7115 -1.0657 0.0000
vt 0.7115 2.6738 0.0000
vt 0.7588 0.7230 0.0000
vt 0.7588 -1.0187 0.0000
vt 0.2094 2.6738 0.0000
vt 0.2094 -1.0657 0.0000
vt 1.2865 0.4611 0.0000
vt 1.2865 2.1976 0.0000
# 52 texture coords

g Frame001
usemtl Material__27
s off
f 1/1/1 2/2/1 3/3/1 4/4/1 
f 5/5/2 6/6/2 7/7/2 8/8/2 
f 9/9/3 10/10/3 11/11/3 12/12/3 
f 1/13/3 4/14/3 13/15/3 8/16/3 
f 6/17/2 14/18/2 15/19/2 7/20/2 
f 15/19/3 12/12/3 11/11/3 7/20/3 
f 1/1/2 11/21/2 10/22/2 2/2/2 
f 8/8/2 13/23/2 16/24/2 5/5/2 
f 17/25/4 18/26/4 10/10/4 9/9/4 
f 18/27/5 19/28/5 2/2/5 10/22/5 
f 19/28/5 20/29/5 3/3/5 2/2/5 
f 20/30/6 21/31/6 4/4/6 3/3/6 
f 21/32/6 22/33/6 13/15/6 4/14/6 
f 22/34/6 23/35/6 16/24/6 13/23/6 
f 23/36/7 24/37/7 5/5/7 16/24/7 
f 24/37/7 25/38/7 6/6/7 5/5/7 
f 25/39/8 26/40/8 14/18/8 6/17/8 
f 26/41/9 27/42/9 15/19/9 14/18/9 
f 27/42/9 28/43/9 12/12/9 15/19/9 
f 28/43/9 17/44/9 9/9/9 12/12/9 
f 29/45/7 30/46/7 11/21/7 1/1/7 
f 30/47/6 31/48/6 7/20/6 11/11/6 
f 31/49/5 32/50/5 8/8/5 7/7/5 
f 32/51/9 29/52/9 1/13/9 8/16/9 
# 24 polygons

