# 3ds Max Wavefront OBJ Exporter v0.97b - (c)2007 guruware
# File Created: 15.02.2018 16:18:56

mtllib 42 Single Wood Door (Arch Top Trim).mtl

#
# object 4__Shed_Door001
#

v  3.0000 186.7212 60.2729
v  3.0000 186.7212 53.6310
v  3.0000 193.1369 53.6310
v  3.0000 193.1369 60.2724
v  3.0000 186.7212 -53.6310
v  3.0000 193.1369 -53.6310
v  3.0000 0.0004 -60.2725
v  3.0000 186.7212 -60.2725
v  3.0000 0.0004 -53.6310
v  3.0000 0.0004 60.2729
v  3.0000 0.0004 53.6310
v  3.0000 193.1369 -60.2720
v  -0.0000 0.0004 60.2729
v  -0.0000 186.7212 60.2729
v  -0.0000 186.7213 61.7729
v  3.0000 186.7213 61.7729
v  3.0000 193.1370 61.7724
v  -0.0000 193.1370 61.7724
v  -0.0000 193.1369 60.2724
v  -0.0000 193.1369 53.6310
v  0.0000 193.1369 -53.6310
v  0.0000 193.1369 -60.2720
v  0.0000 193.1370 -61.7720
v  3.0000 193.1370 -61.7720
v  3.0000 186.7213 -61.7725
v  0.0000 186.7213 -61.7725
v  0.0000 186.7212 -60.2725
v  0.0000 0.0004 -60.2725
v  0.0000 0.0004 -53.6310
v  0.0000 186.7212 -53.6310
v  -0.0000 186.7212 53.6310
v  -0.0000 0.0004 53.6310
v  2.9992 101.0411 53.3399
v  2.9992 87.7499 53.3399
v  2.9992 87.7499 47.0648
v  2.9992 101.0411 47.0648
v  2.9993 179.9044 -47.0649
v  2.9993 186.4525 -47.0649
v  2.9993 186.4525 -31.1775
v  2.9993 179.6539 -31.1775
v  2.9993 101.0411 -47.0649
v  2.9993 101.0411 -53.3400
v  2.9993 179.9045 -53.3400
v  2.9993 87.7499 -53.3400
v  2.9993 87.7499 -47.0649
v  2.9993 17.2476 -47.0649
v  2.9993 17.2476 -53.3400
v  2.9992 17.2476 53.3399
v  2.9992 17.2476 47.0648
v  2.9992 172.7045 47.0648
v  2.9992 172.7045 53.3399
v  2.9992 3.5197 47.0648
v  2.9993 3.5197 -47.0649
v  2.9993 186.4525 -53.3400
v  2.9992 3.5197 53.3399
v  -0.0000 3.5197 53.3399
v  -0.0000 3.5197 47.0648
v  -0.0000 3.5197 -47.0649
v  -0.0000 3.5197 -53.3400
v  2.9993 3.5197 -53.3400
v  -0.0000 17.2476 -53.3400
v  0.0000 87.7499 -53.3400
v  0.0000 101.0411 -53.3400
v  0.0000 179.9045 -53.3400
v  0.0000 186.4525 -53.3400
v  0.0000 186.4525 -47.0649
v  -0.0000 186.4525 -31.1775
v  -0.0000 186.4525 47.0648
v  -0.0000 186.4525 53.3399
v  2.9992 186.4525 53.3399
v  2.9992 186.4525 47.0648
v  -0.0000 172.7045 53.3399
v  -0.0000 101.0411 53.3399
v  -0.0000 87.7499 53.3399
v  -0.0000 17.2476 53.3399
v  -0.0000 17.2476 -47.0649
v  -0.0000 17.2476 47.0648
v  -0.0000 87.7499 47.0648
v  -0.0000 172.7045 47.0648
v  -0.0000 174.5499 38.4065
v  2.9992 174.5499 38.4065
v  0.0000 179.9044 -47.0649
v  0.0000 101.0411 -47.0649
v  -0.0000 101.0411 47.0648
v  0.0000 87.7499 -47.0649
v  2.9993 186.4525 -10.8444
v  2.9993 179.2275 -10.8444
v  -0.0000 186.4525 -10.8444
v  -0.0000 179.6539 -31.1775
v  2.9993 175.9242 30.6231
v  -0.0000 175.9242 30.6231
v  2.9992 186.4525 38.4065
v  -0.0000 186.4525 38.4065
v  2.9993 177.6498 15.0663
v  2.9993 176.7644 23.6841
v  -0.0000 176.7644 23.6841
v  -0.0000 177.6498 15.0663
v  2.9993 186.4525 23.6841
v  2.9993 186.4525 30.6231
v  -0.0000 186.4525 23.6841
v  -0.0000 186.4525 30.6231
v  2.9993 178.5656 4.1877
v  2.9993 186.4525 4.1877
v  2.9993 186.4525 15.0663
v  -0.0000 186.4525 4.1877
v  -0.0000 186.4525 15.0663
v  -0.0000 178.5656 4.1877
v  -0.0000 179.2275 -10.8444
# 108 vertices

vn 1.0000 0.0000 0.0000
vn 1.0000 -0.0000 0.0000
vn 1.0000 0.0000 -0.0000
vn -0.0000 0.0000 1.0000
vn -0.0000 0.0001 1.0000
vn 0.0000 1.0000 -0.0000
vn -0.0000 1.0000 0.0000
vn 0.0000 0.0001 -1.0000
vn 0.0000 0.0000 -1.0000
vn 0.0000 -1.0000 -0.0000
vn 0.0000 1.0000 -0.0001
vn -0.0000 -1.0000 0.0001
vn 0.0000 -1.0000 -0.0001
vn -0.0000 1.0000 0.0001
vn 0.0000 -0.0000 -1.0000
vn -0.0000 0.7071 0.7071
vn 0.0000 0.7071 -0.7071
vn 0.0000 -0.7071 -0.7071
vn 0.0000 -0.9780 -0.2085
vn 0.0000 -0.9816 -0.1912
vn -0.0000 -0.7071 0.7071
vn 0.0000 -0.9999 -0.0158
vn 0.0000 -0.9998 -0.0184
vn 0.0000 -0.9891 -0.1471
vn 0.0000 -0.9957 -0.0931
vn 0.0000 -0.9938 -0.1112
vn 0.0000 -0.9995 -0.0325
vn 0.0000 -0.9980 -0.0640
# 28 vertex normals

vt 0.3702 2.3052 0.0000
vt 0.3702 2.1123 0.0000
vt 0.5565 2.1123 0.0000
vt 0.5565 2.3052 0.0000
vt 0.3702 -1.0020 0.0000
vt 0.5565 -1.0020 0.0000
vt -0.9829 -2.0902 0.0000
vt -0.9829 3.3312 0.0000
vt -1.1757 3.3312 0.0000
vt -1.1757 -2.0902 0.0000
vt -1.7292 -2.0902 0.0000
vt -1.5363 -2.0902 0.0000
vt -1.5363 3.3312 0.0000
vt -1.7292 3.3312 0.0000
vt 0.3702 -1.1948 0.0000
vt 0.5565 -1.1948 0.0000
vt -1.8163 -2.0902 0.0000
vt -1.8163 3.3312 0.0000
vt 0.3702 2.4358 0.0000
vt 0.3702 2.3487 0.0000
vt 0.5565 2.3487 0.0000
vt 0.5565 2.4358 0.0000
vt 0.6436 2.3052 0.0000
vt 0.6436 2.1123 0.0000
vt 0.6436 -1.0020 0.0000
vt 0.6436 -1.1948 0.0000
vt 0.5565 -1.3255 0.0000
vt 0.5565 -1.2384 0.0000
vt 0.3702 -1.2384 0.0000
vt 0.3702 -1.3255 0.0000
vt -0.8958 3.3312 0.0000
vt -0.8958 -2.0902 0.0000
vt -0.9829 -2.1773 0.0000
vt -1.1757 -2.1773 0.0000
vt -1.2628 -2.0902 0.0000
vt -1.2628 3.3312 0.0000
vt 0.2831 -1.0020 0.0000
vt 0.2831 2.1123 0.0000
vt -1.4492 3.3312 0.0000
vt -1.4492 -2.0902 0.0000
vt -1.5363 -2.1773 0.0000
vt -1.7292 -2.1773 0.0000
vt 0.6436 2.3487 0.0000
vt 0.2831 2.3052 0.0000
vt 0.2831 2.3487 0.0000
vt 0.2831 -1.1948 0.0000
vt 0.2831 -1.2384 0.0000
vt 0.6436 -1.2384 0.0000
vt -0.1028 0.7899 0.0000
vt -0.1028 0.4040 0.0000
vt 0.0794 0.4040 0.0000
vt 0.0794 0.7899 0.0000
vt 1.0551 -0.9411 0.0000
vt 1.2474 -0.9421 0.0000
vt 1.2501 -0.4812 0.0000
vt 1.0516 -0.4792 0.0000
vt -0.6148 0.7131 0.0000
vt -0.4326 0.7131 0.0000
vt -0.4326 3.0029 0.0000
vt -0.6148 3.0029 0.0000
vt -0.4326 0.3272 0.0000
vt -0.6148 0.3272 0.0000
vt -0.6148 -1.7198 0.0000
vt -0.4326 -1.7198 0.0000
vt -0.1028 -1.6430 0.0000
vt 0.0794 -1.6430 0.0000
vt 0.0794 2.8706 0.0000
vt -0.1028 2.8706 0.0000
vt 1.7427 0.7860 0.0000
vt 2.1286 0.7860 0.0000
vt 2.1286 3.5190 0.0000
vt 1.7427 3.5190 0.0000
vt 2.1153 -2.4134 0.0000
vt 2.1153 0.3196 0.0000
vt 1.7167 0.3196 0.0000
vt 1.7167 -2.4134 0.0000
vt 1.0566 -1.1239 0.0000
vt 1.2470 -1.1240 0.0000
vt 1.7167 -2.5956 0.0000
vt 2.1153 -2.5956 0.0000
vt 2.2024 -2.5956 0.0000
vt 2.2024 -2.4134 0.0000
vt 2.2024 0.3196 0.0000
vt 2.2024 0.5018 0.0000
vt 2.1153 0.5018 0.0000
vt 2.1153 0.5889 0.0000
vt 1.7167 0.5889 0.0000
vt 1.7167 0.5018 0.0000
vt -0.3455 -1.7198 0.0000
vt -0.3455 0.3272 0.0000
vt -0.3455 0.7131 0.0000
vt -0.3455 3.0028 0.0000
vt 1.0567 -1.2111 0.0000
vt 1.2469 -1.2111 0.0000
vt 1.3347 -1.1242 0.0000
vt 1.3355 -0.9422 0.0000
vt 1.3378 -0.4814 0.0000
vt 1.3626 1.7940 0.0000
vt 1.3628 1.9763 0.0000
vt 1.2759 1.9765 0.0000
vt 1.2757 1.7940 0.0000
vt 1.2760 2.0638 0.0000
vt 0.8768 2.0638 0.0000
vt 0.8769 1.9770 0.0000
vt -0.1898 2.8706 0.0000
vt -0.1898 0.7899 0.0000
vt -0.1898 0.4040 0.0000
vt -0.1898 -1.6430 0.0000
vt 1.7167 -2.6827 0.0000
vt 2.1153 -2.6827 0.0000
vt 1.6297 0.3196 0.0000
vt 1.6297 -2.4134 0.0000
vt 0.1665 -1.6430 0.0000
vt 0.1665 0.4040 0.0000
vt 0.8767 1.7955 0.0000
vt 0.7917 1.7784 0.0000
vt 0.8437 1.5277 0.0000
vt 0.9294 1.5438 0.0000
vt -0.7019 3.0029 0.0000
vt -0.7019 0.7131 0.0000
vt 0.1665 0.7899 0.0000
vt 0.1665 2.8706 0.0000
vt 2.2157 0.7860 0.0000
vt 2.2157 3.5190 0.0000
vt -0.7019 0.3272 0.0000
vt -0.7019 -1.7198 0.0000
vt 1.6556 3.5190 0.0000
vt 1.6556 0.7860 0.0000
vt 1.2550 0.1089 0.0000
vt 1.0475 0.1121 0.0000
vt 1.3404 0.1078 0.0000
vt 0.9640 -0.4792 0.0000
vt 0.9655 -0.9407 0.0000
vt 0.9689 1.3169 0.0000
vt 0.8826 1.3042 0.0000
vt 1.2751 1.5423 0.0000
vt 1.3623 1.5423 0.0000
vt 1.0190 0.8650 0.0000
vt 0.9936 1.1151 0.0000
vt 0.9072 1.1054 0.0000
vt 0.9324 0.8575 0.0000
vt 1.2746 1.1139 0.0000
vt 1.2748 1.3159 0.0000
vt 1.3616 1.1137 0.0000
vt 1.3619 1.3158 0.0000
vt 1.0446 0.5494 0.0000
vt 1.2727 0.5457 0.0000
vt 1.2741 0.8628 0.0000
vt 1.3601 0.5444 0.0000
vt 1.3609 0.8624 0.0000
vt 0.9588 0.5454 0.0000
vt 0.9609 0.1113 0.0000
# 152 texture coords

g 4__Shed_Door001
usemtl Material__27
s 1
f 1/1/1 2/2/1 3/3/1 4/4/1 
f 3/3/1 2/2/1 5/5/1 6/6/1 
f 7/7/2 8/8/1 5/9/1 9/10/2 
f 10/11/2 11/12/2 2/13/1 1/14/1 
f 6/6/1 5/5/1 8/15/1 12/16/3 
s 2
f 13/17/4 10/11/4 1/14/4 14/18/4 
f 15/19/5 16/20/5 17/21/5 18/22/5 
s 4
f 19/23/6 4/4/6 3/3/6 20/24/6 
f 20/24/6 3/3/6 6/6/6 21/25/6 
f 21/25/6 6/6/6 12/16/7 22/26/7 
s 2
f 23/27/8 24/28/8 25/29/8 26/30/8 
f 27/31/9 8/8/9 7/7/9 28/32/9 
s 4
f 28/33/10 7/7/10 9/10/10 29/34/10 
s 2
f 29/35/4 9/10/4 5/9/4 30/36/4 
s 4
f 30/37/10 5/5/10 2/2/10 31/38/10 
s 2
f 31/39/9 2/13/9 11/12/9 32/40/9 
s 4
f 32/41/10 11/12/10 10/11/10 13/42/10 
s 1
f 1/1/1 4/4/1 17/21/1 16/20/1 
s 4
f 4/4/6 19/23/6 18/43/11 17/21/11 
f 14/44/12 1/1/12 16/20/12 15/45/12 
s 1
f 12/16/3 8/15/1 25/29/3 24/28/3 
s 4
f 8/15/13 27/46/13 26/47/13 25/29/13 
f 22/26/7 12/16/7 24/28/14 23/48/14 
s 1
f 33/49/2 34/50/2 35/51/2 36/52/2 
f 37/53/2 38/54/2 39/55/2 40/56/2 
f 41/57/2 42/58/2 43/59/2 37/60/2 
f 44/61/2 45/62/2 46/63/2 47/64/2 
f 35/51/2 34/50/2 48/65/2 49/66/2 
f 33/49/2 36/52/2 50/67/2 51/68/2 
f 45/69/2 41/70/2 36/71/2 35/72/2 
f 52/73/2 53/74/2 46/75/2 49/76/2 
f 37/53/2 43/77/2 54/78/2 38/54/2 
f 49/76/2 48/79/2 55/80/2 52/73/2 
s 2
f 56/81/10 57/82/10 52/73/10 55/80/10 
f 57/82/10 58/83/10 53/74/10 52/73/10 
f 58/83/10 59/84/10 60/85/10 53/74/10 
s 4
f 59/86/9 61/87/9 47/88/9 60/85/9 
f 61/89/9 62/90/15 44/61/15 47/64/9 
f 62/90/15 63/91/15 42/58/15 44/61/15 
f 63/91/15 64/92/9 43/59/9 42/58/15 
f 64/93/9 65/94/9 54/78/9 43/77/9 
s 2
f 65/95/6 66/96/6 38/54/6 54/78/6 
f 38/54/6 66/96/6 67/97/6 39/55/6 
f 68/98/6 69/99/6 70/100/6 71/101/6 
s 4
f 69/102/4 72/103/4 51/104/4 70/100/4 
f 72/105/4 73/106/4 33/49/4 51/68/4 
f 73/106/4 74/107/4 34/50/4 33/49/4 
f 74/107/4 75/108/4 48/65/4 34/50/4 
f 75/109/4 56/110/4 55/80/4 48/79/4 
s 14
f 76/111/16 77/112/17 49/76/17 46/75/16 
f 77/113/17 78/114/18 35/51/18 49/66/17 
s 2
f 50/115/19 79/116/19 80/117/20 81/118/20 
s 4
f 82/119/4 83/120/4 41/57/4 37/60/4 
f 84/121/9 79/122/9 50/67/9 36/52/9 
s 2
f 83/123/7 84/124/7 36/71/7 41/70/7 
s 6
f 85/125/21 76/126/16 46/63/16 45/62/21 
s 14
f 78/127/18 85/128/21 45/69/21 35/72/18 
s 1
f 44/61/2 42/58/2 41/57/2 45/62/2 
f 70/100/2 51/104/2 50/115/2 71/101/2 
f 60/85/2 47/88/2 46/75/2 53/74/2 
f 40/56/2 39/55/2 86/129/2 87/130/2 
s 2
f 86/129/6 39/55/6 67/97/6 88/131/6 
f 37/53/22 40/56/23 89/132/23 82/133/22 
f 90/134/24 81/118/20 80/117/20 91/135/24 
s 1
f 81/118/2 92/136/1 71/101/2 50/115/2 
s 2
f 71/101/6 92/136/6 93/137/6 68/98/6 
f 94/138/25 95/139/26 96/140/26 97/141/25 
s 1
f 95/139/2 98/142/2 99/143/2 90/134/1 
s 2
f 99/143/6 98/142/6 100/144/6 101/145/6 
s 1
f 102/146/1 103/147/2 104/148/1 94/138/2 
s 2
f 104/148/6 103/147/6 105/149/6 106/150/6 
f 87/130/27 102/146/28 107/151/28 108/152/27 
s 1
f 87/130/2 86/129/2 103/147/2 102/146/1 
s 2
f 103/147/6 86/129/6 88/131/6 105/149/6 
f 40/56/23 87/130/27 108/152/27 89/132/23 
f 95/139/26 90/134/24 91/135/24 96/140/26 
s 1
f 90/134/1 99/143/2 92/136/1 81/118/2 
s 2
f 92/136/6 99/143/6 101/145/6 93/137/6 
f 102/146/28 94/138/25 97/141/25 107/151/28 
s 1
f 94/138/2 104/148/1 98/142/2 95/139/2 
s 2
f 98/142/6 104/148/6 106/150/6 100/144/6 
# 81 polygons

