# 3ds Max Wavefront OBJ Exporter v0.97b - (c)2007 guruware
# File Created: 20.07.2017 23:50:55

mtllib 4'_Door_Frame.mtl

#
# object 4__Shed_Door
#

v  3.0000 103.1313 30.5372
v  3.0000 94.5000 30.5372
v  3.0000 94.5000 -30.5372
v  3.0000 103.1313 -30.5372
v  3.0000 191.0442 -70.9645
v  5.2500 199.9999 -75.0854
v  5.2500 199.9999 -70.9645
v  3.0000 191.0442 -61.2530
v  5.2500 199.9999 70.9645
v  3.0000 191.0442 61.2530
v  3.0000 0.0000 70.9645
v  3.0000 0.0000 61.2530
v  3.0000 191.0442 70.9645
v  3.0000 103.1313 -60.9619
v  3.0000 103.1313 -52.1468
v  3.0000 94.5001 -52.1468
v  3.0000 94.5001 -60.9619
v  3.0000 94.5000 60.9619
v  3.0000 94.5000 52.1468
v  3.0000 103.1313 52.1468
v  3.0000 103.1313 60.9619
v  3.0000 190.7755 30.5372
v  3.0000 182.5775 30.5372
v  3.0000 182.5775 -30.5372
v  3.0000 190.7755 -30.5372
v  3.0000 7.8846 -30.5372
v  3.0000 16.0827 -30.5372
v  3.0000 16.0827 30.5372
v  3.0000 7.8846 30.5372
v  2.2500 160.3325 -60.9619
v  2.2500 160.3325 -52.1468
v  2.2500 125.3762 -52.1468
v  2.2500 125.3762 -60.9619
v  2.2500 38.0396 -52.1468
v  2.2500 38.0396 -60.9619
v  2.2500 72.5432 -60.9619
v  2.2500 72.5432 -52.1468
v  2.2500 38.0395 60.9619
v  2.2500 38.0395 52.1468
v  2.2500 72.5432 52.1468
v  2.2500 72.5432 60.9619
v  2.2500 160.3325 52.1468
v  2.2500 160.3325 60.9619
v  2.2500 125.3762 60.9619
v  2.2500 125.3762 52.1468
v  2.2500 172.8065 -60.9619
v  2.2500 172.8065 -52.1468
v  2.2500 112.1554 -52.1468
v  2.2500 112.1554 -60.9619
v  2.2500 25.0597 -52.1468
v  2.2500 25.0597 -60.9619
v  2.2500 84.8993 -60.9619
v  2.2500 84.8993 -52.1468
v  2.2500 25.0596 60.9619
v  2.2500 25.0596 52.1468
v  2.2500 84.8993 52.1468
v  2.2500 84.8993 60.9619
v  2.2500 172.8065 52.1468
v  2.2500 172.8065 60.9619
v  2.2500 112.1554 60.9619
v  2.2500 112.1554 52.1468
v  3.0000 103.1313 42.5922
v  3.0000 94.5000 42.5922
v  3.0000 94.5000 -43.0372
v  3.0000 103.1313 -43.0372
v  3.0000 190.7755 42.5922
v  3.0000 182.5775 42.5922
v  3.0000 182.5775 -43.0372
v  3.0000 190.7755 -43.0372
v  3.0000 7.8846 -43.0372
v  3.0000 16.0827 -43.0372
v  3.0000 16.0827 42.5922
v  3.0000 7.8846 42.5922
v  2.2500 182.5775 -30.5372
v  2.2500 182.5775 -43.0372
v  2.2500 103.1313 -43.0372
v  2.2500 103.1313 -30.5372
v  2.2500 103.1313 30.5372
v  2.2500 103.1313 42.5922
v  2.2500 16.0827 -30.5372
v  2.2500 16.0827 -43.0372
v  2.2500 16.0827 30.5372
v  2.2500 16.0827 42.5922
v  2.2500 94.5000 -30.5372
v  2.2500 94.5000 -43.0372
v  2.2500 182.5775 52.1468
v  2.2500 182.5775 60.9619
v  2.2500 182.5775 30.5372
v  2.2500 182.5775 42.5922
v  2.2500 103.1313 -52.1468
v  2.2500 103.1313 -60.9619
v  2.2500 103.1313 60.9619
v  2.2500 103.1313 52.1468
v  2.2500 94.5001 -60.9619
v  2.2500 94.5001 -52.1468
v  2.2500 94.5000 52.1468
v  2.2500 94.5000 60.9619
v  2.2500 94.5000 30.5372
v  2.2500 94.5000 42.5922
v  2.2500 16.0827 -52.1468
v  2.2500 16.0827 -60.9619
v  3.0000 182.5775 -52.1468
v  3.0000 190.7755 -52.1468
v  3.0000 16.0827 52.1468
v  3.0000 7.8846 52.1468
v  3.0000 0.0000 -70.9645
v  3.0000 0.0000 -61.2530
v  5.2500 199.9999 75.0854
v  3.0000 182.5775 52.1468
v  3.0000 190.7755 52.1468
v  3.0000 190.7755 60.9619
v  3.0000 182.5775 60.9619
v  2.2500 182.5775 -52.1468
v  2.2500 182.5775 -60.9619
v  3.0000 16.0827 -52.1468
v  3.0000 7.8846 -52.1468
v  3.0000 7.8846 -60.9619
v  3.0000 16.0827 -60.9619
v  2.2500 16.0827 60.9619
v  2.2500 16.0827 52.1468
v  3.0000 182.5775 -60.9619
v  3.0000 190.7755 -60.9619
v  3.0000 16.0827 60.9619
v  3.0000 7.8846 60.9619
v  -0.0000 0.0000 -70.9645
v  -0.0000 191.0442 -70.9645
v  -0.0000 199.9999 -75.0854
v  -0.0000 199.9999 -70.9645
v  0.0000 199.9999 70.9645
v  0.0000 199.9999 75.0854
v  0.0000 191.0442 70.9645
v  -0.0000 0.0000 70.9645
v  -0.0000 0.0000 61.2530
v  0.0000 191.0442 61.2530
v  -0.0000 191.0442 -61.2530
v  -0.0000 0.0000 -61.2530
v  -0.0000 7.8846 60.9619
v  -0.0000 7.8846 52.1468
v  2.2500 7.8846 52.1468
v  2.2500 7.8846 60.9619
v  -0.0000 7.8846 42.5922
v  2.2500 7.8846 42.5922
v  -0.0000 7.8846 30.5372
v  2.2500 7.8846 30.5372
v  -0.0000 7.8846 -30.5372
v  2.2500 7.8846 -30.5372
v  -0.0000 7.8846 -43.0372
v  2.2500 7.8846 -43.0372
v  -0.0000 7.8846 -52.1468
v  2.2500 7.8846 -52.1468
v  -0.0000 7.8846 -60.9619
v  2.2500 7.8846 -60.9619
v  -0.0000 16.0827 -60.9619
v  -0.0000 25.0597 -60.9619
v  -0.0000 38.0396 -60.9619
v  -0.0000 72.5432 -60.9619
v  -0.0000 84.8993 -60.9619
v  -0.0000 94.5001 -60.9619
v  -0.0000 103.1313 -60.9619
v  -0.0000 112.1554 -60.9619
v  -0.0000 125.3762 -60.9619
v  -0.0000 160.3325 -60.9619
v  -0.0000 172.8065 -60.9619
v  -0.0000 182.5775 -60.9619
v  -0.0000 190.7755 -60.9619
v  2.2500 190.7755 -60.9619
v  -0.0000 190.7755 -52.1468
v  2.2500 190.7755 -52.1468
v  0.0000 190.7755 -43.0372
v  2.2500 190.7755 -43.0372
v  0.0000 190.7755 -30.5372
v  2.2500 190.7755 -30.5372
v  0.0000 190.7755 30.5372
v  2.2500 190.7755 30.5372
v  0.0000 190.7755 42.5922
v  2.2500 190.7755 42.5922
v  0.0000 190.7755 52.1468
v  2.2500 190.7755 52.1468
v  0.0000 190.7755 60.9619
v  2.2500 190.7755 60.9619
v  0.0000 182.5775 60.9619
v  0.0000 172.8065 60.9619
v  0.0000 160.3325 60.9619
v  0.0000 125.3762 60.9619
v  0.0000 112.1554 60.9619
v  0.0000 103.1313 60.9619
v  0.0000 94.5000 60.9619
v  0.0000 84.8993 60.9619
v  -0.0000 72.5432 60.9619
v  -0.0000 38.0395 60.9619
v  -0.0000 25.0596 60.9619
v  -0.0000 16.0827 60.9619
v  -0.0000 25.0597 -52.1468
v  -0.0000 16.0827 -52.1468
v  -0.0000 16.0827 -43.0372
v  0.0000 172.8065 52.1468
v  0.0000 182.5775 52.1468
v  0.0000 182.5775 42.5922
v  0.0000 182.5775 -43.0372
v  -0.0000 182.5775 -52.1468
v  -0.0000 172.8065 -52.1468
v  -0.0000 16.0827 42.5922
v  -0.0000 16.0827 52.1468
v  -0.0000 25.0596 52.1468
v  -0.0000 112.1554 -52.1468
v  -0.0000 103.1313 -52.1468
v  -0.0000 103.1313 -43.0372
v  -0.0000 84.8993 52.1468
v  0.0000 94.5000 52.1468
v  -0.0000 94.5000 42.5922
v  -0.0000 72.5432 -52.1468
v  -0.0000 38.0396 -52.1468
v  -0.0000 16.0827 -30.5372
v  -0.0000 16.0827 30.5372
v  -0.0000 38.0395 52.1468
v  -0.0000 72.5432 52.1468
v  -0.0000 94.5000 30.5372
v  -0.0000 94.5000 -30.5372
v  0.0000 125.3762 52.1468
v  0.0000 160.3325 52.1468
v  0.0000 182.5775 30.5372
v  0.0000 182.5775 -30.5372
v  -0.0000 160.3325 -52.1468
v  -0.0000 125.3762 -52.1468
v  -0.0000 103.1313 -30.5372
v  -0.0000 103.1313 30.5372
v  0.0000 103.1313 52.1468
v  0.0000 112.1554 52.1468
v  0.0000 103.1313 42.5922
v  -0.0000 94.5001 -52.1468
v  -0.0000 84.8993 -52.1468
v  -0.0000 94.5000 -43.0372
# 232 vertices

vn 1.0000 -0.0000 -0.0000
vn 0.9905 -0.1372 -0.0000
vn 0.9699 -0.2437 -0.0000
vn 0.9865 -0.1635 -0.0000
vn 0.0000 0.0000 -1.0000
vn 0.0000 -0.4180 -0.9084
vn 0.0000 1.0000 -0.0000
vn 0.0000 -0.4180 0.9084
vn 0.0000 0.0000 1.0000
vn 0.0000 -1.0000 -0.0000
vn 0.0000 -0.0000 -1.0000
vn 0.0000 -0.7123 -0.7019
vn 0.0000 0.6991 0.7150
vn 0.0000 0.6819 -0.7314
vn 0.0000 -0.7288 0.6847
vn 0.0000 -0.7104 -0.7038
vn 0.0000 0.7054 0.7088
vn 0.0000 0.7014 0.7127
vn 0.0000 1.0000 0.0000
vn 0.0000 0.7014 -0.7127
vn 0.0000 -0.7014 -0.7127
vn 0.0000 -0.7014 0.7127
vn 0.0000 -0.6968 -0.7173
vn 0.0000 -0.6968 0.7173
vn 0.0000 0.6968 0.7173
vn 0.0000 0.6968 -0.7173
vn 0.0000 -0.7270 0.6866
vn 0.0000 0.6883 -0.7254
# 28 vertex normals

vt 0.4604 0.4606 0.0000
vt 0.2386 0.4606 0.0000
vt 0.2386 -1.1086 0.0000
vt 0.4604 -1.1086 0.0000
vt -0.2891 -1.6748 0.0000
vt -0.0519 -1.7806 0.0000
vt -0.0519 -1.6748 0.0000
vt -0.2891 -1.4252 0.0000
vt -0.0519 1.9718 0.0000
vt -0.2891 1.7223 0.0000
vt -1.2536 -1.8454 0.0000
vt -1.0041 -1.8454 0.0000
vt -1.0041 3.0631 0.0000
vt -1.2536 3.0631 0.0000
vt 0.4604 -1.8903 0.0000
vt 0.4604 -1.6638 0.0000
vt 0.2386 -1.6638 0.0000
vt 0.2386 -1.8903 0.0000
vt 0.2386 1.2423 0.0000
vt 0.2386 1.0158 0.0000
vt 0.4604 1.0158 0.0000
vt 0.4604 1.2423 0.0000
vt 0.9037 0.4606 0.0000
vt 0.6930 0.4606 0.0000
vt 0.6930 -1.1086 0.0000
vt 0.9037 -1.1086 0.0000
vt 1.1361 -1.1086 0.0000
vt 1.3467 -1.1086 0.0000
vt 1.3467 0.4606 0.0000
vt 1.1361 0.4606 0.0000
vt 2.6344 -0.4218 0.0000
vt 2.4079 -0.4218 0.0000
vt 2.4079 -1.3199 0.0000
vt 2.6344 -1.3199 0.0000
vt 1.9843 -1.1169 0.0000
vt 2.2108 -1.1169 0.0000
vt 2.2108 -0.2303 0.0000
vt 1.9844 -0.2303 0.0000
vt 1.5618 -1.1166 0.0000
vt 1.7883 -1.1166 0.0000
vt 1.7883 -0.2301 0.0000
vt 1.5618 -0.2301 0.0000
vt 1.7865 2.1122 0.0000
vt 1.5600 2.1122 0.0000
vt 1.5600 1.2140 0.0000
vt 1.7865 1.2140 0.0000
vt 2.6344 -0.1013 0.0000
vt 2.4080 -0.1013 0.0000
vt 2.4079 -1.6596 0.0000
vt 2.6344 -1.6596 0.0000
vt 1.9844 -1.4504 0.0000
vt 2.2108 -1.4504 0.0000
vt 2.2109 0.0871 0.0000
vt 1.9844 0.0871 0.0000
vt 1.5618 -1.4501 0.0000
vt 1.7883 -1.4501 0.0000
vt 1.7883 0.0874 0.0000
vt 1.5618 0.0874 0.0000
vt 1.7865 2.4327 0.0000
vt 1.5600 2.4327 0.0000
vt 1.5601 0.8744 0.0000
vt 1.7865 0.8744 0.0000
vt 0.4604 0.7703 0.0000
vt 0.2386 0.7703 0.0000
vt 0.2386 -1.4298 0.0000
vt 0.4604 -1.4298 0.0000
vt 0.9037 0.7704 0.0000
vt 0.6930 0.7704 0.0000
vt 0.6930 -1.4298 0.0000
vt 0.9037 -1.4298 0.0000
vt 1.1361 -1.4297 0.0000
vt 1.3467 -1.4298 0.0000
vt 1.3467 0.7704 0.0000
vt 1.1361 0.7704 0.0000
vt 2.4046 1.2400 0.0000
vt 2.4088 0.4432 0.0000
vt 2.6309 0.6743 0.0000
vt 2.6362 1.0175 0.0000
vt 0.4510 1.5512 0.0000
vt 0.4566 1.8806 0.0000
vt 0.2193 2.1237 0.0000
vt 0.2212 1.3269 0.0000
vt 0.9100 1.3268 0.0000
vt 0.9104 2.1236 0.0000
vt 0.6736 1.8801 0.0000
vt 0.6880 1.5427 0.0000
vt 2.8313 -1.8948 0.0000
vt 3.0605 -1.6697 0.0000
vt 3.0658 -1.3412 0.0000
vt 2.8321 -1.1032 0.0000
vt 1.3523 1.3268 0.0000
vt 1.3501 2.1183 0.0000
vt 1.1168 1.8800 0.0000
vt 1.1309 1.5434 0.0000
vt 0.2193 2.9957 0.0000
vt 0.2250 2.2041 0.0000
vt 0.4461 2.4320 0.0000
vt 0.4498 2.7720 0.0000
vt 1.7865 2.6837 0.0000
vt 1.5600 2.6838 0.0000
vt 1.9842 0.8691 0.0000
vt 2.2072 0.6388 0.0000
vt 2.2084 1.4357 0.0000
vt 1.9859 1.2202 0.0000
vt 2.4079 -1.8915 0.0000
vt 2.6344 -1.8915 0.0000
vt 1.5600 0.6425 0.0000
vt 1.7865 0.6425 0.0000
vt 2.2109 0.3338 0.0000
vt 1.9844 0.3338 0.0000
vt 1.7883 0.3341 0.0000
vt 1.5618 0.3341 0.0000
vt 0.8947 2.2041 0.0000
vt 0.9003 2.9956 0.0000
vt 0.6780 2.7799 0.0000
vt 0.6736 2.4319 0.0000
vt 1.9844 -1.6810 0.0000
vt 2.2109 -1.6810 0.0000
vt 0.6930 -1.6638 0.0000
vt 0.9037 -1.6638 0.0000
vt 1.3467 1.0158 0.0000
vt 1.1361 1.0158 0.0000
vt -0.5219 -1.8454 0.0000
vt -0.5219 3.0631 0.0000
vt -0.7714 3.0631 0.0000
vt -0.7714 -1.8454 0.0000
vt -0.0519 2.0777 0.0000
vt -0.2891 1.9718 0.0000
vt 0.6930 1.0158 0.0000
vt 0.9037 1.0158 0.0000
vt 0.9037 1.2423 0.0000
vt 0.6930 1.2423 0.0000
vt 2.4080 0.1498 0.0000
vt 2.6345 0.1498 0.0000
vt 1.3467 -1.6638 0.0000
vt 1.1361 -1.6638 0.0000
vt 1.1361 -1.8903 0.0000
vt 1.3467 -1.8903 0.0000
vt 1.5619 -1.6807 0.0000
vt 1.7883 -1.6807 0.0000
vt 0.6930 -1.8903 0.0000
vt 0.9037 -1.8903 0.0000
vt 1.3467 1.2423 0.0000
vt 1.1361 1.2423 0.0000
vt -0.4448 -1.8454 0.0000
vt -0.4448 3.0631 0.0000
vt -0.3354 -1.7364 0.0000
vt -0.1329 -1.8885 0.0000
vt 0.0830 -1.7806 0.0000
vt 0.0830 -1.6748 0.0000
vt 0.0830 1.9718 0.0000
vt 0.0830 2.0777 0.0000
vt -0.1329 2.1856 0.0000
vt -0.3354 2.0335 0.0000
vt -1.3307 3.0631 0.0000
vt -1.3307 -1.8454 0.0000
vt -1.2536 -1.9225 0.0000
vt -1.0041 -1.9225 0.0000
vt -0.9270 -1.8454 0.0000
vt -0.9270 3.0631 0.0000
vt -0.3662 1.7223 0.0000
vt -0.3662 -1.4252 0.0000
vt -0.8485 3.0631 0.0000
vt -0.8485 -1.8454 0.0000
vt -0.7714 -1.9225 0.0000
vt -0.5219 -1.9225 0.0000
vt 1.0590 1.2423 0.0000
vt 1.0590 1.0158 0.0000
vt 1.1168 1.0158 0.0000
vt 1.1168 1.2423 0.0000
vt 1.0590 0.7704 0.0000
vt 1.1168 0.7704 0.0000
vt 1.0590 0.4606 0.0000
vt 1.1168 0.4606 0.0000
vt 1.0590 -1.1086 0.0000
vt 1.1168 -1.1086 0.0000
vt 1.0590 -1.4298 0.0000
vt 1.1168 -1.4298 0.0000
vt 1.0590 -1.6638 0.0000
vt 1.1168 -1.6638 0.0000
vt 1.0590 -1.8903 0.0000
vt 1.1168 -1.8903 0.0000
vt 2.2689 -1.8916 0.0000
vt 2.2687 -1.6810 0.0000
vt 2.2111 -1.8917 0.0000
vt 2.2686 -1.4503 0.0000
vt 2.2686 -1.1169 0.0000
vt 2.2687 -0.2303 0.0000
vt 2.2687 0.0871 0.0000
vt 2.2687 0.3338 0.0000
vt 2.2690 0.5555 0.0000
vt 2.2112 0.5556 0.0000
vt 2.6922 -1.8915 0.0000
vt 2.6922 -1.6596 0.0000
vt 2.6922 -1.3199 0.0000
vt 2.6922 -0.4218 0.0000
vt 2.6923 -0.1013 0.0000
vt 2.6923 0.1497 0.0000
vt 2.6926 0.3604 0.0000
vt 2.6348 0.3604 0.0000
vt 0.9808 -1.8903 0.0000
vt 0.9808 -1.6638 0.0000
vt 0.9229 -1.6638 0.0000
vt 0.9229 -1.8903 0.0000
vt 0.9808 -1.4298 0.0000
vt 0.9229 -1.4298 0.0000
vt 0.9808 -1.1086 0.0000
vt 0.9229 -1.1086 0.0000
vt 0.9808 0.4606 0.0000
vt 0.9229 0.4606 0.0000
vt 0.9808 0.7704 0.0000
vt 0.9229 0.7704 0.0000
vt 0.9808 1.0158 0.0000
vt 0.9229 1.0158 0.0000
vt 0.9808 1.2423 0.0000
vt 0.9229 1.2423 0.0000
vt 1.5019 2.8943 0.0000
vt 1.5022 2.6837 0.0000
vt 1.5597 2.8944 0.0000
vt 1.5022 2.4327 0.0000
vt 1.5022 2.1122 0.0000
vt 1.5022 1.2140 0.0000
vt 1.5022 0.8744 0.0000
vt 1.5022 0.6425 0.0000
vt 1.5042 0.5559 0.0000
vt 1.5040 0.3341 0.0000
vt 1.5621 0.5558 0.0000
vt 1.5040 0.0874 0.0000
vt 1.5040 -0.2301 0.0000
vt 1.5040 -1.1166 0.0000
vt 1.5040 -1.4501 0.0000
vt 1.5041 -1.6807 0.0000
vt 1.5043 -1.8914 0.0000
vt 1.5621 -1.8913 0.0000
vt 1.9265 -1.4504 0.0000
vt 1.9266 -1.6810 0.0000
vt 1.4238 -1.6638 0.0000
vt 1.4238 -1.4298 0.0000
vt 1.3660 -1.4298 0.0000
vt 1.3660 -1.6638 0.0000
vt 3.1183 -1.6707 0.0000
vt 3.1236 -1.3421 0.0000
vt 1.8443 2.4327 0.0000
vt 1.8443 2.6838 0.0000
vt 0.6159 1.0158 0.0000
vt 0.6159 0.7704 0.0000
vt 0.6738 0.7704 0.0000
vt 0.6738 1.0158 0.0000
vt 1.9281 1.2204 0.0000
vt 1.9264 0.8693 0.0000
vt 0.6160 -1.4298 0.0000
vt 0.6160 -1.6638 0.0000
vt 0.6738 -1.6638 0.0000
vt 0.6738 -1.4298 0.0000
vt 2.3502 0.1498 0.0000
vt 2.3502 -0.1013 0.0000
vt 2.6888 0.6734 0.0000
vt 2.6940 1.0166 0.0000
vt 1.4238 0.7704 0.0000
vt 1.4238 1.0158 0.0000
vt 1.3660 1.0158 0.0000
vt 1.3660 0.7704 0.0000
vt 1.8462 -1.6807 0.0000
vt 1.8461 -1.4501 0.0000
vt 1.0590 1.8775 0.0000
vt 1.0731 1.5410 0.0000
vt 2.3501 -1.6596 0.0000
vt 2.3501 -1.8914 0.0000
vt 0.5375 -1.6638 0.0000
vt 0.5375 -1.4298 0.0000
vt 0.4797 -1.4298 0.0000
vt 0.4797 -1.6638 0.0000
vt 0.5088 1.5502 0.0000
vt 0.5144 1.8796 0.0000
vt 1.8461 0.0874 0.0000
vt 1.8461 0.3341 0.0000
vt 0.1615 1.0158 0.0000
vt 0.1615 0.7703 0.0000
vt 0.2193 0.7703 0.0000
vt 0.2193 1.0158 0.0000
vt 0.6202 2.7806 0.0000
vt 0.6158 2.4326 0.0000
vt 1.9265 -0.2303 0.0000
vt 1.9265 -1.1168 0.0000
vt 2.7743 -1.1032 0.0000
vt 2.7735 -1.8947 0.0000
vt 1.4238 -1.1086 0.0000
vt 1.4238 0.4606 0.0000
vt 1.3660 0.4606 0.0000
vt 1.3660 -1.1086 0.0000
vt 1.4101 1.3269 0.0000
vt 1.4079 2.1184 0.0000
vt 1.8461 -1.1166 0.0000
vt 1.8461 -0.2301 0.0000
vt 0.9525 2.2036 0.0000
vt 0.9581 2.9952 0.0000
vt 0.1615 0.4606 0.0000
vt 0.1615 -1.1086 0.0000
vt 0.2193 -1.1086 0.0000
vt 0.2193 0.4606 0.0000
vt 0.1615 2.9952 0.0000
vt 0.1672 2.2037 0.0000
vt 1.8443 1.2140 0.0000
vt 1.8443 2.1122 0.0000
vt 2.2650 0.6388 0.0000
vt 2.2662 1.4356 0.0000
vt 0.6159 0.4606 0.0000
vt 0.6159 -1.1086 0.0000
vt 0.6738 -1.1086 0.0000
vt 0.6738 0.4606 0.0000
vt 2.3468 1.2397 0.0000
vt 2.3510 0.4429 0.0000
vt 2.3501 -0.4218 0.0000
vt 2.3501 -1.3199 0.0000
vt 0.1615 2.1236 0.0000
vt 0.1634 1.3268 0.0000
vt 0.5375 -1.1086 0.0000
vt 0.5375 0.4606 0.0000
vt 0.4797 0.4606 0.0000
vt 0.4797 -1.1086 0.0000
vt 0.9679 1.3268 0.0000
vt 0.9682 2.1236 0.0000
vt 1.8443 0.6425 0.0000
vt 1.8444 0.8743 0.0000
vt 0.6158 1.8776 0.0000
vt 0.6302 1.5402 0.0000
vt 0.5375 0.7703 0.0000
vt 0.5375 1.0158 0.0000
vt 0.4797 1.0158 0.0000
vt 0.4797 0.7703 0.0000
vt 1.9266 0.3338 0.0000
vt 1.9265 0.0871 0.0000
vt 0.5039 2.4314 0.0000
vt 0.5076 2.7714 0.0000
vt 0.1615 -1.4298 0.0000
vt 0.1615 -1.6638 0.0000
vt 0.2193 -1.6638 0.0000
vt 0.2193 -1.4298 0.0000
vt 0.4797 -1.8903 0.0000
vt 0.4797 1.2423 0.0000
vt 1.5811 0.3340 0.0000
vt 1.5813 0.5558 0.0000
vt 0.2193 1.2423 0.0000
vt 0.2193 -1.8903 0.0000
vt 2.1919 0.5556 0.0000
vt 2.1916 0.3338 0.0000
vt 0.6738 -1.8903 0.0000
vt 2.6155 0.3605 0.0000
vt 2.6152 0.1498 0.0000
vt 1.5793 2.6838 0.0000
vt 1.5790 2.8944 0.0000
vt 0.6738 1.2423 0.0000
vt 1.3660 1.2423 0.0000
vt 1.5814 -1.8913 0.0000
vt 1.5811 -1.6807 0.0000
vt 2.1916 -1.6810 0.0000
vt 2.1919 -1.8917 0.0000
vt 1.3660 -1.8903 0.0000
# 358 texture coords

g 4__Shed_Door
usemtl Material__27
s 1
f 1/1/1 2/2/1 3/3/1 4/4/1 
f 5/5/2 6/6/3 7/7/3 8/8/4 
f 7/7/3 9/9/3 10/10/4 8/8/4 
f 11/11/1 12/12/1 10/13/4 13/14/2 
f 14/15/1 15/16/1 16/17/1 17/18/1 
f 18/19/1 19/20/1 20/21/1 21/22/1 
f 22/23/1 23/24/1 24/25/1 25/26/1 
f 26/27/1 27/28/1 28/29/1 29/30/1 
f 30/31/1 31/32/1 32/33/1 33/34/1 
f 34/35/1 35/36/1 36/37/1 37/38/1 
f 38/39/1 39/40/1 40/41/1 41/42/1 
f 42/43/1 43/44/1 44/45/1 45/46/1 
f 46/47/1 47/48/1 31/32/1 30/31/1 
f 48/49/1 49/50/1 33/34/1 32/33/1 
f 50/51/1 51/52/1 35/36/1 34/35/1 
f 52/53/1 53/54/1 37/38/1 36/37/1 
f 54/55/1 55/56/1 39/40/1 38/39/1 
f 56/57/1 57/58/1 41/42/1 40/41/1 
f 58/59/1 59/60/1 43/44/1 42/43/1 
f 60/61/1 61/62/1 45/46/1 44/45/1 
f 62/63/1 63/64/1 2/2/1 1/1/1 
f 64/65/1 65/66/1 4/4/1 3/3/1 
f 66/67/1 67/68/1 23/24/1 22/23/1 
f 68/69/1 69/70/1 25/26/1 24/25/1 
f 70/71/1 71/72/1 27/28/1 26/27/1 
f 72/73/1 73/74/1 29/30/1 28/29/1 
f 74/75/1 31/76/1 47/77/1 75/78/1 
f 76/79/1 48/80/1 32/81/1 77/82/1 
f 78/83/1 45/84/1 61/85/1 79/86/1 
f 80/87/1 81/88/1 50/89/1 34/90/1 
f 82/91/1 39/92/1 55/93/1 83/94/1 
f 84/95/1 37/96/1 53/97/1 85/98/1 
f 86/99/1 87/100/1 59/60/1 58/59/1 
f 58/101/1 42/102/1 88/103/1 89/104/1 
f 90/105/1 91/106/1 49/50/1 48/49/1 
f 92/107/1 93/108/1 61/62/1 60/61/1 
f 94/109/1 95/110/1 53/54/1 52/53/1 
f 96/111/1 97/112/1 57/58/1 56/57/1 
f 40/113/1 98/114/1 99/115/1 56/116/1 
f 100/117/1 101/118/1 51/52/1 50/51/1 
f 16/17/1 15/16/1 65/66/1 64/65/1 
f 102/119/1 103/120/1 69/70/1 68/69/1 
f 20/21/1 19/20/1 63/64/1 62/63/1 
f 104/121/1 105/122/1 73/74/1 72/73/1 
f 106/123/1 5/124/2 8/125/4 107/126/1 
f 9/9/3 108/127/3 13/128/2 10/10/4 
f 109/129/1 110/130/1 111/131/1 112/132/1 
f 113/133/1 47/48/1 46/47/1 114/134/1 
f 115/135/1 116/136/1 117/137/1 118/138/1 
f 55/56/1 54/55/1 119/139/1 120/140/1 
f 67/68/1 66/67/1 110/130/1 109/129/1 
f 102/119/1 121/141/1 122/142/1 103/120/1 
f 71/72/1 70/71/1 116/136/1 115/135/1 
f 104/121/1 123/143/1 124/144/1 105/122/1 
s off
f 125/145/5 126/146/5 5/124/5 106/123/5 
f 126/147/6 127/148/6 6/6/6 5/5/6 
f 127/149/7 128/150/7 7/7/7 6/6/7 
f 128/150/7 129/151/7 9/9/7 7/7/7 
f 129/151/7 130/152/7 108/127/7 9/9/7 
f 130/153/8 131/154/8 13/128/8 108/127/8 
f 131/155/9 132/156/9 11/11/9 13/14/9 
f 132/157/10 133/158/10 12/12/10 11/11/10 
f 133/159/11 134/160/11 10/13/11 12/12/11 
f 134/161/10 135/162/10 8/8/10 10/10/10 
f 135/163/9 136/164/9 107/126/9 8/125/9 
f 136/165/10 125/166/10 106/123/10 107/126/10 
f 137/167/10 138/168/10 139/169/10 140/170/10 
f 138/168/10 141/171/10 142/172/10 139/169/10 
f 141/171/10 143/173/10 144/174/10 142/172/10 
f 143/173/10 145/175/10 146/176/10 144/174/10 
f 145/175/10 147/177/10 148/178/10 146/176/10 
f 147/177/10 149/179/10 150/180/10 148/178/10 
f 149/179/10 151/181/10 152/182/10 150/180/10 
f 151/183/5 153/184/5 101/118/5 152/185/5 
f 153/184/5 154/186/5 51/52/5 101/118/5 
f 154/186/5 155/187/5 35/36/5 51/52/5 
f 155/187/5 156/188/5 36/37/5 35/36/5 
f 156/188/5 157/189/5 52/53/5 36/37/5 
f 157/189/5 158/190/5 94/109/5 52/53/5 
f 158/190/11 159/191/11 91/192/11 94/109/11 
f 159/193/5 160/194/5 49/50/5 91/106/5 
f 160/194/5 161/195/5 33/34/5 49/50/5 
f 161/195/5 162/196/5 30/31/5 33/34/5 
f 162/196/5 163/197/5 46/47/5 30/31/5 
f 163/197/11 164/198/11 114/134/11 46/47/11 
f 164/198/5 165/199/5 166/200/5 114/134/5 
f 165/201/7 167/202/7 168/203/7 166/204/7 
f 167/202/7 169/205/7 170/206/7 168/203/7 
f 169/205/7 171/207/7 172/208/7 170/206/7 
f 171/207/7 173/209/7 174/210/7 172/208/7 
f 173/209/7 175/211/7 176/212/7 174/210/7 
f 175/211/7 177/213/7 178/214/7 176/212/7 
f 177/213/7 179/215/7 180/216/7 178/214/7 
f 179/217/9 181/218/9 87/100/9 180/219/9 
f 181/218/9 182/220/9 59/60/9 87/100/9 
f 182/220/9 183/221/9 43/44/9 59/60/9 
f 183/221/9 184/222/9 44/45/9 43/44/9 
f 184/222/9 185/223/9 60/61/9 44/45/9 
f 185/223/9 186/224/9 92/107/9 60/61/9 
f 186/225/9 187/226/9 97/112/9 92/227/9 
f 187/226/9 188/228/9 57/58/9 97/112/9 
f 188/228/9 189/229/9 41/42/9 57/58/9 
f 189/229/9 190/230/9 38/39/9 41/42/9 
f 190/230/9 191/231/9 54/55/9 38/39/9 
f 191/231/9 192/232/9 119/139/9 54/55/9 
f 192/232/9 137/233/9 140/234/9 119/139/9 
f 193/235/9 194/236/9 100/117/9 50/51/9 
f 194/237/7 195/238/7 81/239/7 100/240/7 
f 195/241/12 193/242/12 50/89/12 81/88/12 
f 196/243/5 197/244/5 86/99/5 58/59/5 
f 197/245/10 198/246/10 89/247/10 86/248/10 
f 198/249/13 196/250/13 58/101/13 89/104/13 
f 199/251/10 200/252/10 113/253/10 75/254/10 
f 200/255/9 201/256/9 47/48/9 113/133/9 
f 201/257/14 199/258/14 75/78/14 47/77/14 
f 202/259/7 203/260/7 120/261/7 83/262/7 
f 203/263/5 204/264/5 55/56/5 120/140/5 
f 204/265/15 202/266/15 83/94/15 55/93/15 
f 205/267/9 206/268/9 90/105/9 48/49/9 
f 206/269/7 207/270/7 76/271/7 90/272/7 
f 207/273/16 205/274/16 48/80/16 76/79/16 
f 208/275/5 209/276/5 96/111/5 56/57/5 
f 209/277/10 210/278/10 99/279/10 96/280/10 
f 210/281/17 208/282/17 56/116/17 99/115/17 
f 211/283/9 212/284/9 34/35/9 37/38/9 
f 212/285/18 213/286/18 80/87/18 34/90/18 
f 213/287/19 214/288/19 82/289/19 80/290/19 
f 214/291/20 215/292/20 39/92/20 82/91/20 
f 215/293/11 216/294/11 40/41/11 39/40/11 
f 216/295/21 217/296/21 98/114/21 40/113/21 
f 217/297/10 218/298/10 84/299/10 98/300/10 
f 218/301/22 211/302/22 37/96/22 84/95/22 
f 219/303/11 220/304/11 42/43/11 45/46/11 
f 220/305/23 221/306/23 88/103/23 42/102/23 
f 221/307/10 222/308/10 74/309/10 88/310/10 
f 222/311/24 223/312/24 31/76/24 74/75/24 
f 223/313/9 224/314/9 32/33/9 31/32/9 
f 224/315/25 225/316/25 77/82/25 32/81/25 
f 225/317/19 226/318/19 78/319/19 77/320/19 
f 226/321/26 219/322/26 45/84/26 78/83/26 
f 227/323/5 228/324/5 61/62/5 93/108/5 
f 228/325/27 229/326/27 79/86/27 61/85/27 
f 229/327/7 227/328/7 93/329/7 79/330/7 
f 230/331/9 231/332/9 53/54/9 95/110/9 
f 231/333/28 232/334/28 85/98/28 53/97/28 
f 232/335/10 230/336/10 95/337/10 85/338/10 
f 91/339/7 90/272/7 15/16/7 14/15/7 
f 90/272/7 76/271/7 65/66/7 15/16/7 
f 76/271/7 77/320/7 4/4/7 65/66/7 
f 77/320/19 78/319/19 1/1/19 4/4/19 
f 78/319/7 79/330/7 62/63/7 1/1/7 
f 79/330/7 93/329/7 20/21/7 62/63/7 
f 93/329/7 92/340/7 21/22/7 20/21/7 
f 92/227/9 97/112/9 18/341/9 21/342/9 
f 97/343/10 96/280/10 19/20/10 18/19/10 
f 96/280/10 99/279/10 63/64/10 19/20/10 
f 99/279/10 98/300/10 2/2/10 63/64/10 
f 98/300/10 84/299/10 3/3/10 2/2/10 
f 84/299/10 85/338/10 64/65/10 3/3/10 
f 85/338/10 95/337/10 16/17/10 64/65/10 
f 95/337/10 94/344/10 17/18/10 16/17/10 
f 94/109/11 91/192/11 14/345/11 17/346/11 
f 89/247/10 88/310/10 23/24/10 67/68/10 
f 88/310/10 74/309/10 24/25/10 23/24/10 
f 74/309/10 75/254/10 68/69/10 24/25/10 
f 75/254/10 113/253/10 102/119/10 68/69/10 
f 113/253/10 114/347/10 121/141/10 102/119/10 
f 114/134/5 166/200/5 122/348/5 121/349/5 
f 166/204/7 168/203/7 103/120/7 122/142/7 
f 168/203/7 170/206/7 69/70/7 103/120/7 
f 170/206/7 172/208/7 25/26/7 69/70/7 
f 172/208/7 174/210/7 22/23/7 25/26/7 
f 174/210/7 176/212/7 66/67/7 22/23/7 
f 176/212/7 178/214/7 110/130/7 66/67/7 
f 178/214/7 180/216/7 111/131/7 110/130/7 
f 180/219/9 87/100/9 112/350/9 111/351/9 
f 87/352/10 86/248/10 109/129/10 112/132/10 
f 86/248/10 89/247/10 67/68/10 109/129/10 
f 81/239/7 80/290/7 27/28/7 71/72/7 
f 80/290/19 82/289/19 28/29/19 27/28/19 
f 82/289/19 83/262/19 72/73/19 28/29/19 
f 83/262/7 120/261/7 104/121/7 72/73/7 
f 120/261/7 119/353/7 123/143/7 104/121/7 
f 119/139/9 140/234/9 124/354/9 123/355/9 
f 140/170/10 139/169/10 105/122/10 124/144/10 
f 139/169/10 142/172/10 73/74/10 105/122/10 
f 142/172/10 144/174/10 29/30/10 73/74/10 
f 144/174/10 146/176/10 26/27/10 29/30/10 
f 146/176/10 148/178/10 70/71/10 26/27/10 
f 148/178/10 150/180/10 116/136/10 70/71/10 
f 150/180/10 152/182/10 117/137/10 116/136/10 
f 152/185/5 101/118/5 118/356/5 117/357/5 
f 101/358/7 100/240/7 115/135/7 118/138/7 
f 100/240/7 81/239/7 71/72/7 115/135/7 
# 194 polygons

