# 3ds Max Wavefront OBJ Exporter v0.97b - (c)2007 guruware
# File Created: 15.02.2018 23:59:08

mtllib 5x7 Roll-Up Door Frame.mtl

#
# object Frame
#

v  2.0000 0.0000 -76.2001
v  2.0000 0.0000 -85.3925
v  2.0000 222.3600 -85.3925
v  2.0000 222.3600 -76.2001
v  2.0000 231.5524 -86.8925
v  2.0000 231.5524 -76.2000
v  2.0000 231.5524 76.2000
v  2.0000 222.3600 76.2001
v  2.0000 231.5524 86.8925
v  2.0000 222.3600 85.3925
v  2.0000 0.0000 85.3925
v  2.0000 0.0000 76.2001
v  0.0000 231.5524 -86.8925
v  0.0000 231.5524 -76.2000
v  0.0000 231.5524 76.2000
v  0.0000 231.5524 86.8925
v  0.0000 222.3600 85.3925
v  0.0000 0.0000 85.3925
v  0.0000 0.0000 76.2001
v  -5.2000 0.0000 76.2001
v  -5.2000 222.3600 76.2001
v  -5.2000 222.3600 -76.2001
v  -0.0000 0.0000 -76.2001
v  -5.2000 0.0000 -76.2001
v  -0.0000 0.0000 -85.3925
v  0.0000 222.3600 -85.3925
# 26 vertices

vn 1.0000 -0.0000 -0.0000
vn 1.0000 0.0000 -0.0000
vn 1.0000 -0.0000 0.0000
vn 0.0000 1.0000 0.0000
vn 0.0000 1.0000 -0.0000
vn 0.0000 -0.1610 0.9869
vn 0.0000 0.0000 1.0000
vn 0.0000 -1.0000 -0.0000
vn 0.0000 0.0000 -1.0000
vn 0.0000 -0.1610 -0.9869
# 10 vertex normals

vt 0.2981 -2.3340 0.0000
vt 0.5419 -2.3340 0.0000
vt 0.5419 3.5639 0.0000
vt 0.2981 3.5639 0.0000
vt 1.0123 2.3515 0.0000
vt 1.0123 2.5954 0.0000
vt 0.7684 2.6351 0.0000
vt 0.7685 2.3515 0.0000
vt 0.7685 -1.6733 0.0000
vt 1.0123 -1.6733 0.0000
vt 0.7684 -1.9569 0.0000
vt 1.0123 -1.9171 0.0000
vt -0.2178 3.5639 0.0000
vt -0.4617 3.5639 0.0000
vt -0.4617 -2.3341 0.0000
vt -0.2178 -2.3341 0.0000
vt 0.7154 2.6351 0.0000
vt 0.7154 2.3515 0.0000
vt 0.7154 -1.6733 0.0000
vt 0.7154 -1.9569 0.0000
vt 0.7770 -2.0093 0.0000
vt 1.0208 -1.9695 0.0000
vt -0.5147 3.5639 0.0000
vt -0.5147 -2.3341 0.0000
vt -0.4617 -2.3871 0.0000
vt -0.2178 -2.3871 0.0000
vt -0.1648 -2.3341 0.0000
vt -0.0269 -2.3341 0.0000
vt -0.0269 3.5639 0.0000
vt 1.2033 2.3515 0.0000
vt 1.2033 -1.6733 0.0000
vt 0.2450 -2.3340 0.0000
vt 0.1071 -2.3340 0.0000
vt 0.1071 3.5639 0.0000
vt 0.2981 -2.3871 0.0000
vt 0.5419 -2.3871 0.0000
vt 0.5949 -2.3340 0.0000
vt 0.5949 3.5639 0.0000
vt 1.0208 2.6477 0.0000
vt 0.7770 2.6875 0.0000
# 40 texture coords

g Frame
usemtl Material__27
s 4
f 1/1/1 2/2/1 3/3/1 4/4/1 
f 4/5/1 3/6/1 5/7/1 6/8/2 
f 4/5/1 6/8/2 7/9/1 8/10/3 
f 8/10/3 7/9/1 9/11/3 10/12/3 
f 8/13/3 10/14/3 11/15/1 12/16/1 
s off
f 13/17/4 14/18/4 6/8/4 5/7/4 
f 14/18/5 15/19/5 7/9/5 6/8/5 
f 15/19/5 16/20/5 9/11/5 7/9/5 
f 16/21/6 17/22/6 10/12/6 9/11/6 
f 17/23/7 18/24/7 11/15/7 10/14/7 
f 18/25/8 19/26/8 12/16/8 11/15/8 
s 2
f 19/27/9 20/28/9 21/29/9 8/13/9 
f 19/27/9 8/13/9 12/16/9 
s 1
f 22/30/8 4/5/8 8/10/8 21/31/8 
s 2
f 23/32/7 1/1/7 4/4/7 24/33/7 
f 22/34/7 24/33/7 4/4/7 
s off
f 23/35/8 25/36/8 2/2/8 1/1/8 
f 25/37/9 26/38/9 3/3/9 2/2/9 
f 26/39/10 13/40/10 5/7/10 3/6/10 
# 17 polygons - 2 triangles

