# Blender v2.76 (sub 0) OBJ File: ''
# www.blender.org
mtllib 60_Transom_Gable_Window_Frame.mtl
o Frame
v 2.000000 49.640015 -85.199989
v 2.000000 49.640015 -76.199989
v 2.000000 24.240013 -76.199997
v 2.000000 24.240013 -85.199997
v 2.000000 24.239986 85.199997
v 2.000000 24.239986 76.199997
v 2.000000 49.639992 76.200005
v 2.000000 49.639984 85.200005
v 2.000000 58.640015 -76.199989
v 2.000000 58.639992 76.200005
v 2.000000 15.239987 76.199997
v 2.000000 15.240012 -76.199997
v 2.000000 58.640015 -88.199989
v 2.000000 15.240014 -88.199997
v 2.000000 15.239985 88.199997
v 2.000000 58.639984 88.200005
v 0.000000 58.639984 88.200005
v 0.000000 49.639984 85.200005
v 0.000000 24.239986 85.199997
v 0.000000 15.239985 88.199997
v 0.000000 15.239987 76.199997
v 0.000000 15.240012 -76.199997
v 0.000000 15.240014 -88.199997
v 0.000000 24.240013 -85.199997
v 0.000000 49.640015 -85.199989
v 0.000000 58.640015 -88.199989
v 0.000000 58.640015 -76.199989
v 0.000000 58.639992 76.200005
v 0.000000 49.640015 -76.199989
v 0.000000 24.240013 -76.199997
v 0.000000 24.239986 76.199997
v 0.000000 49.639992 76.200005
vt 1.035600 0.438900
vt 0.796200 0.438900
vt 0.796200 -0.237000
vt 1.035600 -0.237000
vt 0.796200 0.477800
vt 1.035600 0.477800
vt 1.035600 1.153600
vt 0.796200 1.153600
vt 0.266000 -1.657700
vt 0.266000 2.397500
vt 0.026500 2.397500
vt 0.026500 -1.657700
vt 0.411300 2.397500
vt 0.411300 -1.657700
vt 0.650800 -1.657700
vt 0.650800 2.397500
vt 0.266000 -1.977000
vt 0.026500 -1.897100
vt 0.411300 -1.977000
vt 0.650800 -1.897100
vt 0.411300 2.716800
vt 0.650800 2.637000
vt 0.266000 2.716800
vt 0.026500 2.637000
vt 0.249100 2.767300
vt 0.009700 2.687500
vt 0.742900 1.153600
vt 0.742900 0.477800
vt 0.667600 2.687400
vt 0.428200 2.767300
vt 0.358100 2.716800
vt 0.358100 2.397500
vt 0.358100 -1.657700
vt 0.358100 -1.977000
vt 0.428100 -2.027400
vt 0.667600 -1.947600
vt 1.088800 -0.237000
vt 1.088800 0.438900
vt 0.009700 -1.947600
vt 0.249100 -2.027400
vt 0.319200 -1.977000
vt 0.319200 -1.657700
vt 0.319200 2.397500
vt 0.319200 2.716800
vt 0.742900 0.438900
vt 0.742900 -0.237000
vt 0.704000 -1.657600
vt 0.704000 2.397500
vt 1.088800 0.477800
vt 1.088800 1.153600
vt -0.026700 2.397500
vt -0.026700 -1.657600
vn 1.000000 0.000000 0.000000
vn 0.000000 -0.316200 0.948700
vn 0.000000 -0.000000 1.000000
vn 0.000000 0.316200 0.948700
vn 0.000000 -1.000000 -0.000000
vn 0.000000 0.316200 -0.948700
vn 0.000000 0.000000 -1.000000
vn 0.000000 -0.316200 -0.948700
vn 0.000000 1.000000 0.000000
usemtl Material__27
s 1
f 1/1/1 2/2/1 3/3/1 4/4/1
f 5/5/1 6/6/1 7/7/1 8/8/1
f 9/9/1 10/10/1 7/11/1 2/12/1
f 11/13/1 12/14/1 3/15/1 6/16/1
f 13/17/1 9/9/1 2/12/1 1/18/1
f 12/14/1 14/19/1 4/20/1 3/15/1
f 15/21/1 11/13/1 6/16/1 5/22/1
f 10/10/1 16/23/1 8/24/1 7/11/1
f 17/25/2 18/26/2 8/24/2 16/23/2
f 18/27/3 19/28/3 5/5/3 8/8/3
f 19/29/4 20/30/4 15/21/4 5/22/4
f 20/31/5 21/32/5 11/13/5 15/21/5
f 21/32/5 22/33/5 12/14/5 11/13/5
f 22/33/5 23/34/5 14/19/5 12/14/5
f 23/35/6 24/36/6 4/20/6 14/19/6
f 24/37/7 25/38/7 1/1/7 4/4/7
f 25/39/8 26/40/8 13/17/8 1/18/8
f 26/41/9 27/42/9 9/9/9 13/17/9
f 27/42/9 28/43/9 10/10/9 9/9/9
f 28/43/9 17/44/9 16/23/9 10/10/9
f 29/45/3 30/46/3 3/3/3 2/2/3
f 30/47/9 31/48/9 6/16/9 3/15/9
f 31/49/7 32/50/7 7/7/7 6/6/7
f 32/51/5 29/52/5 2/12/5 7/11/5
