# 3ds Max Wavefront OBJ Exporter v0.97b - (c)2007 guruware
# File Created: 16.02.2018 00:00:18

mtllib 6x6 Roll-Up Door Threshold.mtl

#
# object BottomMetalPart
#

v  -8.0000 9.0000 -91.4401
v  -8.0000 9.0000 91.4401
v  0.0000 9.0000 91.4401
v  -0.0000 9.0000 -91.4401
v  0.0000 6.0000 91.4400
v  -0.0000 6.0000 -91.4400
# 6 vertices

vn 0.0000 1.0000 -0.0000
vn 1.0000 0.0000 -0.0000
# 2 vertex normals

vt 2.8718 0.6926 0.0000
vt -1.5682 0.6926 0.0000
vt -1.5682 0.4984 0.0000
vt 2.8718 0.4984 0.0000
vt -1.5681 0.4256 0.0000
vt 2.8718 0.4256 0.0000
# 6 texture coords

g BottomMetalPart
usemtl Material__35
s off
f 1/1/1 2/2/1 3/3/1 4/4/1 
f 3/3/2 5/5/2 6/6/2 4/4/2 
# 2 polygons

