# 3ds Max Wavefront OBJ Exporter v0.97b - (c)2007 guruware
# File Created: 16.02.2018 00:01:32

mtllib 8x7 Roll-Up Door Frame.mtl

#
# object Frame
#

v  2.0000 0.0000 -121.9201
v  2.0000 0.0000 -131.1125
v  2.0000 222.3600 -131.1125
v  2.0000 222.3600 -121.9201
v  2.0000 231.5524 -132.6125
v  2.0000 231.5524 -121.9200
v  2.0000 231.5524 121.9200
v  2.0000 222.3600 121.9201
v  2.0000 231.5524 132.6125
v  2.0000 222.3600 131.1125
v  2.0000 0.0000 131.1125
v  2.0000 0.0000 121.9201
v  0.0000 231.5524 -132.6125
v  0.0000 231.5524 -121.9200
v  0.0000 231.5524 121.9200
v  0.0000 231.5524 132.6125
v  0.0000 222.3600 131.1125
v  0.0000 0.0000 131.1125
v  0.0000 0.0000 121.9201
v  -5.2000 0.0000 121.9201
v  -5.2000 222.3600 121.9201
v  -5.2000 222.3600 -121.9201
v  -0.0000 0.0000 -121.9201
v  -5.2000 0.0000 -121.9201
v  -0.0000 0.0000 -131.1125
v  0.0000 222.3600 -131.1125
# 26 vertices

vn 1.0000 -0.0000 -0.0000
vn 1.0000 0.0000 -0.0000
vn 1.0000 -0.0000 0.0000
vn 0.0000 1.0000 0.0000
vn 0.0000 1.0000 -0.0000
vn 0.0000 -0.1610 0.9869
vn 0.0000 0.0000 1.0000
vn 0.0000 -1.0000 -0.0000
vn 0.0000 0.0000 -1.0000
vn 0.0000 -0.1610 -0.9869
# 10 vertex normals

vt 0.3050 -2.5179 0.0000
vt 0.5562 -2.5179 0.0000
vt 0.5562 3.5598 0.0000
vt 0.3050 3.5598 0.0000
vt 1.1091 3.8942 0.0000
vt 1.1091 4.1454 0.0000
vt 0.8578 4.1864 0.0000
vt 0.8578 3.8942 0.0000
vt 0.8578 -2.7706 0.0000
vt 1.1091 -2.7706 0.0000
vt 0.8578 -3.0629 0.0000
vt 1.1091 -3.0219 0.0000
vt -0.3286 3.5598 0.0000
vt -0.5798 3.5598 0.0000
vt -0.5798 -2.5179 0.0000
vt -0.3286 -2.5179 0.0000
vt 0.8032 4.1864 0.0000
vt 0.8032 3.8942 0.0000
vt 0.8032 -2.7706 0.0000
vt 0.8032 -3.0629 0.0000
vt 0.8666 -3.1168 0.0000
vt 1.1179 -3.0758 0.0000
vt -0.6345 3.5598 0.0000
vt -0.6345 -2.5179 0.0000
vt -0.5798 -2.5726 0.0000
vt -0.3286 -2.5726 0.0000
vt -0.2739 -2.5179 0.0000
vt -0.1318 -2.5179 0.0000
vt -0.1318 3.5597 0.0000
vt 1.3059 3.8942 0.0000
vt 1.3059 -2.7706 0.0000
vt 0.2503 -2.5179 0.0000
vt 0.1082 -2.5179 0.0000
vt 0.1082 3.5598 0.0000
vt 0.3050 -2.5726 0.0000
vt 0.5562 -2.5725 0.0000
vt 0.6109 -2.5179 0.0000
vt 0.6109 3.5598 0.0000
vt 1.1179 4.1994 0.0000
vt 0.8666 4.2404 0.0000
# 40 texture coords

g Frame
usemtl Material__27
s 4
f 1/1/1 2/2/1 3/3/1 4/4/1 
f 4/5/1 3/6/1 5/7/1 6/8/2 
f 4/5/1 6/8/2 7/9/1 8/10/3 
f 8/10/3 7/9/1 9/11/3 10/12/3 
f 8/13/3 10/14/3 11/15/1 12/16/1 
s off
f 13/17/4 14/18/4 6/8/4 5/7/4 
f 14/18/5 15/19/5 7/9/5 6/8/5 
f 15/19/5 16/20/5 9/11/5 7/9/5 
f 16/21/6 17/22/6 10/12/6 9/11/6 
f 17/23/7 18/24/7 11/15/7 10/14/7 
f 18/25/8 19/26/8 12/16/8 11/15/8 
s 2
f 19/27/9 20/28/9 21/29/9 8/13/9 
f 19/27/9 8/13/9 12/16/9 
s 1
f 22/30/8 4/5/8 8/10/8 21/31/8 
s 2
f 23/32/7 1/1/7 4/4/7 24/33/7 
f 22/34/7 24/33/7 4/4/7 
s off
f 23/35/8 25/36/8 2/2/8 1/1/8 
f 25/37/9 26/38/9 3/3/9 2/2/9 
f 26/39/10 13/40/10 5/7/10 3/6/10 
# 17 polygons - 2 triangles

