# 3ds Max Wavefront OBJ Exporter v0.97b - (c)2007 guruware
# File Created: 20.02.2018 13:22:05

mtllib 8x7 Overhead garage door corner wall parts.mtl

#
# object Corner_Wall_Parts
#

v  -0.0000 198.5520 -129.8220
v  0.0000 230.3600 -129.8220
v  0.0000 230.3600 -98.0140
v  0.0000 230.3600 98.0140
v  0.0000 230.3600 129.8220
v  0.0000 198.5520 129.8220
# 6 vertices

vn 1.0000 -0.0000 -0.0000
# 1 vertex normals

vt 1.5648 0.7182 0.0000
vt 1.5648 0.9791 0.0000
vt 1.3039 0.9791 0.0000
vt -0.3039 0.9791 0.0000
vt -0.5648 0.9791 0.0000
vt -0.5648 0.7182 0.0000
# 6 texture coords

g Corner_Wall_Parts
usemtl Material__38
s 1
f 1/1/1 2/2/1 3/3/1 
f 4/4/1 5/5/1 6/6/1 
# 0 polygons - 2 triangles

