# 3ds Max Wavefront OBJ Exporter v0.97b - (c)2007 guruware
# File Created: 18.07.2017 18:42:20

mtllib 8'x8'_Roll_Up_Door_Threshold.mtl

#
# object Threshold
#

v  -8.0000 9.0000 -121.5901
v  -8.0000 9.0000 121.5901
v  0.0000 9.0000 121.5901
v  -0.0000 9.0000 -121.5901
v  0.0000 6.0000 121.5900
v  -0.0000 6.0000 -121.5900
# 6 vertices

vn 0.0000 1.0000 -0.0000
vn 1.0000 0.0000 -0.0000
# 2 vertex normals

vt 3.7312 0.7021 0.0000
vt -2.4275 0.7021 0.0000
vt -2.4275 0.4995 0.0000
vt 3.7312 0.4995 0.0000
vt -2.4275 0.4235 0.0000
vt 3.7312 0.4235 0.0000
# 6 texture coords

g Threshold
usemtl Material__35
s off
f 1/1/1 2/2/1 3/3/1 4/4/1 
f 3/3/2 5/5/2 6/6/2 4/4/2 
# 2 polygons

