# 3ds Max Wavefront OBJ Exporter v0.97b - (c)2007 guruware
# File Created: 18.07.2017 18:37:01

mtllib 8'x8'_Roll_Up_Door_Frame.mtl

#
# object Frame
#

v  2.0000 0.0000 -121.5901
v  2.0000 0.0000 -130.7825
v  2.0000 252.8400 -130.7825
v  2.0000 252.8400 -121.5901
v  2.0000 262.0324 -132.2825
v  2.0000 262.0324 -121.5900
v  2.0000 262.0324 121.5900
v  2.0000 252.8400 121.5901
v  2.0000 262.0324 132.2825
v  2.0000 252.8400 130.7825
v  2.0000 0.0000 130.7825
v  2.0000 0.0000 121.5901
v  -0.0000 262.0324 -132.2825
v  0.0000 262.0324 -121.5900
v  0.0000 262.0324 121.5900
v  0.0000 262.0324 132.2825
v  0.0000 252.8400 130.7825
v  0.0000 0.0000 130.7825
v  0.0000 0.0000 121.5901
v  -5.2000 0.0000 121.5901
v  -5.2000 252.8400 121.5901
v  -5.2000 252.8400 -121.5901
v  -0.0000 0.0000 -121.5901
v  -5.2000 0.0000 -121.5901
v  -0.0000 0.0000 -130.7825
v  0.0000 252.8400 -130.7825
# 26 vertices

vn 1.0000 -0.0000 -0.0000
vn 1.0000 0.0000 -0.0000
vn 0.0000 1.0000 0.0000
vn 0.0000 1.0000 -0.0000
vn 0.0000 -0.1610 0.9869
vn 0.0000 0.0000 1.0000
vn 0.0000 -1.0000 -0.0000
vn 0.0000 0.0000 -1.0000
vn 0.0000 -0.1610 -0.9869
# 9 vertex normals

vt 0.9366 -2.6354 0.0000
vt 1.1393 -2.6354 0.0000
vt 1.1393 2.9412 0.0000
vt 0.9366 2.9413 0.0000
vt 0.0695 2.8077 0.0000
vt 0.0695 3.0104 0.0000
vt -0.1333 3.0435 0.0000
vt -0.1333 2.8077 0.0000
vt -0.1333 -2.5559 0.0000
vt 0.0695 -2.5559 0.0000
vt -0.1333 -2.7918 0.0000
vt 0.0695 -2.7587 0.0000
vt 0.5427 2.9413 0.0000
vt 0.3399 2.9413 0.0000
vt 0.3399 -2.6354 0.0000
vt 0.5427 -2.6354 0.0000
vt -0.1774 3.0435 0.0000
vt -0.1774 2.8077 0.0000
vt -0.1774 -2.5559 0.0000
vt -0.1774 -2.7918 0.0000
vt -0.1262 -2.8353 0.0000
vt 0.0766 -2.8022 0.0000
vt 0.2958 2.9413 0.0000
vt 0.2958 -2.6354 0.0000
vt 0.3399 -2.6795 0.0000
vt 0.5427 -2.6795 0.0000
vt 0.5868 -2.6354 0.0000
vt 0.7015 -2.6354 0.0000
vt 0.7015 2.9413 0.0000
vt 0.2283 2.8077 0.0000
vt 0.2283 -2.5559 0.0000
vt 0.8925 -2.6354 0.0000
vt 0.7778 -2.6354 0.0000
vt 0.7778 2.9413 0.0000
vt 0.9366 -2.6795 0.0000
vt 1.1393 -2.6795 0.0000
vt 1.1835 -2.6354 0.0000
vt 1.1835 2.9412 0.0000
vt 0.0766 3.0540 0.0000
vt -0.1262 3.0870 0.0000
# 40 texture coords

g Frame
usemtl Material__27
s 4
f 1/1/1 2/2/1 3/3/1 4/4/1 
f 4/5/1 3/6/1 5/7/1 6/8/2 
f 4/5/1 6/8/2 7/9/1 8/10/1 
f 8/10/1 7/9/1 9/11/1 10/12/1 
f 8/13/1 10/14/1 11/15/1 12/16/1 
s off
f 13/17/3 14/18/3 6/8/3 5/7/3 
f 14/18/4 15/19/4 7/9/4 6/8/4 
f 15/19/4 16/20/4 9/11/4 7/9/4 
f 16/21/5 17/22/5 10/12/5 9/11/5 
f 17/23/6 18/24/6 11/15/6 10/14/6 
f 18/25/7 19/26/7 12/16/7 11/15/7 
s 2
f 19/27/8 20/28/8 21/29/8 8/13/8 
f 19/27/8 8/13/8 12/16/8 
s 1
f 22/30/7 4/5/7 8/10/7 21/31/7 
s 2
f 23/32/6 1/1/6 4/4/6 24/33/6 
f 22/34/6 24/33/6 4/4/6 
s off
f 23/35/7 25/36/7 2/2/7 1/1/7 
f 25/37/8 26/38/8 3/3/8 2/2/8 
f 26/39/9 13/40/9 5/7/9 3/6/9 
# 17 polygons - 2 triangles

