# 3ds Max Wavefront OBJ Exporter v0.97b - (c)2007 guruware
# File Created: 20.02.2018 13:28:52

mtllib 8x8 Overhead garage door corner wall parts.mtl

#
# object Corner_Wall_Parts
#

v  0.0000 260.8400 -98.0138
v  -0.0000 229.0324 -129.8218
v  -0.0000 260.8400 -129.8218
v  0.0000 229.0324 129.8221
v  0.0000 260.8400 98.0140
v  0.0000 260.8400 129.8221
# 6 vertices

vn 1.0000 0.0000 -0.0000
# 1 vertex normals

vt -0.3039 0.6304 1.0596
vt -0.5648 0.3696 1.4111
vt -0.5648 0.6304 1.3338
vt 1.5648 0.3696 -0.3338
vt 1.3039 0.6304 -0.2443
vt 1.5648 0.6304 -0.4111
# 6 texture coords

g Corner_Wall_Parts
usemtl Material__38
s off
f 1/1/1 2/2/1 3/3/1 
f 4/4/1 5/5/1 6/6/1 
# 0 polygons - 2 triangles

