# 3ds Max Wavefront OBJ Exporter v0.97b - (c)2007 guruware
# File Created: 15.02.2018 23:40:56

mtllib 9x7 Overhead garage door threshold.mtl

#
# object Threshold
#

v  -8.0000 9.0000 -136.8300
v  -8.0000 9.0000 136.8300
v  2.0000 9.0000 136.8300
v  2.0000 9.0000 -136.8300
v  2.0000 6.0000 136.8300
v  2.0000 6.0000 -136.8300
# 6 vertices

vn 0.0000 1.0000 -0.0000
vn 1.0000 0.0000 -0.0000
# 2 vertex normals

vt 0.3833 3.0369 0.0000
vt 0.3833 -2.1747 0.0000
vt 0.5737 -2.1747 0.0000
vt 0.5737 3.0369 0.0000
vt 0.6309 -2.1747 0.0000
vt 0.6309 3.0369 0.0000
# 6 texture coords

g Threshold
usemtl Material__35
s off
f 1/1/1 2/2/1 3/3/1 4/4/1 
f 3/3/2 5/5/2 6/6/2 4/4/2 
# 2 polygons

