# 3ds Max Wavefront OBJ Exporter v0.97b - (c)2007 guruware
# File Created: 15.02.2018 23:41:31

mtllib 9x8 Overhead garage door frame.mtl

#
# object Frame
#

v  2.0000 0.0000 -137.0618
v  2.0000 0.0000 -145.0622
v  2.0000 229.0324 -145.0619
v  2.0000 225.7200 -137.0618
v  2.0000 252.8400 -109.9418
v  2.0000 260.8400 -113.2538
v  2.0000 260.8400 113.2540
v  2.0000 252.8400 109.9421
v  2.0000 225.7200 137.0621
v  2.0000 229.0324 145.0621
v  2.0000 0.0000 145.0624
v  2.0000 0.0000 137.0621
v  0.0000 260.8400 -113.2538
v  0.0000 260.8400 113.2540
v  0.0000 229.0324 145.0621
v  0.0000 0.0000 145.0624
v  0.0000 0.0000 137.0621
v  0.0000 225.7200 137.0621
v  0.0000 252.8400 -109.9418
v  0.0000 252.8400 109.9421
v  -0.0000 0.0000 -137.0618
v  -0.0000 225.7200 -137.0618
v  -0.0000 0.0000 -145.0622
v  -0.0000 229.0324 -145.0618
# 24 vertices

vn 1.0000 -0.0000 -0.0000
vn 1.0000 -0.0000 0.0000
vn -0.0000 1.0000 0.0000
vn -0.0000 0.0000 1.0000
vn 0.0000 0.0000 1.0000
vn 0.0000 -1.0000 -0.0000
vn 0.0000 0.0000 -1.0000
vn -0.0000 0.0000 -1.0000
vn 0.0000 -0.7071 -0.7071
vn 0.0000 -0.7071 0.7071
vn -0.0000 0.7071 -0.7071
vn -0.0000 0.7071 0.7071
# 12 vertex normals

vt 0.0866 -2.6886 0.0000
vt 0.3051 -2.6886 0.0000
vt 0.3051 3.5665 0.0000
vt 0.0866 3.4760 0.0000
vt 0.5568 -2.5643 0.0000
vt 0.7752 -2.6547 0.0000
vt 0.7752 3.5314 0.0000
vt 0.5568 3.4409 0.0000
vt -0.1565 3.4760 0.0000
vt -0.3750 3.5665 0.0000
vt -0.3750 -2.6886 0.0000
vt -0.1565 -2.6886 0.0000
vt 0.8299 -2.6547 0.0000
vt 0.8299 3.5314 0.0000
vt -0.4296 3.5665 0.0000
vt -0.4296 -2.6886 0.0000
vt -0.3750 -2.7432 0.0000
vt -0.1565 -2.7432 0.0000
vt -0.1019 -2.6886 0.0000
vt -0.1019 3.4760 0.0000
vt 0.5021 -2.5643 0.0000
vt 0.5021 3.4409 0.0000
vt 0.0320 -2.6886 0.0000
vt 0.0320 3.4760 0.0000
vt 0.0866 -2.7432 0.0000
vt 0.3051 -2.7432 0.0000
vt 0.3597 -2.6886 0.0000
vt 0.3597 3.5665 0.0000
vt 1.2914 -0.4645 0.0000
vt 1.2914 0.5830 0.0000
vt 1.2368 0.5830 0.0000
vt 1.2368 -0.4645 0.0000
vt 0.9726 -0.6684 0.0000
vt 0.9726 -1.7159 0.0000
vt 1.0273 -1.7159 0.0000
vt 1.0273 -0.6684 0.0000
vt 1.2457 -1.8064 0.0000
vt 1.2457 -0.5779 0.0000
vt 1.0183 0.6735 0.0000
vt 1.0183 -0.5550 0.0000
vt 1.3003 -1.8064 0.0000
vt 1.3003 -0.5779 0.0000
vt 0.9637 0.6735 0.0000
vt 0.9637 -0.5550 0.0000
# 44 texture coords

g Frame
usemtl Material__27
s 1
f 1/1/1 2/2/1 3/3/2 4/4/2 
f 5/5/2 6/6/2 7/7/1 8/8/1 
f 9/9/1 10/10/1 11/11/1 12/12/1 
s 2
f 13/13/3 14/14/3 7/7/3 6/6/3 
f 15/15/4 16/16/5 11/11/4 10/10/4 
s 4
f 16/17/6 17/18/6 12/12/6 11/11/6 
s 2
f 17/19/7 17/19/7 18/20/7 9/9/7 
f 17/19/7 9/9/7 12/12/7 
f 19/21/6 5/5/6 8/8/6 20/22/6 
f 21/23/5 1/1/5 4/4/5 21/23/5 
f 22/24/5 21/23/5 4/4/5 
s 4
f 21/25/6 23/26/6 2/2/6 1/1/6 
s 2
f 23/27/8 24/28/8 3/3/8 2/2/7 
s 4
f 18/29/9 20/30/9 8/31/9 9/32/9 
f 19/33/10 22/34/10 4/35/10 5/36/10 
s 1
f 5/36/2 4/35/2 3/37/2 6/38/2 
f 9/32/1 8/31/1 7/39/1 10/40/1 
s 4
f 24/41/11 13/42/11 6/38/11 3/37/11 
f 14/43/12 15/44/12 10/40/12 7/39/12 
# 17 polygons - 2 triangles

