# 3ds Max Wavefront OBJ Exporter v0.97b - (c)2007 guruware
# File Created: 16.02.2018 00:02:09

mtllib 9x8 Roll-Up Door Frame.mtl

#
# object Frame
#

v  2.0000 0.0000 -137.1601
v  2.0000 0.0000 -146.3524
v  2.0000 252.8400 -146.3524
v  2.0000 252.8400 -137.1601
v  2.0000 262.0324 -147.8524
v  2.0000 262.0324 -137.1600
v  2.0000 262.0324 137.1600
v  2.0000 252.8400 137.1601
v  2.0000 262.0324 147.8524
v  2.0000 252.8400 146.3524
v  2.0000 0.0000 146.3524
v  2.0000 0.0000 137.1601
v  -0.0000 262.0324 -147.8524
v  0.0000 262.0324 -137.1600
v  0.0000 262.0324 137.1600
v  0.0000 262.0324 147.8524
v  0.0000 252.8400 146.3524
v  0.0000 0.0000 146.3524
v  0.0000 0.0000 137.1601
v  -5.2000 0.0000 137.1601
v  -5.2000 252.8400 137.1601
v  -5.2000 252.8400 -137.1601
v  -0.0000 0.0000 -137.1601
v  -5.2000 0.0000 -137.1601
v  -0.0000 0.0000 -146.3524
v  0.0000 252.8400 -146.3524
# 26 vertices

vn 1.0000 -0.0000 -0.0000
vn 1.0000 0.0000 -0.0000
vn 0.0000 1.0000 0.0000
vn 0.0000 1.0000 -0.0000
vn 0.0000 -0.1610 0.9869
vn 0.0000 0.0000 1.0000
vn 0.0000 -1.0000 -0.0000
vn 0.0000 0.0000 -1.0000
vn 0.0000 -0.1610 -0.9869
# 9 vertex normals

vt 0.9650 -2.7195 0.0000
vt 1.1716 -2.7195 0.0000
vt 1.1716 2.9639 0.0000
vt 0.9650 2.9639 0.0000
vt 0.0408 3.2090 0.0000
vt 0.0408 3.4156 0.0000
vt -0.1658 3.4493 0.0000
vt -0.1658 3.2090 0.0000
vt -0.1658 -2.9572 0.0000
vt 0.0408 -2.9572 0.0000
vt -0.1658 -3.1976 0.0000
vt 0.0408 -3.1638 0.0000
vt 0.5419 2.9639 0.0000
vt 0.3353 2.9639 0.0000
vt 0.3353 -2.7195 0.0000
vt 0.5419 -2.7195 0.0000
vt -0.2108 3.4493 0.0000
vt -0.2108 3.2090 0.0000
vt -0.2108 -2.9572 0.0000
vt -0.2108 -3.1976 0.0000
vt -0.1586 -3.2419 0.0000
vt 0.0481 -3.2082 0.0000
vt 0.2903 2.9639 0.0000
vt 0.2903 -2.7195 0.0000
vt 0.3352 -2.7644 0.0000
vt 0.5419 -2.7644 0.0000
vt 0.5868 -2.7195 0.0000
vt 0.7037 -2.7195 0.0000
vt 0.7037 2.9639 0.0000
vt 0.2027 3.2090 0.0000
vt 0.2027 -2.9572 0.0000
vt 0.9200 -2.7195 0.0000
vt 0.8031 -2.7195 0.0000
vt 0.8031 2.9639 0.0000
vt 0.9650 -2.7645 0.0000
vt 1.1716 -2.7645 0.0000
vt 1.2166 -2.7195 0.0000
vt 1.2166 2.9639 0.0000
vt 0.0481 3.4600 0.0000
vt -0.1586 3.4937 0.0000
# 40 texture coords

g Frame
usemtl Material__27
s 4
f 1/1/1 2/2/1 3/3/1 4/4/1 
f 4/5/1 3/6/1 5/7/1 6/8/2 
f 4/5/1 6/8/2 7/9/1 8/10/1 
f 8/10/1 7/9/1 9/11/1 10/12/1 
f 8/13/1 10/14/1 11/15/1 12/16/1 
s off
f 13/17/3 14/18/3 6/8/3 5/7/3 
f 14/18/4 15/19/4 7/9/4 6/8/4 
f 15/19/4 16/20/4 9/11/4 7/9/4 
f 16/21/5 17/22/5 10/12/5 9/11/5 
f 17/23/6 18/24/6 11/15/6 10/14/6 
f 18/25/7 19/26/7 12/16/7 11/15/7 
s 2
f 19/27/8 20/28/8 21/29/8 8/13/8 
f 19/27/8 8/13/8 12/16/8 
s 1
f 22/30/7 4/5/7 8/10/7 21/31/7 
s 2
f 23/32/6 1/1/6 4/4/6 24/33/6 
f 22/34/6 24/33/6 4/4/6 
s off
f 23/35/7 25/36/7 2/2/7 1/1/7 
f 25/37/8 26/38/8 3/3/8 2/2/8 
f 26/39/9 13/40/9 5/7/9 3/6/9 
# 17 polygons - 2 triangles

