# 3ds Max Wavefront OBJ Exporter v0.97b - (c)2007 guruware
# File Created: 11.08.2017 13:22:12

mtllib Double_Shed_Doors(w-transom).mtl

#
# object default
#

v  -0.0176 8.1891 -0.1021
v  -0.0176 8.1891 -91.5421
v  3.2026 8.1891 -91.5421
v  3.2026 8.1891 -0.1021
v  3.2026 191.0691 -0.1021
v  -0.0176 191.0691 -0.1021
v  -0.0176 155.5420 -0.1021
v  3.2026 155.5420 -0.1021
v  3.2026 181.2654 -9.8673
v  3.2026 181.2654 -81.7268
v  3.2026 191.0691 -91.5421
v  3.2026 17.9928 -81.7268
v  3.2026 17.9928 -9.8674
v  3.2026 145.8018 -81.7268
v  3.2026 155.5422 -81.7268
v  3.2026 155.5422 -9.8673
v  3.2026 145.8018 -9.8673
v  -0.0176 145.8020 -91.5421
v  3.2026 145.8020 -91.5421
v  0.3197 17.9928 -9.8674
v  0.3197 145.8018 -9.8673
v  0.3197 17.9928 -81.7268
v  0.3197 145.8018 -81.7268
v  0.3197 181.2654 -81.7268
v  0.3197 155.5422 -81.7268
v  -0.0176 191.0691 -91.5421
v  0.3197 181.2654 -9.8673
v  3.1352 191.1780 -91.6370
v  4.9469 200.7142 -91.6370
v  4.9469 200.7141 91.6370
v  3.1352 191.1780 91.6370
v  0.1059 200.7141 104.1290
v  0.0022 191.1780 101.1426
v  3.1352 191.1780 101.1426
v  4.9469 200.7141 104.1290
v  0.0022 191.1780 -101.1734
v  0.1059 200.7142 -104.1597
v  4.9469 200.7142 -104.1597
v  3.1352 191.1780 -101.1734
v  0.0022 191.1780 91.6370
v  0.0022 191.1780 -91.6370
v  0.1059 200.7142 -91.6370
v  0.1059 200.7141 91.6370
v  3.1352 0.0019 -91.6373
v  3.1352 0.0019 -101.1735
v  0.0022 0.0019 -91.6373
v  0.0022 0.0019 -101.1735
v  3.1352 0.0019 101.1411
v  3.1352 0.0019 91.6050
v  0.0022 0.0019 101.1411
v  0.0022 0.0019 91.6050
v  -0.0176 8.1891 91.5328
v  -0.0176 8.1891 0.0928
v  3.2026 8.1891 0.0928
v  3.2026 8.1891 91.5328
v  3.2026 191.0690 91.5329
v  -0.0176 191.0690 91.5329
v  -0.0176 155.5420 91.5329
v  3.2026 155.5420 91.5329
v  3.2026 17.9928 9.8581
v  3.2026 17.9928 81.7176
v  3.2026 145.8018 9.8581
v  3.2026 155.5422 9.8581
v  3.2026 155.5422 81.7176
v  3.2026 145.8018 81.7176
v  -0.0176 145.8020 0.0929
v  3.2026 145.8020 0.0929
v  0.3197 17.9928 81.7176
v  0.3197 145.8018 81.7176
v  0.3197 17.9928 9.8581
v  0.3197 145.8018 9.8581
v  3.2026 181.2654 9.8581
v  0.3197 181.2654 9.8581
v  0.3197 155.5422 9.8581
v  -0.0176 191.0691 0.0929
v  3.2026 191.0691 0.0929
v  3.2026 181.2653 81.7176
v  0.3197 181.2653 81.7176
v  0.3197 155.5422 -9.8673
v  3.2026 155.5420 0.0929
v  3.2026 155.5420 -91.5421
v  3.2026 145.8020 -0.1021
v  -0.0176 145.8020 -0.1021
v  -0.0176 155.5420 -91.5421
v  3.2026 145.8020 91.5329
v  -0.0176 145.8020 91.5329
v  -0.0176 155.5420 0.0929
v  0.3197 155.5422 81.7176
# 88 vertices

vn 0.0000 -1.0000 -0.0000
vn 0.0000 0.0000 1.0000
vn 0.9996 0.0290 -0.0000
vn 1.0000 0.0000 -0.0000
vn 0.0000 0.0000 -1.0000
vn 0.0000 1.0000 -0.0000
vn 0.9825 -0.1862 -0.0000
vn 0.0000 -0.2990 0.9542
vn 0.0000 -0.2990 -0.9542
vn 0.0000 0.0002 -1.0000
vn 0.9824 -0.1866 -0.0000
vn 0.0000 1.0000 0.0000
vn 1.0000 0.0000 0.0000
vn 0.0000 -0.0000 1.0000
# 14 vertex normals

vt 1.8590 0.3015 0.0000
vt 1.8590 -2.4553 0.0000
vt 1.9561 -2.4553 0.0000
vt 1.9561 0.3015 0.0000
vt 1.3512 3.0583 0.0000
vt 1.2542 3.0583 0.0000
vt 1.2542 1.9872 0.0000
vt 1.3512 1.9872 0.0000
vt 2.8264 3.1636 0.0000
vt 2.5309 2.8692 0.0000
vt 2.5309 0.7027 0.0000
vt 2.8264 0.4068 0.0000
vt 2.2517 -2.1594 0.0000
vt 2.2517 0.0071 0.0000
vt 3.2818 -2.4749 0.0000
vt 3.6205 -2.4749 0.0000
vt 3.6205 -0.3084 0.0000
vt 3.2818 -0.3084 0.0000
vt 0.4468 -2.4553 0.0000
vt 0.5439 -2.4553 0.0000
vt 0.5439 1.6935 0.0000
vt 0.4468 1.6935 0.0000
vt 1.6562 -2.1597 0.0000
vt 1.7537 -2.1597 0.0000
vt 1.7537 1.6935 0.0000
vt 1.6527 1.6935 0.0000
vt 2.3386 -2.1594 0.0000
vt 2.3386 0.0071 0.0000
vt 3.0288 -0.3084 0.0000
vt 3.0288 -2.4749 0.0000
vt 0.1411 2.7627 0.0000
vt 0.0444 2.7627 0.0000
vt 0.0444 1.9872 0.0000
vt 0.1444 1.9872 0.0000
vt 2.9235 0.4068 0.0000
vt 2.9235 3.1636 0.0000
vt 2.4439 2.8692 0.0000
vt 2.4439 0.7027 0.0000
vt -2.2680 -1.9481 0.0000
vt -1.9754 -1.9481 0.0000
vt -1.9754 3.5773 0.0000
vt -2.2680 3.5773 0.0000
vt -2.0425 4.0835 0.0000
vt -2.3114 3.9478 0.0000
vt -2.2680 3.8639 0.0000
vt -1.9754 3.9539 0.0000
vt -2.3114 -2.3196 0.0000
vt -2.0425 -2.4553 0.0000
vt -1.9754 -2.3257 0.0000
vt -2.2680 -2.2357 0.0000
vt -2.3625 3.5773 0.0000
vt -2.3625 -1.9481 0.0000
vt -1.8294 -1.9481 0.0000
vt -1.8294 3.5773 0.0000
vt -1.0478 3.4028 0.0000
vt -1.0478 -2.3608 0.0000
vt -0.7603 -2.3608 0.0000
vt -0.7603 3.4028 0.0000
vt -1.0478 -2.4553 0.0000
vt -0.7603 -2.4553 0.0000
vt -0.6658 -2.3608 0.0000
vt -0.6658 3.4028 0.0000
vt -1.1422 3.4028 0.0000
vt -1.1422 -2.3608 0.0000
vt -1.6296 3.4028 0.0000
vt -1.6296 -2.3608 0.0000
vt -1.3421 -2.3608 0.0000
vt -1.3430 3.4028 0.0000
vt -1.6295 -2.4553 0.0000
vt -1.3420 -2.4553 0.0000
vt -1.2476 -2.3608 0.0000
vt -1.2486 3.4028 0.0000
vt -1.7241 3.4028 0.0000
vt -1.7240 -2.3609 0.0000
vt 1.8590 3.1636 0.0000
vt 1.8590 0.4068 0.0000
vt 1.9561 0.4068 0.0000
vt 1.9561 3.1636 0.0000
vt 0.7464 3.0583 0.0000
vt 0.6493 3.0583 0.0000
vt 0.6493 1.9872 0.0000
vt 0.7464 1.9872 0.0000
vt 2.2517 0.7012 0.0000
vt 2.2517 2.8677 0.0000
vt 3.2818 -0.2453 0.0000
vt 3.6205 -0.2453 0.0000
vt 3.6205 1.9211 0.0000
vt 3.2818 1.9211 0.0000
vt -0.1580 -2.4553 0.0000
vt -0.0610 -2.4553 0.0000
vt -0.0610 1.6935 0.0000
vt -0.1581 1.6935 0.0000
vt 1.0521 -2.1597 0.0000
vt 1.1488 -2.1597 0.0000
vt 1.1488 1.6935 0.0000
vt 1.0488 1.6935 0.0000
vt 2.3386 0.7012 0.0000
vt 2.3386 2.8677 0.0000
vt 3.0288 1.9211 0.0000
vt 3.0288 -0.2453 0.0000
vt -0.4630 2.7627 0.0000
vt -0.5605 2.7627 0.0000
vt -0.5605 1.9872 0.0000
vt -0.4595 1.9872 0.0000
vt 2.9247 -2.4529 0.0000
vt 2.9247 0.3014 0.0000
vt 2.8277 0.3014 0.0000
vt 2.8277 -2.4529 0.0000
vt 2.5324 0.0058 0.0000
vt 2.4456 0.0058 0.0000
vt 2.4456 -2.1587 0.0000
vt 2.5324 -2.1587 0.0000
vt -1.8294 3.9539 0.0000
vt -1.8294 -2.3257 0.0000
vt 3.5868 -2.4749 0.0000
vt 3.5868 -0.3084 0.0000
vt 1.6527 1.9872 0.0000
vt 1.6562 2.7627 0.0000
vt -0.1580 1.9872 0.0000
vt -0.1580 3.0583 0.0000
vt 0.4468 1.9872 0.0000
vt 0.4468 3.0583 0.0000
vt 1.0488 1.9872 0.0000
vt 1.0521 2.7627 0.0000
vt 1.3512 1.6935 0.0000
vt 1.2542 1.6935 0.0000
vt 1.2542 -2.4553 0.0000
vt 1.3512 -2.4553 0.0000
vt 0.5439 1.9872 0.0000
vt 0.1444 1.6935 0.0000
vt 0.0444 1.6935 0.0000
vt 0.0444 -2.1597 0.0000
vt 0.1411 -2.1597 0.0000
vt 0.7464 1.6935 0.0000
vt 0.6493 1.6935 0.0000
vt 0.6493 -2.4553 0.0000
vt 0.7464 -2.4553 0.0000
vt -0.0610 1.9872 0.0000
vt -0.4595 1.6935 0.0000
vt -0.5605 1.6935 0.0000
vt -0.5605 -2.1597 0.0000
vt -0.4630 -2.1597 0.0000
vt 1.7537 1.9872 0.0000
vt 1.7537 2.7627 0.0000
vt 1.1488 1.9872 0.0000
vt 1.1488 2.7627 0.0000
vt 0.5439 3.0583 0.0000
vt -0.0609 3.0583 0.0000
vt 3.5868 -0.2453 0.0000
vt 3.5868 1.9211 0.0000
# 150 texture coords

g default
usemtl None
s 1
f 1/1/1 2/2/1 3/3/1 4/4/1 
s 2
f 5/5/2 6/6/2 7/7/2 8/8/2 
s 4
f 5/9/3 9/10/4 10/11/3 11/12/3 
f 12/13/4 13/14/4 4/4/4 3/3/4 
f 14/15/4 15/16/4 16/17/4 17/18/4 
s 2
f 3/19/5 2/20/5 18/21/5 19/22/5 
s 1
f 13/23/5 20/24/5 21/25/5 17/26/5 
s 2
f 22/27/6 20/28/6 13/14/6 12/13/6 
f 21/29/1 23/30/1 14/15/1 17/18/1 
s 1
f 10/31/2 24/32/2 25/33/2 15/34/2 
f 26/35/6 6/36/6 5/9/6 11/12/6 
s 2
f 9/10/1 27/37/1 24/38/1 10/11/1 
s 1
f 28/39/7 29/40/7 30/41/7 31/42/7 
s 2
f 32/43/8 33/44/8 34/45/8 35/46/8 
f 36/47/9 37/48/9 38/49/9 39/50/9 
f 31/42/1 40/51/1 41/52/1 28/39/1 
s 4
f 29/40/6 42/53/6 43/54/6 30/41/6 
s 1
f 28/55/4 44/56/4 45/57/4 39/58/4 
s 4
f 46/59/1 47/60/1 45/57/1 44/56/1 
s 2
f 39/58/5 45/57/5 47/61/5 36/62/5 
s 8
f 28/55/2 41/63/2 46/64/2 44/56/2 
s 1
f 34/65/4 48/66/4 49/67/4 31/68/4 
s 4
f 50/69/1 51/70/1 49/67/1 48/66/1 
s 8
f 31/68/10 49/67/10 51/71/5 40/72/5 
s 2
f 34/65/2 33/73/2 50/74/2 48/66/2 
s 1
f 52/75/1 53/76/1 54/77/1 55/78/1 
s 2
f 56/79/2 57/80/2 58/81/2 59/82/2 
s 4
f 60/83/4 61/84/4 55/78/4 54/77/4 
f 62/85/4 63/86/4 64/87/4 65/88/4 
s 2
f 54/89/5 53/90/5 66/91/5 67/92/5 
s 1
f 61/93/5 68/94/5 69/95/5 65/96/5 
s 2
f 70/97/6 68/98/6 61/84/6 60/83/6 
f 69/99/1 71/100/1 62/85/1 65/88/1 
s 1
f 72/101/2 73/102/2 74/103/2 63/104/2 
f 75/105/6 57/106/6 56/107/6 76/108/6 
s 2
f 77/109/1 78/110/1 73/111/1 72/112/1 
s 1
f 34/45/11 31/42/11 30/41/11 35/46/11 
f 29/40/11 28/39/11 39/50/11 38/49/11 
s 4
f 30/41/12 43/54/12 32/113/12 35/46/12 
f 42/53/12 29/40/12 38/49/12 37/114/12 
s 2
f 16/17/12 15/16/12 25/115/12 79/116/12 
s 4
f 8/8/4 16/117/4 9/118/4 5/5/4 
f 80/119/4 76/120/4 72/101/4 63/104/4 
f 81/121/13 11/122/13 10/31/13 15/34/13 
f 59/82/4 64/123/4 77/124/4 56/79/4 
s 2
f 82/125/14 83/126/14 1/127/14 4/128/14 
f 19/22/5 18/21/5 84/129/5 81/121/5 
s 1
f 14/130/14 23/131/14 22/132/14 12/133/14 
s 2
f 85/134/14 86/135/14 52/136/14 55/137/14 
f 67/92/5 66/91/5 87/138/5 80/119/5 
s 1
f 62/139/14 71/140/14 70/141/14 60/142/14 
s 4
f 17/26/13 82/125/13 4/128/13 13/23/13 
f 54/89/4 67/92/4 62/139/4 60/142/4 
f 3/19/4 19/22/4 14/130/4 12/133/4 
f 65/96/13 85/134/13 55/137/13 61/93/13 
s 1
f 16/117/5 79/143/5 27/144/5 9/118/5 
s 2
f 8/8/14 7/7/14 83/126/14 82/125/14 
s 1
f 64/123/5 88/145/5 78/146/5 77/124/5 
s 2
f 59/82/14 58/81/14 86/135/14 85/134/14 
s 4
f 17/26/13 16/117/4 8/8/4 82/125/13 
f 67/92/4 80/119/4 63/104/4 62/139/4 
f 19/22/4 81/121/13 15/34/13 14/130/4 
f 65/96/13 64/123/4 59/82/4 85/134/13 
s 2
f 81/121/5 84/129/5 26/147/5 11/122/5 
f 80/119/5 87/138/5 75/148/5 76/120/5 
f 64/87/12 63/86/12 74/149/12 88/150/12 
s 4
f 72/112/4 76/108/4 56/107/4 77/109/4 
# 67 polygons

