# 3ds Max Wavefront OBJ Exporter v0.97b - (c)2007 guruware
# File Created: 22.07.2017 01:19:25

mtllib Flower_Box_For_2x3_Window.mtl

#
# object default
#

v  4.4351 85.3986 -30.3029
v  4.4351 85.3985 30.1360
v  4.4351 99.4495 30.1360
v  4.4351 99.4495 -30.3029
v  11.3523 85.3986 -30.3029
v  14.4513 99.4495 -30.3029
v  11.3523 85.3985 30.1360
v  14.4513 99.4495 30.1360
v  10.1536 86.4299 -29.4782
v  10.1536 86.4298 29.3113
v  13.6266 99.4495 29.3113
v  13.6266 99.4495 -29.4782
v  5.2598 99.4495 29.3113
v  5.2598 99.4495 -29.4782
v  5.2598 86.4299 -29.4782
v  5.2598 86.4298 29.3113
# 16 vertices

vn -1.0000 0.0000 -0.0000
vn 0.0000 0.0000 -1.0000
vn 0.9766 -0.2152 -0.0000
vn 0.0000 0.0000 1.0000
vn 0.0000 -1.0000 -0.0000
vn -0.9662 0.2579 -0.0000
vn 0.0000 1.0000 -0.0000
vn 1.0000 0.0000 -0.0000
# 8 vertex normals

vt 0.5592 1.4319 0.0000
vt 0.5620 -0.4533 0.0000
vt 1.0003 -0.4527 0.0000
vt 0.9975 1.4326 0.0000
vt -0.5514 1.6911 0.0000
vt -0.5514 1.4754 0.0000
vt -0.1131 1.4755 0.0000
vt -0.1131 1.7879 0.0000
vt 0.3462 -0.4536 0.0000
vt 0.3434 1.4316 0.0000
vt -0.1054 1.4309 0.0000
vt -0.1026 -0.4543 0.0000
vt 0.3615 1.7878 0.0000
vt 0.3615 1.5720 0.0000
vt 0.7998 1.4754 0.0000
vt 0.7998 1.7878 0.0000
vt -0.5514 1.4046 0.0000
vt -0.5487 -0.4293 0.0000
vt -0.1284 -0.4286 0.0000
vt -0.1311 1.4052 0.0000
vt 1.0260 -0.4269 0.0000
vt 1.0232 1.4069 0.0000
vt -0.0874 1.5012 0.0000
vt -0.0874 1.7622 0.0000
vt 0.8255 1.5011 0.0000
vt 0.8255 1.7621 0.0000
vt 1.4294 1.4075 0.0000
vt 1.4321 -0.4263 0.0000
vt 1.5847 -0.4261 0.0000
vt 1.5820 1.4077 0.0000
vt 1.2317 1.6094 0.0000
vt 1.2317 1.7621 0.0000
vt 0.3188 1.5012 0.0000
vt 0.3187 1.6539 0.0000
# 34 texture coords

g default
usemtl None_wood_white_jpg_NONE
s off
f 1/1/1 2/2/1 3/3/1 4/4/1 
f 5/5/2 1/6/2 4/7/2 6/8/2 
f 7/9/3 5/10/3 6/11/3 8/12/3 
f 2/13/4 7/14/4 8/15/4 3/16/4 
f 5/10/5 7/9/5 2/2/5 1/1/5 
f 9/17/6 10/18/6 11/19/6 12/20/6 
f 4/4/7 3/3/7 13/21/7 14/22/7 
f 6/8/7 4/7/7 14/23/7 12/24/7 
f 8/12/7 6/11/7 12/20/7 11/19/7 
f 3/16/7 8/15/7 11/25/7 13/26/7 
f 15/27/7 16/28/7 10/29/7 9/30/7 
f 16/28/8 15/27/8 14/22/8 13/21/8 
f 10/31/2 16/32/2 13/26/2 11/25/2 
f 15/33/4 9/34/4 12/24/4 14/23/4 
# 14 polygons

