# 3ds Max Wavefront OBJ Exporter v0.97b - (c)2007 guruware
# File Created: 24.10.2017 18:16:47

mtllib Short_Steel_9-light_Walk-in_Door_Frame.mtl

#
# object Frame
#

v  2.0000 8.9000 47.8200
v  2.0000 8.9000 56.3053
v  2.0000 -0.0003 56.3053
v  2.0000 -0.0003 47.8200
v  2.0000 8.9000 -56.3053
v  2.0000 194.0800 -56.3053
v  2.0000 194.0800 -47.8200
v  2.0000 8.9000 -47.8200
v  2.0000 203.7800 59.0205
v  2.0000 194.0800 56.3053
v  2.0000 194.0800 47.8200
v  2.0000 203.7800 47.8200
v  2.0000 -0.0003 -47.8200
v  2.0000 203.7800 -59.0205
v  2.0000 203.7800 -47.8200
v  2.0000 -0.0003 -56.3053
v  -0.0000 203.7800 59.0205
v  -0.0000 194.0800 56.3053
v  -0.0000 8.9000 56.3053
v  -0.0000 -0.0003 56.3053
v  -0.0000 -0.0003 47.8200
v  0.0000 -0.0003 -47.8200
v  0.0000 -0.0003 -56.3053
v  0.0000 8.9000 -56.3053
v  0.0000 194.0800 -56.3053
v  0.0000 203.7800 -59.0205
v  0.0000 203.7800 -47.8200
v  0.0000 203.7800 47.8200
v  -0.0000 8.9000 47.8200
v  -0.0000 194.0800 47.8200
v  0.0000 194.0800 -47.8200
v  0.0000 8.9000 -47.8200
# 32 vertices

vn 1.0000 0.0000 -0.0000
vn 1.0000 -0.0000 -0.0000
vn 1.0000 -0.0000 0.0000
vn 0.0000 -0.2696 0.9630
vn 0.0000 0.0000 1.0000
vn 0.0000 -1.0000 -0.0000
vn 0.0000 0.0000 -1.0000
vn 0.0000 -0.2696 -0.9630
vn 0.0000 1.0000 -0.0000
# 9 vertex normals

vt 0.6808 -1.0172 0.0000
vt 0.5168 -1.0172 0.0000
vt 0.5168 -1.1893 0.0000
vt 0.6808 -1.1893 0.0000
vt 0.3735 -1.0172 0.0000
vt 0.3735 2.5619 0.0000
vt 0.2095 2.5619 0.0000
vt 0.2095 -1.0172 0.0000
vt 1.0142 1.0971 0.0000
vt 0.8267 1.0446 0.0000
vt 0.8267 0.8806 0.0000
vt 1.0142 0.8806 0.0000
vt 1.3166 0.7233 0.0000
vt 1.1446 0.7233 0.0000
vt 1.1446 -1.1252 0.0000
vt 1.3166 -1.1252 0.0000
vt 0.8267 -1.1319 0.0000
vt 1.0142 -1.1844 0.0000
vt 1.0142 -0.9679 0.0000
vt 0.8267 -0.9679 0.0000
vt 0.6808 2.5619 0.0000
vt 0.5168 2.5619 0.0000
vt 0.2095 -1.1893 0.0000
vt 0.3735 -1.1893 0.0000
vt 1.0038 1.1343 0.0000
vt 0.8163 1.0818 0.0000
vt 0.4781 2.5619 0.0000
vt 0.4781 -1.0172 0.0000
vt 0.4781 -1.1893 0.0000
vt 0.5168 -1.2279 0.0000
vt 0.6808 -1.2279 0.0000
vt 1.1059 0.7233 0.0000
vt 1.1059 -1.1252 0.0000
vt 0.2095 -1.2279 0.0000
vt 0.3735 -1.2279 0.0000
vt 0.4122 -1.1893 0.0000
vt 0.4122 -1.0172 0.0000
vt 0.4122 2.5619 0.0000
vt 0.8163 -1.1692 0.0000
vt 1.0038 -1.2217 0.0000
vt 1.0528 -1.1844 0.0000
vt 1.0528 -0.9679 0.0000
vt 1.0528 0.8806 0.0000
vt 1.0528 1.0971 0.0000
vt 0.7194 -1.0172 0.0000
vt 0.7194 2.5619 0.0000
vt 0.7880 0.8806 0.0000
vt 0.7880 -0.9679 0.0000
vt 0.1708 2.5619 0.0000
vt 0.1708 -1.0172 0.0000
vt 1.3553 -1.1252 0.0000
vt 1.3553 0.7233 0.0000
# 52 texture coords

g Frame
usemtl Material__27
s off
f 1/1/1 2/2/1 3/3/1 4/4/1 
f 5/5/2 6/6/2 7/7/2 8/8/2 
f 9/9/3 10/10/3 11/11/3 12/12/3 
f 1/13/3 4/14/3 13/15/3 8/16/3 
f 6/17/2 14/18/2 15/19/2 7/20/2 
f 15/19/3 12/12/3 11/11/3 7/20/3 
f 1/1/2 11/21/2 10/22/2 2/2/2 
f 8/8/2 13/23/2 16/24/2 5/5/2 
f 17/25/4 18/26/4 10/10/4 9/9/4 
f 18/27/5 19/28/5 2/2/5 10/22/5 
f 19/28/5 20/29/5 3/3/5 2/2/5 
f 20/30/6 21/31/6 4/4/6 3/3/6 
f 21/32/6 22/33/6 13/15/6 4/14/6 
f 22/34/6 23/35/6 16/24/6 13/23/6 
f 23/36/7 24/37/7 5/5/7 16/24/7 
f 24/37/7 25/38/7 6/6/7 5/5/7 
f 25/39/8 26/40/8 14/18/8 6/17/8 
f 26/41/9 27/42/9 15/19/9 14/18/9 
f 27/42/9 28/43/9 12/12/9 15/19/9 
f 28/43/9 17/44/9 9/9/9 12/12/9 
f 29/45/7 30/46/7 11/21/7 1/1/7 
f 30/47/6 31/48/6 7/20/6 11/11/6 
f 31/49/5 32/50/5 8/8/5 7/7/5 
f 32/51/9 29/52/9 1/13/9 8/16/9 
# 24 polygons

