# 3ds Max Wavefront OBJ Exporter v0.97b - (c)2007 guruware
# File Created: 21.02.2018 00:51:03

mtllib Sutters for 14x21 Window.mtl

#
# object Shutters
#

v  6.1062 142.6963 28.2350
v  6.1290 108.3089 37.9903
v  6.3950 108.3041 29.4337
v  6.3738 142.7135 19.3784
v  6.1728 99.8949 38.1874
v  6.1728 99.8949 19.2108
v  6.1728 108.2555 19.2108
v  6.1728 108.2555 38.1874
v  6.1728 142.9816 38.1875
v  6.1728 142.9816 19.2108
v  6.1728 151.3422 19.2108
v  6.1728 151.3421 38.1875
v  4.2283 90.7628 19.2000
v  4.2283 160.9548 19.2001
v  4.2283 160.9548 28.0606
v  4.2283 90.7628 28.0605
v  4.2283 90.7628 29.4189
v  4.2283 160.9548 29.4190
v  4.2283 160.9548 37.9796
v  4.2283 90.7628 37.9795
v  4.1383 142.6722 28.1768
v  4.4059 142.6894 19.3202
v  4.4271 108.2784 29.3759
v  4.1611 108.2831 37.9325
v  4.2039 99.8949 38.1874
v  4.2039 108.2555 38.1874
v  4.2039 108.2555 19.2108
v  4.2039 99.8949 19.2108
v  4.2039 142.9816 38.1875
v  4.2039 151.3421 38.1875
v  4.2039 151.3422 19.2108
v  4.2039 142.9816 19.2108
v  2.2594 90.7628 29.4189
v  2.2594 90.7628 37.9795
v  2.2594 160.9548 19.2001
v  2.2594 90.7628 19.2000
v  2.2594 90.7628 28.0605
v  2.2594 160.9548 28.0606
v  2.2594 160.9548 37.9796
v  2.2594 160.9548 29.4190
v  6.1062 142.6963 -28.2350
v  6.3738 142.7135 -19.3784
v  6.3950 108.3041 -29.4337
v  6.1290 108.3089 -37.9903
v  6.1728 99.8949 -38.1874
v  6.1728 108.2555 -38.1874
v  6.1728 108.2555 -19.2108
v  6.1728 99.8949 -19.2108
v  6.1728 142.9816 -38.1875
v  6.1728 151.3421 -38.1875
v  6.1728 151.3422 -19.2108
v  6.1728 142.9816 -19.2108
v  4.2283 90.7628 -19.2000
v  4.2283 90.7628 -28.0605
v  4.2283 160.9548 -28.0606
v  4.2283 160.9548 -19.2001
v  4.2283 90.7628 -29.4189
v  4.2283 90.7628 -37.9795
v  4.2283 160.9548 -37.9796
v  4.2283 160.9548 -29.4190
v  4.1383 142.6722 -28.1768
v  4.4059 142.6894 -19.3202
v  4.4271 108.2784 -29.3759
v  4.1611 108.2831 -37.9325
v  4.2039 99.8949 -38.1874
v  4.2039 108.2555 -38.1874
v  4.2039 108.2555 -19.2108
v  4.2039 99.8949 -19.2108
v  4.2039 142.9816 -38.1875
v  4.2039 151.3421 -38.1875
v  4.2039 151.3422 -19.2108
v  4.2039 142.9816 -19.2108
v  2.2594 90.7628 -29.4189
v  2.2594 90.7628 -37.9795
v  2.2594 160.9548 -19.2001
v  2.2594 90.7628 -19.2000
v  2.2594 90.7628 -28.0605
v  2.2594 160.9548 -28.0606
v  2.2594 160.9548 -37.9796
v  2.2594 160.9548 -29.4190
# 80 vertices

vn 0.9995 0.0095 0.0303
vn 0.9995 0.0095 0.0311
vn 0.9995 0.0095 0.0310
vn 0.9995 0.0094 0.0302
vn 1.0000 0.0000 -0.0000
vn 1.0000 0.0000 0.0000
vn -0.0123 0.9999 0.0016
vn 0.0131 -0.9999 0.0010
vn 0.0318 -0.2803 -0.9594
vn -0.0318 0.2728 0.9616
vn 0.0000 -0.0000 1.0000
vn 0.0000 0.0000 -1.0000
vn 0.0000 1.0000 0.0000
vn 0.0000 -1.0000 -0.0000
vn 0.0000 0.0000 1.0000
vn 0.0000 1.0000 -0.0000
vn 0.9995 0.0095 -0.0303
vn 0.9995 0.0094 -0.0302
vn 0.9995 0.0095 -0.0310
vn 0.9995 0.0095 -0.0311
vn -0.0123 0.9999 -0.0016
vn 0.0131 -0.9999 -0.0010
vn 0.0318 -0.2803 0.9594
vn -0.0318 0.2728 -0.9616
vn 0.0000 -0.0000 -1.0000
vn 0.0000 -1.0000 0.0000
# 26 vertex normals

vt 1.7471 0.4743 0.0000
vt 1.7506 -1.2143 0.0000
vt 2.1395 -1.1034 0.0000
vt 2.1493 0.5902 0.0000
vt 1.8500 1.9799 0.0000
vt 1.8500 1.0833 0.0000
vt 2.2450 1.0833 0.0000
vt 2.2450 1.9799 0.0000
vt 2.5954 1.1596 0.0000
vt 2.5954 0.2630 0.0000
vt 2.9904 0.2630 0.0000
vt 2.9904 1.1596 0.0000
vt -1.5367 -1.0723 0.0000
vt -1.5367 2.2438 0.0000
vt -1.9553 2.2438 0.0000
vt -1.9553 -1.0723 0.0000
vt 0.0004 -1.0835 0.0000
vt 0.0004 2.2326 0.0000
vt -0.4040 2.2326 0.0000
vt -0.4040 -1.0835 0.0000
vt 1.7213 0.5637 0.0000
vt 2.1235 0.6795 0.0000
vt 2.1649 -1.1929 0.0000
vt 1.7760 -1.3038 0.0000
vt 2.2423 0.5893 0.0000
vt 2.2326 -1.1043 0.0000
vt 1.6576 -1.2149 0.0000
vt 1.6540 0.4739 0.0000
vt 1.8500 2.0729 0.0000
vt 2.2450 2.0729 0.0000
vt 2.2450 0.9903 0.0000
vt 1.8500 0.9903 0.0000
vt 2.3380 1.9799 0.0000
vt 2.3380 1.0833 0.0000
vt 1.7570 1.0833 0.0000
vt 1.7570 1.9799 0.0000
vt 2.5954 1.2526 0.0000
vt 2.9904 1.2526 0.0000
vt 2.9904 0.1700 0.0000
vt 2.5954 0.1700 0.0000
vt 3.0834 1.1596 0.0000
vt 3.0834 0.2630 0.0000
vt 2.5024 0.2630 0.0000
vt 2.5024 1.1596 0.0000
vt 0.0004 -1.1765 0.0000
vt -0.4040 -1.1765 0.0000
vt -1.4437 2.2438 0.0000
vt -1.4437 -1.0723 0.0000
vt -2.0484 -1.0723 0.0000
vt -2.0484 2.2438 0.0000
vt -0.4040 2.3256 0.0000
vt 0.0004 2.3256 0.0000
vt -0.4970 -1.0835 0.0000
vt -0.4970 2.2326 0.0000
vt -1.5367 -1.1653 0.0000
vt -1.9553 -1.1653 0.0000
vt 0.0934 2.2326 0.0000
vt 0.0934 -1.0835 0.0000
vt -1.9553 2.3368 0.0000
vt -1.5367 2.3368 0.0000
vt 1.4310 0.4781 0.0000
vt 1.0266 0.5860 0.0000
vt 1.0692 -1.1070 0.0000
vt 1.4602 -1.2104 0.0000
vt 1.5177 1.9677 0.0000
vt 1.1228 1.9744 0.0000
vt 1.1077 1.0780 0.0000
vt 1.5026 1.0713 0.0000
vt 2.9780 -0.1211 0.0000
vt 2.5832 -0.1320 0.0000
vt 2.6077 -1.0281 0.0000
vt 3.0026 -1.0173 0.0000
vt -0.7860 2.2221 0.0000
vt -1.2046 2.2256 0.0000
vt -1.2321 -1.0904 0.0000
vt -0.8135 -1.0938 0.0000
vt 0.3432 -1.0935 0.0000
vt 0.7476 -1.0935 0.0000
vt 0.7476 2.2226 0.0000
vt 0.3432 2.2226 0.0000
vt 1.4551 0.5679 0.0000
vt 1.0506 0.6759 0.0000
vt 1.0456 -1.1970 0.0000
vt 1.4366 -1.3003 0.0000
vt 0.9336 0.5834 0.0000
vt 0.9762 -1.1097 0.0000
vt 1.5532 -1.2091 0.0000
vt 1.5240 0.4794 0.0000
vt 1.5193 2.0607 0.0000
vt 1.1244 2.0674 0.0000
vt 1.1061 0.9850 0.0000
vt 1.5011 0.9783 0.0000
vt 1.0298 1.9759 0.0000
vt 1.0147 1.0795 0.0000
vt 1.5957 1.0698 0.0000
vt 1.6107 1.9661 0.0000
vt 2.9755 -0.0282 0.0000
vt 2.5807 -0.0390 0.0000
vt 2.6103 -1.1211 0.0000
vt 3.0051 -1.1103 0.0000
vt 2.4902 -0.1345 0.0000
vt 2.5147 -1.0307 0.0000
vt 3.0955 -1.0148 0.0000
vt 3.0710 -0.1186 0.0000
vt 0.3432 -1.1865 0.0000
vt 0.7476 -1.1865 0.0000
vt -0.7205 -1.0946 0.0000
vt -0.6930 2.2214 0.0000
vt -1.2976 2.2264 0.0000
vt -1.3251 -1.0896 0.0000
vt 0.7476 2.3157 0.0000
vt 0.3432 2.3156 0.0000
vt 0.8406 -1.0935 0.0000
vt 0.8406 2.2226 0.0000
vt -0.7852 2.3152 0.0000
vt -1.2038 2.3186 0.0000
vt 0.2501 2.2226 0.0000
vt 0.2501 -1.0935 0.0000
vt -1.2329 -1.1834 0.0000
vt -0.8143 -1.1869 0.0000
# 120 texture coords

g Shutters
usemtl None_wood_white_jpg
s 1
f 1/1/1 2/2/2 3/3/3 4/4/4 
f 5/5/5 6/6/5 7/7/5 8/8/5 
f 9/9/5 10/10/5 11/11/5 12/12/5 
f 13/13/6 14/14/6 15/15/6 16/16/6 
f 17/17/6 18/18/5 19/19/6 20/20/6 
s 2
f 21/21/7 1/1/7 4/4/7 22/22/7 
f 23/23/8 3/3/8 2/2/8 24/24/8 
s 4
f 22/25/9 4/4/9 3/3/9 23/26/9 
f 24/27/10 2/2/10 1/1/10 21/28/10 
s 2
f 25/29/11 5/5/11 8/8/11 26/30/11 
f 27/31/12 7/7/12 6/6/12 28/32/12 
s 4
f 26/33/13 8/8/13 7/7/13 27/34/13 
f 28/35/14 6/6/14 5/5/14 25/36/14 
s 2
f 29/37/15 9/9/15 12/12/15 30/38/15 
f 31/39/12 11/11/12 10/10/12 32/40/12 
s 4
f 30/41/13 12/12/13 11/11/13 31/42/13 
f 32/43/14 10/10/14 9/9/14 29/44/14 
s 2
f 33/45/14 17/17/14 20/20/14 34/46/14 
f 35/47/12 14/14/12 13/13/12 36/48/12 
f 37/49/11 16/16/11 15/15/11 38/50/11 
f 39/51/16 19/19/16 18/18/16 40/52/16 
s 4
f 34/53/11 20/20/11 19/19/11 39/54/11 
f 36/55/14 13/13/14 16/16/14 37/56/14 
f 40/57/12 18/18/12 17/17/12 33/58/12 
f 38/59/13 15/15/13 14/14/13 35/60/13 
s 1
f 41/61/17 42/62/18 43/63/19 44/64/20 
f 45/65/6 46/66/6 47/67/6 48/68/6 
f 49/69/6 50/70/6 51/71/6 52/72/6 
f 53/73/5 54/74/5 55/75/5 56/76/5 
f 57/77/5 58/78/5 59/79/5 60/80/5 
s 2
f 61/81/21 62/82/21 42/62/21 41/61/21 
f 63/83/22 64/84/22 44/64/22 43/63/22 
s 4
f 62/85/23 63/86/23 43/63/23 42/62/23 
f 64/87/24 61/88/24 41/61/24 44/64/24 
s 2
f 65/89/25 66/90/25 46/66/25 45/65/25 
f 67/91/15 68/92/15 48/68/15 47/67/15 
s 4
f 66/93/16 67/94/16 47/67/16 46/66/16 
f 68/95/26 65/96/26 45/65/26 48/68/26 
s 2
f 69/97/12 70/98/12 50/70/12 49/69/12 
f 71/99/15 72/100/15 52/72/15 51/71/15 
s 4
f 70/101/16 71/102/16 51/71/16 50/70/16 
f 72/103/26 69/104/26 49/69/26 52/72/26 
s 2
f 73/105/26 74/106/26 58/78/26 57/77/26 
f 75/107/15 76/108/15 53/73/15 56/76/15 
f 77/109/25 78/110/25 55/75/25 54/74/25 
f 79/111/16 80/112/16 60/80/16 59/79/16 
s 4
f 74/113/25 79/114/25 59/79/25 58/78/25 
f 76/115/26 77/116/26 54/74/26 53/73/26 
f 80/117/15 73/118/15 57/77/15 60/80/15 
f 78/119/16 75/120/16 56/76/16 55/75/16 
# 50 polygons

