# 3ds Max Wavefront OBJ Exporter v0.97b - (c)2007 guruware
# File Created: 21.02.2018 01:06:12

mtllib Sutters for 36x48 Window.mtl

#
# object Shutters
#

v  6.1062 211.2763 57.5683
v  6.1290 108.3089 92.4262
v  6.3950 108.3041 81.8695
v  6.3738 211.2935 47.0117
v  6.1728 99.1949 92.6233
v  6.1728 99.1949 46.8441
v  6.1728 108.2555 46.8441
v  6.1728 108.2555 92.6233
v  6.1728 211.5616 92.6233
v  6.1728 211.5616 46.8441
v  6.1728 220.6222 46.8441
v  6.1728 220.6221 92.6233
v  4.2283 90.0628 46.8333
v  4.2283 230.2348 46.8334
v  4.2283 230.2348 57.3939
v  4.2283 90.0628 57.3938
v  4.2283 90.0628 70.3152
v  4.2283 230.2348 70.3153
v  4.2283 230.2348 80.8759
v  4.2283 90.0628 80.8758
v  4.2283 90.0628 69.2325
v  4.2283 90.0628 58.4766
v  4.2283 230.2348 58.4767
v  4.2283 230.2348 69.2326
v  4.1383 211.2522 57.5101
v  4.4059 211.2694 46.9535
v  4.4271 108.2784 81.8117
v  4.1611 108.2831 92.3684
v  4.2039 99.1949 92.6233
v  4.2039 108.2555 92.6233
v  4.2039 108.2555 46.8441
v  4.2039 99.1949 46.8441
v  4.2039 211.5616 92.6233
v  4.2039 220.6221 92.6233
v  4.2039 220.6222 46.8441
v  4.2039 211.5616 46.8441
v  2.2594 90.0628 69.2325
v  2.2594 230.2348 69.2326
v  2.2594 90.0628 70.3152
v  2.2594 90.0628 80.8758
v  2.2594 230.2348 46.8334
v  2.2594 90.0628 46.8333
v  2.2594 230.2348 58.4767
v  2.2594 90.0628 57.3938
v  2.2594 230.2348 57.3939
v  2.2594 230.2348 80.8759
v  2.2594 230.2348 70.3153
v  2.2594 90.0628 58.4766
v  4.2283 90.0628 81.8913
v  4.2283 230.2348 81.8914
v  4.2283 230.2348 92.4520
v  4.2283 90.0628 92.4519
v  2.2594 90.0628 81.8913
v  2.2594 90.0628 92.4519
v  2.2594 230.2348 92.4520
v  2.2594 230.2348 81.8914
v  6.1062 211.2763 -57.5683
v  6.3738 211.2935 -47.0117
v  6.3950 108.3041 -81.8695
v  6.1290 108.3089 -92.4262
v  6.1728 99.1949 -92.6233
v  6.1728 108.2555 -92.6233
v  6.1728 108.2555 -46.8441
v  6.1728 99.1949 -46.8441
v  6.1728 211.5616 -92.6233
v  6.1728 220.6221 -92.6233
v  6.1728 220.6222 -46.8441
v  6.1728 211.5616 -46.8441
v  4.2283 90.0628 -46.8333
v  4.2283 90.0628 -57.3938
v  4.2283 230.2348 -57.3939
v  4.2283 230.2348 -46.8334
v  4.2283 90.0628 -70.3152
v  4.2283 90.0628 -80.8758
v  4.2283 230.2348 -80.8759
v  4.2283 230.2348 -70.3153
v  4.2283 90.0628 -69.2325
v  4.2283 230.2348 -69.2326
v  4.2283 230.2348 -58.4767
v  4.2283 90.0628 -58.4766
v  4.1383 211.2522 -57.5101
v  4.4059 211.2694 -46.9535
v  4.4271 108.2784 -81.8117
v  4.1611 108.2831 -92.3684
v  4.2039 99.1949 -92.6233
v  4.2039 108.2555 -92.6233
v  4.2039 108.2555 -46.8441
v  4.2039 99.1949 -46.8441
v  4.2039 211.5616 -92.6233
v  4.2039 220.6221 -92.6233
v  4.2039 220.6222 -46.8441
v  4.2039 211.5616 -46.8441
v  2.2594 90.0628 -69.2325
v  2.2594 230.2348 -69.2326
v  2.2594 90.0628 -70.3152
v  2.2594 90.0628 -80.8758
v  2.2594 230.2348 -46.8334
v  2.2594 90.0628 -46.8333
v  2.2594 230.2348 -58.4767
v  2.2594 90.0628 -57.3938
v  2.2594 230.2348 -57.3939
v  2.2594 230.2348 -80.8759
v  2.2594 230.2348 -70.3153
v  2.2594 90.0628 -58.4766
v  4.2283 90.0628 -81.8913
v  4.2283 90.0628 -92.4519
v  4.2283 230.2348 -92.4520
v  4.2283 230.2348 -81.8914
v  2.2594 90.0628 -81.8913
v  2.2594 90.0628 -92.4519
v  2.2594 230.2348 -92.4520
v  2.2594 230.2348 -81.8914
# 112 vertices

vn 0.9996 0.0088 0.0253
vn 0.9996 0.0087 0.0252
vn 0.9996 0.0088 0.0254
vn 1.0000 0.0000 -0.0000
vn 1.0000 0.0000 0.0000
vn -0.0123 0.9999 0.0013
vn 0.0131 -0.9999 0.0008
vn 0.0319 -0.3204 -0.9467
vn 0.0320 -0.3204 -0.9467
vn -0.0320 0.3205 0.9467
vn -0.0319 0.3205 0.9467
vn 0.0000 -0.0000 1.0000
vn 0.0000 0.0000 -1.0000
vn 0.0000 1.0000 0.0000
vn 0.0000 -1.0000 -0.0000
vn 0.0000 0.0000 1.0000
vn 0.0000 1.0000 -0.0000
vn 0.9996 0.0088 -0.0253
vn 0.9996 0.0088 -0.0254
vn 0.9996 0.0087 -0.0252
vn -0.0123 0.9999 -0.0013
vn 0.0131 -0.9999 -0.0008
vn 0.0319 -0.3204 0.9467
vn 0.0320 -0.3204 0.9467
vn -0.0320 0.3205 -0.9467
vn -0.0319 0.3205 -0.9467
vn 0.0000 -0.0000 -1.0000
vn 0.0000 -1.0000 0.0000
# 28 vertex normals

vt 3.1843 1.5919 0.0000
vt 3.1795 -1.1778 0.0000
vt 3.4346 -1.0921 0.0000
vt 3.4391 1.6781 0.0000
vt 1.7762 2.0923 0.0000
vt 1.7762 0.9259 0.0000
vt 2.0070 0.9259 0.0000
vt 2.0070 2.0923 0.0000
vt 1.7662 0.6660 0.0000
vt 1.7662 -0.5004 0.0000
vt 1.9971 -0.5004 0.0000
vt 1.9971 0.6660 0.0000
vt -0.9102 -1.4065 0.0000
vt -0.9102 2.1649 0.0000
vt -1.1793 2.1649 0.0000
vt -1.1793 -1.4065 0.0000
vt 1.5271 -1.4065 0.0000
vt 1.5271 2.1649 0.0000
vt 1.2581 2.1649 0.0000
vt 1.2581 -1.4065 0.0000
vt -2.1467 -1.4065 0.0000
vt -1.8727 -1.4065 0.0000
vt -1.8727 2.1649 0.0000
vt -2.1467 2.1649 0.0000
vt 3.1684 1.6395 0.0000
vt 3.4232 1.7257 0.0000
vt 3.4507 -1.1396 0.0000
vt 3.1957 -1.2253 0.0000
vt 3.4893 1.6779 0.0000
vt 3.4847 -1.0924 0.0000
vt 3.1293 -1.1779 0.0000
vt 3.1341 1.5919 0.0000
vt 1.7762 2.1424 0.0000
vt 2.0070 2.1424 0.0000
vt 2.0070 0.8757 0.0000
vt 1.7762 0.8757 0.0000
vt 2.0572 2.0923 0.0000
vt 2.0572 0.9259 0.0000
vt 1.7260 0.9259 0.0000
vt 1.7260 2.0923 0.0000
vt 1.7662 0.7162 0.0000
vt 1.9971 0.7162 0.0000
vt 1.9971 -0.5505 0.0000
vt 1.7662 -0.5505 0.0000
vt 2.0472 0.6660 0.0000
vt 2.0472 -0.5004 0.0000
vt 1.7161 -0.5004 0.0000
vt 1.7161 0.6660 0.0000
vt -2.1969 -1.4065 0.0000
vt -2.1969 2.1649 0.0000
vt 1.5271 -1.4567 0.0000
vt 1.2581 -1.4567 0.0000
vt -0.8601 2.1649 0.0000
vt -0.8601 -1.4065 0.0000
vt -2.1467 2.2151 0.0000
vt -1.8727 2.2151 0.0000
vt -1.2295 -1.4065 0.0000
vt -1.2295 2.1649 0.0000
vt 1.2581 2.2151 0.0000
vt 1.5271 2.2151 0.0000
vt 1.2079 -1.4065 0.0000
vt 1.2079 2.1649 0.0000
vt -0.9102 -1.4567 0.0000
vt -1.1793 -1.4567 0.0000
vt -1.8225 2.1649 0.0000
vt -1.8225 -1.4065 0.0000
vt 1.5773 2.1649 0.0000
vt 1.5773 -1.4065 0.0000
vt -1.1793 2.2151 0.0000
vt -0.9102 2.2151 0.0000
vt -1.8727 -1.4567 0.0000
vt -2.1467 -1.4567 0.0000
vt 0.0590 -1.4065 0.0000
vt 0.0590 2.1649 0.0000
vt -0.2101 2.1649 0.0000
vt -0.2101 -1.4065 0.0000
vt 0.0590 -1.4567 0.0000
vt -0.2101 -1.4567 0.0000
vt -0.2101 2.2151 0.0000
vt 0.0590 2.2151 0.0000
vt -0.2603 -1.4065 0.0000
vt -0.2603 2.1649 0.0000
vt 0.1091 2.1649 0.0000
vt 0.1091 -1.4065 0.0000
vt 2.9845 1.6224 0.0000
vt 2.7296 1.7088 0.0000
vt 2.7329 -1.0615 0.0000
vt 2.9879 -1.1473 0.0000
vt 2.4833 2.0825 0.0000
vt 2.2524 2.0821 0.0000
vt 2.2548 0.9157 0.0000
vt 2.4857 0.9162 0.0000
vt 2.4684 0.6506 0.0000
vt 2.2376 0.6509 0.0000
vt 2.2360 -0.5155 0.0000
vt 2.4669 -0.5158 0.0000
vt -0.6824 -1.4070 0.0000
vt -0.4134 -1.4060 0.0000
vt -0.4270 2.1654 0.0000
vt -0.6961 2.1643 0.0000
vt 0.7642 -1.4067 0.0000
vt 1.0332 -1.4062 0.0000
vt 1.0263 2.1651 0.0000
vt 0.7573 2.1646 0.0000
vt -1.3867 -1.4061 0.0000
vt -1.3957 2.1652 0.0000
vt -1.6698 2.1645 0.0000
vt -1.6607 -1.4068 0.0000
vt 3.0004 1.6700 0.0000
vt 2.7455 1.7563 0.0000
vt 2.7167 -1.1090 0.0000
vt 2.9717 -1.1948 0.0000
vt 2.6795 1.7086 0.0000
vt 2.6828 -1.0617 0.0000
vt 3.0381 -1.1474 0.0000
vt 3.0346 1.6224 0.0000
vt 2.4832 2.1327 0.0000
vt 2.2523 2.1322 0.0000
vt 2.2549 0.8655 0.0000
vt 2.4858 0.8660 0.0000
vt 2.2023 2.0820 0.0000
vt 2.2046 0.9156 0.0000
vt 2.5358 0.9163 0.0000
vt 2.5334 2.0826 0.0000
vt 2.4685 0.7008 0.0000
vt 2.2376 0.7011 0.0000
vt 2.2359 -0.5657 0.0000
vt 2.4668 -0.5660 0.0000
vt 2.1874 0.6510 0.0000
vt 2.1858 -0.5154 0.0000
vt 2.5170 -0.5159 0.0000
vt 2.5186 0.6505 0.0000
vt -1.3365 -1.4060 0.0000
vt -1.3456 2.1654 0.0000
vt 0.7643 -1.4569 0.0000
vt 1.0333 -1.4564 0.0000
vt -0.7462 2.1641 0.0000
vt -0.7326 -1.4072 0.0000
vt -1.3958 2.2154 0.0000
vt -1.6699 2.2147 0.0000
vt -0.3632 -1.4058 0.0000
vt -0.3769 2.1656 0.0000
vt 1.0262 2.2153 0.0000
vt 0.7572 2.2148 0.0000
vt 1.0834 -1.4061 0.0000
vt 1.0765 2.1652 0.0000
vt -0.6822 -1.4572 0.0000
vt -0.4132 -1.4562 0.0000
vt -1.7199 2.1644 0.0000
vt -1.7109 -1.4070 0.0000
vt 0.7071 2.1645 0.0000
vt 0.7140 -1.4068 0.0000
vt -0.4272 2.2155 0.0000
vt -0.6963 2.2145 0.0000
vt -1.6606 -1.4570 0.0000
vt -1.3866 -1.4563 0.0000
vt 0.2826 -1.4072 0.0000
vt 0.5517 -1.4058 0.0000
vt 0.5330 2.1656 0.0000
vt 0.2640 2.1642 0.0000
vt 0.2829 -1.4573 0.0000
vt 0.5520 -1.4559 0.0000
vt 0.5328 2.2157 0.0000
vt 0.2637 2.2143 0.0000
vt 0.6019 -1.4055 0.0000
vt 0.5832 2.1658 0.0000
vt 0.2138 2.1639 0.0000
vt 0.2325 -1.4074 0.0000
# 168 texture coords

g Shutters
usemtl None_wood_white_jpg
s 1
f 1/1/1 2/2/2 3/3/2 4/4/3 
f 5/5/4 6/6/4 7/7/4 8/8/4 
f 9/9/4 10/10/4 11/11/4 12/12/4 
f 13/13/5 14/14/5 15/15/5 16/16/5 
f 17/17/5 18/18/4 19/19/5 20/20/5 
f 21/21/5 22/22/4 23/23/5 24/24/5 
usemtl None_NONE
s 2
f 25/25/6 1/1/6 4/4/6 26/26/6 
f 27/27/7 3/3/7 2/2/7 28/28/7 
s 4
f 26/29/8 4/4/8 3/3/9 27/30/9 
f 28/31/10 2/2/10 1/1/11 25/32/11 
s 2
f 29/33/12 5/5/12 8/8/12 30/34/12 
f 31/35/13 7/7/13 6/6/13 32/36/13 
s 4
f 30/37/14 8/8/14 7/7/14 31/38/14 
f 32/39/15 6/6/15 5/5/15 29/40/15 
s 2
f 33/41/16 9/9/16 12/12/16 34/42/16 
f 35/43/13 11/11/13 10/10/13 36/44/13 
s 4
f 34/45/14 12/12/14 11/11/14 35/46/14 
f 36/47/15 10/10/15 9/9/15 33/48/15 
s 2
f 37/49/12 21/21/12 24/24/12 38/50/12 
f 39/51/15 17/17/15 20/20/15 40/52/15 
f 41/53/13 14/14/13 13/13/13 42/54/13 
s 4
f 38/55/14 24/24/14 23/23/14 43/56/14 
s 2
f 44/57/12 16/16/12 15/15/12 45/58/12 
f 46/59/17 19/19/17 18/18/17 47/60/17 
s 4
f 40/61/12 20/20/12 19/19/12 46/62/12 
f 42/63/15 13/13/15 16/16/15 44/64/15 
s 2
f 43/65/13 23/23/13 22/22/13 48/66/13 
s 4
f 47/67/13 18/18/13 17/17/13 39/68/13 
f 45/69/14 15/15/14 14/14/14 41/70/14 
f 48/71/15 22/22/15 21/21/15 37/72/15 
usemtl None_wood_white_jpg
s 1
f 49/73/5 50/74/4 51/75/5 52/76/5 
usemtl None_NONE
s 2
f 53/77/15 49/73/15 52/76/15 54/78/15 
f 55/79/17 51/75/17 50/74/17 56/80/17 
s 4
f 54/81/12 52/76/12 51/75/12 55/82/12 
f 56/83/13 50/74/13 49/73/13 53/84/13 
usemtl None_wood_white_jpg
s 1
f 57/85/18 58/86/19 59/87/20 60/88/20 
f 61/89/5 62/90/5 63/91/5 64/92/5 
f 65/93/5 66/94/5 67/95/5 68/96/5 
f 69/97/4 70/98/4 71/99/4 72/100/4 
f 73/101/4 74/102/4 75/103/4 76/104/4 
f 77/105/4 78/106/4 79/107/4 80/108/4 
usemtl None_NONE
s 2
f 81/109/21 82/110/21 58/86/21 57/85/21 
f 83/111/22 84/112/22 60/88/22 59/87/22 
s 4
f 82/113/23 83/114/24 59/87/24 58/86/23 
f 84/115/25 81/116/26 57/85/26 60/88/25 
s 2
f 85/117/27 86/118/27 62/90/27 61/89/27 
f 87/119/16 88/120/16 64/92/16 63/91/16 
s 4
f 86/121/17 87/122/17 63/91/17 62/90/17 
f 88/123/28 85/124/28 61/89/28 64/92/28 
s 2
f 89/125/13 90/126/13 66/94/13 65/93/13 
f 91/127/16 92/128/16 68/96/16 67/95/16 
s 4
f 90/129/17 91/130/17 67/95/17 66/94/17 
f 92/131/28 89/132/28 65/93/28 68/96/28 
s 2
f 93/133/27 94/134/27 78/106/27 77/105/27 
f 95/135/28 96/136/28 74/102/28 73/101/28 
f 97/137/16 98/138/16 69/97/16 72/100/16 
s 4
f 94/139/17 99/140/17 79/107/17 78/106/17 
s 2
f 100/141/27 101/142/27 71/99/27 70/98/27 
f 102/143/17 103/144/17 76/104/17 75/103/17 
s 4
f 96/145/27 102/146/27 75/103/27 74/102/27 
f 98/147/28 100/148/28 70/98/28 69/97/28 
s 2
f 99/149/16 104/150/16 80/108/16 79/107/16 
s 4
f 103/151/16 95/152/16 73/101/16 76/104/16 
f 101/153/17 97/154/17 72/100/17 71/99/17 
f 104/155/15 93/156/15 77/105/15 80/108/15 
usemtl None_wood_white_jpg
s 1
f 105/157/4 106/158/4 107/159/4 108/160/4 
usemtl None_NONE
s 2
f 109/161/28 110/162/28 106/158/28 105/157/28 
f 111/163/17 112/164/17 108/160/17 107/159/17 
s 4
f 110/165/27 111/166/27 107/159/27 106/158/27 
f 112/167/16 109/168/16 105/157/16 108/160/16 
# 70 polygons

