# 3ds Max Wavefront OBJ Exporter v0.97b - (c)2007 guruware
# File Created: 21.02.2018 01:01:18

mtllib Sutters for 30x40 Window.mtl

#
# object Shutters
#

v  6.1728 191.0112 -39.0108
v  6.1728 108.2448 -64.9240
v  6.1728 108.3936 -76.5234
v  6.1728 191.0314 -50.6114
v  4.3239 209.5052 -39.1934
v  4.3239 89.6532 -39.1935
v  4.3239 89.6532 -50.7940
v  4.3239 209.5052 -50.7939
v  4.3239 209.5052 -65.2553
v  4.3239 89.6532 -65.2554
v  4.3239 89.6532 -76.8560
v  4.3239 209.5052 -76.8559
v  4.3239 209.5052 -64.1726
v  4.3239 209.5052 -51.8767
v  4.3239 89.6532 -51.8768
v  4.3239 89.6532 -64.1727
v  6.2685 108.3264 -77.0639
v  6.2685 108.3264 -39.2043
v  6.2685 99.2658 -39.2043
v  6.2685 99.2659 -77.0639
v  6.2685 200.3731 -77.0638
v  6.2685 200.3730 -39.2042
v  6.2685 191.3125 -39.2042
v  6.2685 191.3125 -77.0638
v  6.1062 190.9563 50.9883
v  6.1290 108.3089 76.8866
v  6.3950 108.3041 65.2900
v  6.3738 190.9735 39.3917
v  6.1728 99.1949 77.0837
v  6.1728 99.1949 39.2241
v  6.1728 108.2555 39.2241
v  6.1728 108.2555 77.0837
v  6.1728 191.2415 77.0838
v  6.1728 191.2416 39.2241
v  6.1728 200.3022 39.2241
v  6.1728 200.3021 77.0838
v  4.2283 90.0628 39.2133
v  4.2283 209.9148 39.2134
v  4.2283 209.9148 50.8139
v  4.2283 90.0628 50.8138
v  4.2283 90.0628 65.2752
v  4.2283 209.9147 65.2753
v  4.2283 209.9147 76.8759
v  4.2283 90.0628 76.8758
v  4.2283 90.0628 64.1925
v  4.2283 90.0628 51.8966
v  4.2283 209.9148 51.8967
v  4.2283 209.9147 64.1926
v  4.2039 191.0112 -39.0108
v  4.2039 191.0314 -50.6114
v  4.2039 108.3936 -76.5234
v  4.2039 108.2448 -64.9240
v  2.3550 209.5052 -64.1726
v  2.3550 89.6532 -64.1727
v  2.3550 209.5052 -65.2553
v  2.3550 209.5052 -76.8559
v  2.3550 89.6532 -39.1935
v  2.3550 209.5052 -39.1934
v  2.3550 89.6532 -51.8768
v  2.3550 209.5052 -50.7939
v  2.3550 89.6532 -50.7940
v  2.3550 89.6532 -76.8560
v  2.3550 89.6532 -65.2554
v  2.3550 209.5052 -51.8767
v  4.2996 108.3264 -77.0639
v  4.2996 99.2659 -77.0639
v  4.2995 99.2658 -39.2043
v  4.2995 108.3264 -39.2043
v  4.2996 200.3731 -77.0638
v  4.2996 191.3125 -77.0638
v  4.2995 191.3125 -39.2042
v  4.2995 200.3730 -39.2042
v  4.1383 190.9322 50.9301
v  4.4059 190.9494 39.3335
v  4.4271 108.2784 65.2322
v  4.1611 108.2831 76.8288
v  4.2039 99.1949 77.0837
v  4.2039 108.2555 77.0837
v  4.2039 108.2555 39.2241
v  4.2039 99.1949 39.2241
v  4.2039 191.2415 77.0838
v  4.2039 200.3021 77.0838
v  4.2039 200.3022 39.2241
v  4.2039 191.2416 39.2241
v  2.2594 90.0628 64.1925
v  2.2594 209.9147 64.1926
v  2.2594 90.0628 65.2752
v  2.2594 90.0628 76.8758
v  2.2594 209.9148 39.2134
v  2.2594 90.0628 39.2133
v  2.2594 209.9148 51.8967
v  2.2594 90.0628 50.8138
v  2.2594 209.9148 50.8139
v  2.2594 209.9147 76.8759
v  2.2594 209.9147 65.2753
v  2.2594 90.0628 51.8966
# 96 vertices

vn 1.0000 0.0000 -0.0000
vn 0.9995 0.0088 0.0295
vn 0.9995 0.0087 0.0294
vn 0.9995 0.0088 0.0296
vn 0.0000 1.0000 0.0022
vn 0.0000 -0.9999 -0.0164
vn 0.0000 0.2762 -0.9611
vn 0.0000 -0.2758 0.9612
vn 0.0000 0.0000 -1.0000
vn 0.0000 1.0000 -0.0000
vn 0.0000 0.0000 1.0000
vn 0.0000 -1.0000 -0.0000
vn -0.0123 0.9999 0.0015
vn 0.0131 -0.9999 0.0009
vn 0.0318 -0.2758 -0.9607
vn -0.0318 0.2759 0.9607
# 16 vertex normals

vt 1.7097 1.0697 0.0000
vt 1.7096 -1.1762 0.0000
vt 1.9974 -1.2623 0.0000
vt 1.9965 0.9804 0.0000
vt 0.3016 1.9201 0.0000
vt 0.3016 -1.1836 0.0000
vt 0.6020 -1.1836 0.0000
vt 0.6020 1.9201 0.0000
vt -0.6683 1.9201 0.0000
vt -0.6683 -1.1836 0.0000
vt -0.3679 -1.1836 0.0000
vt -0.3679 1.9201 0.0000
vt -1.3319 1.9201 0.0000
vt -1.6503 1.9201 0.0000
vt -1.6503 -1.1836 0.0000
vt -1.3319 -1.1836 0.0000
vt 2.4103 -0.2173 0.0000
vt 2.4103 0.7631 0.0000
vt 2.1757 0.7631 0.0000
vt 2.1757 -0.2173 0.0000
vt 1.5300 1.2280 0.0000
vt 1.5300 2.2084 0.0000
vt 1.2954 2.2084 0.0000
vt 1.2954 1.2280 0.0000
vt 1.2753 0.9806 0.0000
vt 1.2633 -1.2622 0.0000
vt 1.5504 -1.1741 0.0000
vt 1.5623 1.0693 0.0000
vt 2.1757 1.9049 0.0000
vt 2.1757 0.9245 0.0000
vt 2.4103 0.9245 0.0000
vt 2.4103 1.9049 0.0000
vt 2.1757 -0.3877 0.0000
vt 2.1757 -1.3681 0.0000
vt 2.4103 -1.3681 0.0000
vt 2.4103 -0.3877 0.0000
vt 0.1262 -1.1836 0.0000
vt 0.1262 1.9201 0.0000
vt -0.1743 1.9201 0.0000
vt -0.1743 -1.1836 0.0000
vt 1.0870 -1.1836 0.0000
vt 1.0870 1.9201 0.0000
vt 0.7866 1.9201 0.0000
vt 0.7866 -1.1836 0.0000
vt -1.1497 -1.1836 0.0000
vt -0.8313 -1.1836 0.0000
vt -0.8313 1.9201 0.0000
vt -1.1497 1.9201 0.0000
vt 1.7248 1.1184 0.0000
vt 2.0117 1.0291 0.0000
vt 1.9828 -1.3111 0.0000
vt 1.6950 -1.2250 0.0000
vt 2.0475 0.9804 0.0000
vt 2.0484 -1.2622 0.0000
vt 1.6586 -1.1762 0.0000
vt 1.6587 1.0697 0.0000
vt -1.2809 1.9201 0.0000
vt -1.2809 -1.1836 0.0000
vt -0.6683 1.9711 0.0000
vt -0.3679 1.9711 0.0000
vt 0.2507 -1.1836 0.0000
vt 0.2507 1.9201 0.0000
vt -1.3319 -1.2346 0.0000
vt -1.6503 -1.2346 0.0000
vt 0.6530 1.9201 0.0000
vt 0.6530 -1.1836 0.0000
vt -0.3679 -1.2346 0.0000
vt -0.6683 -1.2346 0.0000
vt -0.3169 1.9201 0.0000
vt -0.3169 -1.1836 0.0000
vt 0.3016 1.9711 0.0000
vt 0.6020 1.9711 0.0000
vt -1.7013 -1.1836 0.0000
vt -1.7013 1.9201 0.0000
vt -0.7192 -1.1836 0.0000
vt -0.7192 1.9201 0.0000
vt 0.6020 -1.2346 0.0000
vt 0.3016 -1.2346 0.0000
vt -1.6503 1.9711 0.0000
vt -1.3319 1.9711 0.0000
vt 2.4103 -0.2683 0.0000
vt 2.1757 -0.2683 0.0000
vt 2.1757 0.8141 0.0000
vt 2.4103 0.8141 0.0000
vt 2.1247 -0.2173 0.0000
vt 2.1247 0.7631 0.0000
vt 2.4613 0.7631 0.0000
vt 2.4613 -0.2173 0.0000
vt 1.5300 1.1770 0.0000
vt 1.2954 1.1770 0.0000
vt 1.2954 2.2594 0.0000
vt 1.5300 2.2594 0.0000
vt 1.2444 1.2280 0.0000
vt 1.2444 2.2084 0.0000
vt 1.5810 2.2084 0.0000
vt 1.5810 1.2280 0.0000
vt 1.2606 1.0294 0.0000
vt 1.5476 1.1181 0.0000
vt 1.5657 -1.2227 0.0000
vt 1.2786 -1.3108 0.0000
vt 1.6133 1.0689 0.0000
vt 1.6014 -1.1745 0.0000
vt 1.2123 -1.2621 0.0000
vt 1.2243 0.9807 0.0000
vt 2.1757 1.9559 0.0000
vt 2.4103 1.9559 0.0000
vt 2.4103 0.8735 0.0000
vt 2.1757 0.8735 0.0000
vt 2.4613 1.9049 0.0000
vt 2.4613 0.9245 0.0000
vt 2.1247 0.9245 0.0000
vt 2.1247 1.9049 0.0000
vt 2.1757 -0.3368 0.0000
vt 2.4103 -0.3368 0.0000
vt 2.4103 -1.4191 0.0000
vt 2.1757 -1.4191 0.0000
vt 2.4613 -0.3877 0.0000
vt 2.4613 -1.3681 0.0000
vt 2.1247 -1.3681 0.0000
vt 2.1247 -0.3877 0.0000
vt -1.2007 -1.1836 0.0000
vt -1.2007 1.9201 0.0000
vt 1.0870 -1.2346 0.0000
vt 0.7866 -1.2346 0.0000
vt 0.1771 1.9201 0.0000
vt 0.1771 -1.1836 0.0000
vt -1.1497 1.9711 0.0000
vt -0.8313 1.9711 0.0000
vt -0.2252 -1.1836 0.0000
vt -0.2252 1.9201 0.0000
vt 0.7866 1.9711 0.0000
vt 1.0870 1.9711 0.0000
vt 0.7356 -1.1836 0.0000
vt 0.7356 1.9201 0.0000
vt 0.1262 -1.2346 0.0000
vt -0.1743 -1.2346 0.0000
vt -0.7803 1.9201 0.0000
vt -0.7803 -1.1836 0.0000
vt 1.1380 1.9201 0.0000
vt 1.1380 -1.1836 0.0000
vt -0.1743 1.9711 0.0000
vt 0.1262 1.9711 0.0000
vt -0.8313 -1.2346 0.0000
vt -1.1497 -1.2346 0.0000
# 144 texture coords

g Shutters
usemtl None_wood_white_jpg
s 1
f 1/1/1 2/2/1 3/3/1 4/4/1 
f 5/5/1 6/6/1 7/7/1 8/8/1 
f 9/9/1 10/10/1 11/11/1 12/12/1 
f 13/13/1 14/14/1 15/15/1 16/16/1 
f 17/17/1 18/18/1 19/19/1 20/20/1 
f 21/21/1 22/22/1 23/23/1 24/24/1 
f 25/25/2 26/26/3 27/27/3 28/28/4 
f 29/29/1 30/30/1 31/31/1 32/32/1 
f 33/33/1 34/34/1 35/35/1 36/36/1 
f 37/37/1 38/38/1 39/39/1 40/40/1 
f 41/41/1 42/42/1 43/43/1 44/44/1 
f 45/45/1 46/46/1 47/47/1 48/48/1 
usemtl None_NONE
f 49/49/5 1/1/5 4/4/5 50/50/5 
f 51/51/6 3/3/6 2/2/6 52/52/6 
f 50/53/7 4/4/7 3/3/7 51/54/7 
f 52/55/8 2/2/8 1/1/8 49/56/8 
f 53/57/9 13/13/9 16/16/9 54/58/9 
f 55/59/10 9/9/10 12/12/10 56/60/10 
f 57/61/11 6/6/11 5/5/11 58/62/11 
f 54/63/12 16/16/12 15/15/12 59/64/12 
f 60/65/9 8/8/9 7/7/9 61/66/9 
f 62/67/12 11/11/12 10/10/12 63/68/12 
f 56/69/9 12/12/9 11/11/9 62/70/9 
f 58/71/10 5/5/10 8/8/10 60/72/10 
f 59/73/11 15/15/11 14/14/11 64/74/11 
f 63/75/11 10/10/11 9/9/11 55/76/11 
f 61/77/12 7/7/12 6/6/12 57/78/12 
f 64/79/10 14/14/10 13/13/10 53/80/10 
f 65/81/9 17/17/9 20/20/9 66/82/9 
f 67/83/11 19/19/11 18/18/11 68/84/11 
f 66/85/12 20/20/12 19/19/12 67/86/12 
f 68/87/10 18/18/10 17/17/10 65/88/10 
f 69/89/9 21/21/9 24/24/9 70/90/9 
f 71/91/11 23/23/11 22/22/11 72/92/11 
f 70/93/12 24/24/12 23/23/12 71/94/12 
f 72/95/10 22/22/10 21/21/10 69/96/10 
f 73/97/13 25/25/13 28/28/13 74/98/13 
f 75/99/14 27/27/14 26/26/14 76/100/14 
f 74/101/15 28/28/15 27/27/15 75/102/15 
f 76/103/16 26/26/16 25/25/16 73/104/16 
f 77/105/11 29/29/11 32/32/11 78/106/11 
f 79/107/9 31/31/9 30/30/9 80/108/9 
f 78/109/10 32/32/10 31/31/10 79/110/10 
f 80/111/12 30/30/12 29/29/12 77/112/12 
f 81/113/11 33/33/11 36/36/11 82/114/11 
f 83/115/9 35/35/9 34/34/9 84/116/9 
f 82/117/10 36/36/10 35/35/10 83/118/10 
f 84/119/12 34/34/12 33/33/12 81/120/12 
f 85/121/11 45/45/11 48/48/11 86/122/11 
f 87/123/12 41/41/12 44/44/12 88/124/12 
f 89/125/9 38/38/9 37/37/9 90/126/9 
f 86/127/10 48/48/10 47/47/10 91/128/10 
f 92/129/11 40/40/11 39/39/11 93/130/11 
f 94/131/10 43/43/10 42/42/10 95/132/10 
f 88/133/11 44/44/11 43/43/11 94/134/11 
f 90/135/12 37/37/12 40/40/12 92/136/12 
f 91/137/9 47/47/9 46/46/9 96/138/9 
f 95/139/9 42/42/9 41/41/9 87/140/9 
f 93/141/10 39/39/10 38/38/10 89/142/10 
f 96/143/12 46/46/12 45/45/12 85/144/12 
# 60 polygons

