# Blender v2.76 (sub 0) OBJ File: ''
# www.blender.org
mtllib Skylight_Bubble.mtl
o Skylight_Bubble
v 13.496732 13.016240 -7.008116
v 7.248748 14.929716 -3.761816
v 8.007220 14.929726 -1.421186
v 14.886489 13.016240 -2.545777
v 10.832305 13.016241 -10.778739
v 5.804840 14.929712 -5.751248
v 7.061699 13.016240 -13.443158
v 3.815387 14.929723 -7.195172
v 2.599344 13.016244 -14.832917
v 1.474763 14.929725 -7.953636
v -2.111656 13.016239 -14.832920
v -0.987070 14.929721 -7.953638
v -6.574012 13.016251 -13.443154
v -3.327703 14.929719 -7.195172
v -10.344606 13.016243 -10.778720
v -5.317146 14.929729 -5.751244
v -13.009038 13.016237 -7.008116
v -6.761068 14.929726 -3.761809
v -14.398811 13.016248 -2.545758
v -7.519524 14.929726 -1.421176
v -14.398811 13.016247 2.165237
v -7.519524 14.929726 1.040653
v -13.009034 13.016247 6.627595
v -6.761065 14.929732 3.381278
v -10.344591 13.016244 10.398189
v -5.317146 14.929731 5.370724
v -6.573984 13.016243 13.062613
v -3.327683 14.929720 6.814643
v -2.111637 13.016243 14.452366
v -0.987057 14.929725 7.573097
v 2.599372 13.016247 14.452362
v 1.474772 14.929727 7.573093
v 7.061726 13.016238 13.062590
v 3.815405 14.929729 6.814629
v 10.832321 13.016241 10.398161
v 5.804845 14.929729 5.370705
v 13.496747 13.016247 6.627555
v 7.248755 14.929728 3.381257
v 14.886496 13.016242 2.165200
v 8.007220 14.929726 1.040628
v 19.088615 10.168154 -10.185259
v 20.728277 10.169777 -3.653112
v 15.773924 10.166221 -15.719924
v 10.239199 10.168153 -19.034670
v 3.707009 10.169782 -20.674366
v -3.218071 10.169783 -20.674356
v -9.750125 10.168161 -19.034662
v -15.284694 10.166225 -15.719926
v -18.599541 10.168165 -10.185246
v -20.239328 10.169791 -3.653095
v -20.239332 10.169791 3.271981
v -18.599529 10.168164 9.804070
v -15.284668 10.166223 15.338684
v -9.750086 10.168159 18.653481
v -3.218028 10.169785 20.293234
v 3.707042 10.169785 20.293222
v 10.239233 10.168154 18.653452
v 15.773952 10.166219 15.338637
v 19.088629 10.168149 9.804012
v 20.728281 10.169778 3.271916
v 24.874060 6.963701 -4.697637
v 23.970356 6.963700 -13.567870
v 21.571802 6.963701 -21.569700
v 13.571655 6.963701 -23.968515
v 4.703763 6.963702 -24.870743
v -4.397006 6.963704 -24.878176
v -13.278455 6.963705 -23.974997
v -21.278870 6.963706 -21.568462
v -23.686111 6.963706 -13.570600
v -24.588657 6.963707 -4.698202
v -24.592102 6.963707 4.404882
v -23.686535 6.963708 13.281127
v -21.278168 6.963707 21.280361
v -13.278142 6.963707 23.688368
v -4.398567 6.963706 24.593706
v 4.703602 6.963705 24.586384
v 13.573507 6.963704 23.685860
v 21.571243 6.963703 21.281670
v 23.973919 6.963702 13.279953
v 24.877626 6.963701 4.402460
v 28.224785 4.035518 -5.601147
v 27.907143 4.021529 -16.310755
v 26.504150 4.020943 -26.535286
v 16.305431 4.021533 -27.912971
v 5.606980 4.034946 -28.222805
v -5.299715 4.034345 -28.228819
v -16.066742 4.021275 -27.933100
v -26.384306 4.020798 -26.576725
v -27.674055 4.021285 -16.326761
v -27.950712 4.032743 -5.601466
v -27.952946 4.032473 5.311849
v -27.686230 4.021180 16.067183
v -26.403385 4.020738 26.370411
v -16.076748 4.021177 27.676352
v -5.305238 4.033039 27.949310
v 5.605293 4.033619 27.944160
v 16.311909 4.021409 27.652380
v 26.524012 4.020871 26.329718
v 27.915487 4.021399 16.047560
v 28.227884 4.035227 5.304121
v 29.732727 2.459515 -6.016370
v 29.714987 2.401206 -17.823391
v 17.750042 2.400647 -29.789555
v 5.953191 2.450006 -29.800856
v -5.913942 2.444914 -29.806931
v -17.767347 2.375364 -29.805666
v -29.674015 2.200534 -29.703876
v -29.737108 2.374027 -17.838945
v -29.721716 2.422141 -6.019320
v -29.724287 2.420102 5.856009
v -29.745848 2.363843 17.699751
v -17.776041 2.364284 29.668522
v -5.919672 2.427636 29.652594
v 5.953038 2.432185 29.646967
v 17.756794 2.387005 29.650791
v 29.722103 2.388452 17.682247
v 29.735750 2.456923 5.847083
v 4.334833 15.296414 -4.281257
v 1.597603 15.417071 -4.624012
v -1.109910 15.417071 -4.624011
v -3.847144 15.296410 -4.281252
v 4.677592 15.417071 -1.544028
v 1.690724 15.667058 -1.637146
v -1.203027 15.667058 -1.637143
v -4.189899 15.417071 -1.544021
v 4.677595 15.417073 1.163477
v 1.690726 15.667058 1.256601
v -1.203025 15.667058 1.256605
v -4.189897 15.417071 1.163489
v 4.334841 15.296415 3.900708
v 1.597609 15.417073 4.243470
v -1.109902 15.417073 4.243474
v -3.847137 15.296414 3.900721
v 29.972345 1.723747 -6.055036
v 29.972345 1.723748 5.954078
v 30.687605 -0.000003 6.024793
v 30.687605 -0.000003 -6.125750
v -6.055023 1.723750 -30.073267
v 5.954099 1.723749 -30.073267
v 6.021393 0.149667 -30.449924
v -6.122317 0.149668 -30.449924
v -30.073267 1.723754 5.954080
v -30.073267 1.723754 -6.055034
v -30.449924 0.149672 -6.122328
v -30.449924 0.149673 6.021375
v 5.954101 1.723751 29.972311
v -6.055021 1.723753 29.972311
v -6.125735 0.000002 30.687569
v 6.024815 0.000001 30.687569
v -18.064142 1.723752 -30.073267
v -18.266159 0.148625 -30.450134
v -30.439367 0.146601 -30.439367
v 29.972345 1.723746 -30.073267
v 30.586647 -0.000005 -30.687567
v 18.165237 0.148621 -30.450134
v 17.963221 1.723747 -30.073267
v 29.972345 1.723748 29.972311
v 17.963221 1.723750 29.972311
v 18.175365 -0.000000 30.687435
v 30.586647 -0.000002 30.586611
v -30.073267 1.723755 29.972311
v -30.687569 0.000005 30.586611
v -18.276287 0.000004 30.687435
v -18.064142 1.723754 29.972311
v 29.972345 1.723746 -18.064148
v 30.687471 -0.000004 -18.276293
v 30.687471 -0.000002 18.175337
v 29.972345 1.723748 17.963192
v -30.073267 1.723755 17.963192
v -30.450134 0.148628 18.165209
v -30.450134 0.148627 -18.266165
v -30.073267 1.723753 -18.064148
vn 0.923600 0.383300 -0.000000
vn 0.000000 0.232700 -0.972500
vn -0.972500 0.232700 -0.000000
vn 0.000000 0.383300 0.923600
vn -0.021300 0.235200 -0.971700
vn -0.000900 0.337400 -0.941400
vn -0.014100 0.331200 -0.943500
vn -0.000000 0.232700 -0.972600
vn 0.000000 0.383200 0.923700
vn 0.007600 0.338100 0.941100
vn -0.007600 0.338100 0.941100
vn 0.923700 0.383200 -0.000000
vn 0.941100 0.338100 -0.007600
vn 0.941100 0.338100 0.007600
vn -0.972600 0.232700 -0.000000
vn -0.943500 0.331200 -0.014100
vn -0.937000 0.349500 -0.000900
vn -0.971600 0.235500 -0.023700
vn 0.934800 0.355100 -0.000000
vn 0.950800 0.309800 -0.003000
vn 0.000000 0.386600 -0.922300
vn 0.002400 0.351200 -0.936300
vn 0.000000 0.346400 -0.938100
vn 0.000300 0.351200 -0.936300
vn 0.000000 0.379900 -0.925000
vn -0.002100 0.346800 -0.937900
vn -0.013500 0.385100 -0.922800
vn -0.886600 0.462300 -0.011500
vn -0.888300 0.459200 -0.000000
vn -0.893200 0.449600 -0.000700
vn -0.894000 0.448000 -0.000000
vn -0.893200 0.449600 -0.000100
vn -0.890300 0.455400 -0.000000
vn -0.894000 0.448100 0.000500
vn 0.000000 0.428500 0.903500
vn -0.001000 0.413700 0.910400
vn 0.000000 0.413600 0.910500
vn 0.000300 0.417300 0.908800
vn 0.000000 0.436200 0.899800
vn 0.001300 0.417300 0.908700
vn 0.935900 0.352300 -0.000000
vn 0.951600 0.307500 0.002900
vn 0.950800 0.309700 -0.000000
vn 0.951700 0.307100 -0.000200
vn 0.305800 0.941000 -0.145100
vn 0.192400 0.976700 -0.094900
vn 0.209200 0.977300 -0.031500
vn 0.351100 0.935100 -0.049000
vn 0.229600 0.944200 -0.235900
vn 0.156400 0.975100 -0.156900
vn 0.148200 0.938700 -0.311200
vn 0.095200 0.976500 -0.193100
vn 0.053100 0.934000 -0.353100
vn 0.031900 0.977300 -0.209500
vn -0.049000 0.935100 -0.351100
vn -0.032500 0.977600 -0.208000
vn -0.145100 0.940900 -0.305800
vn -0.093600 0.977900 -0.186700
vn -0.236000 0.944200 -0.229600
vn -0.102300 0.989500 -0.101700
vn -0.311200 0.938700 -0.148300
vn -0.187300 0.977800 -0.094000
vn -0.353200 0.934000 -0.053100
vn -0.208200 0.977500 -0.032900
vn -0.351100 0.935000 0.049000
vn -0.209200 0.977300 0.031500
vn -0.305800 0.940900 0.145100
vn -0.192400 0.976700 0.094900
vn -0.229600 0.944200 0.236000
vn -0.156400 0.975100 0.156900
vn -0.148300 0.938700 0.311200
vn -0.095200 0.976500 0.193100
vn -0.053100 0.934000 0.353200
vn -0.031900 0.977300 0.209500
vn 0.049000 0.935100 0.351100
vn 0.032500 0.977600 0.208000
vn 0.145100 0.940900 0.305800
vn 0.093600 0.977900 0.186700
vn 0.235900 0.944200 0.229600
vn 0.102300 0.989500 0.101700
vn 0.311200 0.938700 0.148200
vn 0.187300 0.977800 0.094000
vn 0.353100 0.934000 0.053100
vn 0.208200 0.977500 0.032900
vn 0.436700 0.885100 -0.161000
vn 0.522400 0.850400 -0.062700
vn 0.280900 0.917100 -0.282900
vn 0.159800 0.888200 -0.430800
vn 0.064400 0.853100 -0.517600
vn -0.061600 0.852600 -0.518900
vn -0.159500 0.886900 -0.433500
vn -0.280000 0.918600 -0.278800
vn -0.424900 0.891300 -0.158200
vn -0.509900 0.857900 -0.063400
vn -0.511800 0.856900 0.061200
vn -0.428700 0.889400 0.158800
vn -0.276800 0.919300 0.279800
vn -0.157600 0.891000 0.425700
vn -0.062800 0.856800 0.511700
vn 0.062300 0.854700 0.515300
vn 0.160200 0.887700 0.431700
vn 0.282700 0.917800 0.278700
vn 0.431500 0.888000 0.159100
vn 0.519400 0.852100 0.063800
vn 0.618900 0.784300 -0.043000
vn 0.514200 0.851500 -0.102600
vn 0.284200 0.915700 -0.283900
vn 0.102000 0.852200 -0.513200
vn 0.042700 0.785800 -0.617000
vn -0.042600 0.786600 -0.616000
vn -0.101400 0.853800 -0.510600
vn -0.279800 0.918100 -0.280700
vn -0.507400 0.855900 -0.100000
vn -0.610300 0.791000 -0.041900
vn -0.609900 0.791400 0.041900
vn -0.506000 0.856700 0.099600
vn -0.278200 0.919200 0.278600
vn -0.100100 0.856000 0.507200
vn -0.042100 0.789800 0.611900
vn 0.042100 0.789000 0.612900
vn 0.100800 0.854200 0.510000
vn 0.282700 0.916900 0.281800
vn 0.513000 0.852200 0.102300
vn 0.618400 0.784700 0.043000
vn 0.683000 0.730200 -0.019300
vn 0.597100 0.800000 -0.058000
vn 0.299100 0.907200 -0.295900
vn 0.057300 0.805300 -0.590000
vn 0.019200 0.736900 -0.675700
vn -0.018300 0.736700 -0.675900
vn -0.055900 0.804300 -0.591500
vn -0.270700 0.921400 -0.278800
vn -0.572600 0.818000 -0.054000
vn -0.656500 0.754100 -0.018100
vn -0.656500 0.754100 0.017700
vn -0.573100 0.817700 0.053300
vn -0.287000 0.913000 0.290000
vn -0.053900 0.813000 0.579700
vn -0.017700 0.748100 0.663300
vn 0.018600 0.748200 0.663200
vn 0.055500 0.813800 0.578400
vn 0.299000 0.909000 0.290300
vn 0.597900 0.799500 0.057300
vn 0.683100 0.730100 0.018800
vn 0.856000 0.516900 -0.006500
vn 0.806200 0.590900 -0.028100
vn 0.026700 0.609900 -0.792000
vn 0.006100 0.543700 -0.839200
vn -0.005900 0.541600 -0.840600
vn -0.028200 0.604700 -0.796000
vn -0.527700 0.662700 -0.531300
vn -0.757400 0.652500 -0.024400
vn -0.794100 0.607700 -0.004700
vn -0.794700 0.607000 0.004500
vn -0.758500 0.651200 0.023500
vn -0.024700 0.635100 0.772100
vn -0.005000 0.584900 0.811100
vn 0.005200 0.586600 0.809800
vn 0.024400 0.639700 0.768200
vn 0.807600 0.589000 0.028300
vn 0.856700 0.515800 0.006400
vn 0.097400 0.990400 -0.097400
vn 0.027400 0.993000 -0.114400
vn -0.032700 0.993100 -0.112700
vn -0.100000 0.989900 -0.100000
vn 0.114400 0.993000 -0.027400
vn 0.038600 0.998500 -0.038600
vn -0.042700 0.998200 -0.042700
vn -0.112700 0.993100 -0.032700
vn 0.112700 0.993100 0.032700
vn 0.042700 0.998200 0.042700
vn -0.038600 0.998500 0.038600
vn -0.114400 0.993000 0.027400
vn 0.100000 0.989900 0.100000
vn 0.032700 0.993100 0.112700
vn -0.027400 0.993000 0.114400
vn -0.097400 0.990400 0.097400
vn 0.536500 0.641000 -0.548900
vn -0.546300 0.645400 0.533900
vn 0.539500 0.644900 0.541200
usemtl None
s off
f 134//1 135//1 136//1
f 136//1 137//1 134//1
f 138//2 139//2 140//2
f 140//2 141//2 138//2
f 142//3 143//3 144//3
f 144//3 145//3 142//3
f 146//4 147//4 148//4
f 148//4 149//4 146//4
f 107//5 150//5 151//5
f 151//6 152//6 107//6
f 150//2 138//2 141//2
f 141//2 151//2 150//2
f 153//7 154//7 155//7
f 155//8 156//8 153//8
f 139//8 156//8 155//8
f 155//2 140//2 139//2
f 157//9 158//9 159//9
f 159//10 160//10 157//10
f 158//4 146//4 149//4
f 149//9 159//9 158//9
f 161//11 162//11 163//11
f 163//9 164//9 161//9
f 147//9 164//9 163//9
f 163//4 148//4 147//4
f 153//12 165//12 166//12
f 166//13 154//13 153//13
f 165//1 134//1 137//1
f 137//12 166//12 165//12
f 157//14 160//14 167//14
f 167//12 168//12 157//12
f 135//12 168//12 167//12
f 167//1 136//1 135//1
f 161//15 169//15 170//15
f 170//16 162//16 161//16
f 169//3 142//3 145//3
f 145//15 170//15 169//15
f 107//17 152//17 171//17
f 171//18 172//18 107//18
f 143//15 172//15 171//15
f 171//3 144//3 143//3
f 134//19 165//19 102//19
f 102//20 101//20 134//20
f 153//19 102//19 165//19
f 156//21 103//21 153//21
f 103//21 156//21 139//21
f 139//22 104//22 103//22
f 139//23 138//23 105//23
f 105//24 104//24 139//24
f 138//25 150//25 106//25
f 106//26 105//26 138//26
f 107//27 106//27 150//27
f 172//28 108//28 107//28
f 108//29 172//29 143//29
f 143//30 109//30 108//30
f 143//31 142//31 110//31
f 110//32 109//32 143//32
f 142//33 169//33 111//33
f 111//34 110//34 142//34
f 161//33 111//33 169//33
f 164//35 112//35 161//35
f 112//35 164//35 147//35
f 147//36 113//36 112//36
f 113//37 147//37 146//37
f 146//38 114//38 113//38
f 146//39 158//39 115//39
f 115//40 114//40 146//40
f 157//39 115//39 158//39
f 168//41 116//41 157//41
f 116//41 168//41 135//41
f 135//42 117//42 116//42
f 135//43 134//43 101//43
f 101//44 117//44 135//44
s 1
f 1//45 2//46 3//47
f 3//47 4//48 1//45
f 5//49 6//50 2//46
f 2//46 1//45 5//49
f 7//51 8//52 6//50
f 6//50 5//49 7//51
f 9//53 10//54 8//52
f 8//52 7//51 9//53
f 11//55 12//56 10//54
f 10//54 9//53 11//55
f 13//57 14//58 12//56
f 12//56 11//55 13//57
f 15//59 16//60 14//58
f 14//58 13//57 15//59
f 17//61 18//62 16//60
f 16//60 15//59 17//61
f 19//63 20//64 18//62
f 18//62 17//61 19//63
f 21//65 22//66 20//64
f 20//64 19//63 21//65
f 23//67 24//68 22//66
f 22//66 21//65 23//67
f 25//69 26//70 24//68
f 24//68 23//67 25//69
f 27//71 28//72 26//70
f 26//70 25//69 27//71
f 29//73 30//74 28//72
f 28//72 27//71 29//73
f 31//75 32//76 30//74
f 30//74 29//73 31//75
f 33//77 34//78 32//76
f 32//76 31//75 33//77
f 35//79 36//80 34//78
f 34//78 33//77 35//79
f 37//81 38//82 36//80
f 36//80 35//79 37//81
f 39//83 40//84 38//82
f 38//82 37//81 39//83
f 4//48 3//47 40//84
f 40//84 39//83 4//48
f 41//85 1//45 4//48
f 4//48 42//86 41//85
f 43//87 5//49 1//45
f 1//45 41//85 43//87
f 44//88 7//51 5//49
f 5//49 43//87 44//88
f 45//89 9//53 7//51
f 7//51 44//88 45//89
f 46//90 11//55 9//53
f 9//53 45//89 46//90
f 47//91 13//57 11//55
f 11//55 46//90 47//91
f 48//92 15//59 13//57
f 13//57 47//91 48//92
f 49//93 17//61 15//59
f 15//59 48//92 49//93
f 50//94 19//63 17//61
f 17//61 49//93 50//94
f 51//95 21//65 19//63
f 19//63 50//94 51//95
f 52//96 23//67 21//65
f 21//65 51//95 52//96
f 53//97 25//69 23//67
f 23//67 52//96 53//97
f 54//98 27//71 25//69
f 25//69 53//97 54//98
f 55//99 29//73 27//71
f 27//71 54//98 55//99
f 56//100 31//75 29//73
f 29//73 55//99 56//100
f 57//101 33//77 31//75
f 31//75 56//100 57//101
f 58//102 35//79 33//77
f 33//77 57//101 58//102
f 59//103 37//81 35//79
f 35//79 58//102 59//103
f 60//104 39//83 37//81
f 37//81 59//103 60//104
f 42//86 4//48 39//83
f 39//83 60//104 42//86
f 61//105 62//106 41//85
f 41//85 42//86 61//105
f 62//106 63//107 43//87
f 43//87 41//85 62//106
f 43//87 63//107 64//108
f 64//108 44//88 43//87
f 44//88 64//108 65//109
f 65//109 45//89 44//88
f 65//109 66//110 46//90
f 46//90 45//89 65//109
f 66//110 67//111 47//91
f 47//91 46//90 66//110
f 67//111 68//112 48//92
f 48//92 47//91 67//111
f 48//92 68//112 69//113
f 69//113 49//93 48//92
f 49//93 69//113 70//114
f 70//114 50//94 49//93
f 70//114 71//115 51//95
f 51//95 50//94 70//114
f 71//115 72//116 52//96
f 52//96 51//95 71//115
f 72//116 73//117 53//97
f 53//97 52//96 72//116
f 53//97 73//117 74//118
f 74//118 54//98 53//97
f 54//98 74//118 75//119
f 75//119 55//99 54//98
f 55//99 75//119 76//120
f 76//120 56//100 55//99
f 76//120 77//121 57//101
f 57//101 56//100 76//120
f 77//121 78//122 58//102
f 58//102 57//101 77//121
f 58//102 78//122 79//123
f 79//123 59//103 58//102
f 59//103 79//123 80//124
f 80//124 60//104 59//103
f 60//104 80//124 61//105
f 61//105 42//86 60//104
f 81//125 82//126 62//106
f 62//106 61//105 81//125
f 82//126 83//127 63//107
f 63//107 62//106 82//126
f 63//107 83//127 84//128
f 84//128 64//108 63//107
f 64//108 84//128 85//129
f 85//129 65//109 64//108
f 85//129 86//130 66//110
f 66//110 65//109 85//129
f 86//130 87//131 67//111
f 67//111 66//110 86//130
f 87//131 88//132 68//112
f 68//112 67//111 87//131
f 68//112 88//132 89//133
f 89//133 69//113 68//112
f 69//113 89//133 90//134
f 90//134 70//114 69//113
f 90//134 91//135 71//115
f 71//115 70//114 90//134
f 91//135 92//136 72//116
f 72//116 71//115 91//135
f 92//136 93//137 73//117
f 73//117 72//116 92//136
f 73//117 93//137 94//138
f 94//138 74//118 73//117
f 74//118 94//138 95//139
f 95//139 75//119 74//118
f 75//119 95//139 96//140
f 96//140 76//120 75//119
f 96//140 97//141 77//121
f 77//121 76//120 96//140
f 97//141 98//142 78//122
f 78//122 77//121 97//141
f 78//122 98//142 99//143
f 99//143 79//123 78//122
f 79//123 99//143 100//144
f 100//144 80//124 79//123
f 80//124 100//144 81//125
f 81//125 61//105 80//124
f 101//145 102//146 82//126
f 82//126 81//125 101//145
f 83//127 82//126 102//146
f 103//147 84//128 83//127
f 84//128 103//147 104//148
f 104//148 85//129 84//128
f 104//148 105//149 86//130
f 86//130 85//129 104//148
f 105//149 106//150 87//131
f 87//131 86//130 105//149
f 106//150 107//151 88//132
f 88//132 87//131 106//150
f 88//132 107//151 108//152
f 108//152 89//133 88//132
f 89//133 108//152 109//153
f 109//153 90//134 89//133
f 109//153 110//154 91//135
f 91//135 90//134 109//153
f 110//154 111//155 92//136
f 92//136 91//135 110//154
f 93//137 92//136 111//155
f 112//156 94//138 93//137
f 94//138 112//156 113//157
f 113//157 95//139 94//138
f 95//139 113//157 114//158
f 114//158 96//140 95//139
f 114//158 115//159 97//141
f 97//141 96//140 114//158
f 98//142 97//141 115//159
f 116//160 99//143 98//142
f 99//143 116//160 117//161
f 117//161 100//144 99//143
f 100//144 117//161 101//145
f 101//145 81//125 100//144
f 118//162 2//46 6//50
f 6//50 8//52 118//162
f 119//163 118//162 8//52
f 8//52 10//54 119//163
f 120//164 119//163 10//54
f 10//54 12//56 120//164
f 121//165 120//164 12//56
f 12//56 14//58 121//165
f 18//62 121//165 14//58
f 14//58 16//60 18//62
f 122//166 3//47 2//46
f 2//46 118//162 122//166
f 123//167 122//166 118//162
f 118//162 119//163 123//167
f 124//168 123//167 119//163
f 119//163 120//164 124//168
f 125//169 124//168 120//164
f 120//164 121//165 125//169
f 20//64 125//169 121//165
f 121//165 18//62 20//64
f 126//170 40//84 3//47
f 3//47 122//166 126//170
f 127//171 126//170 122//166
f 122//166 123//167 127//171
f 128//172 127//171 123//167
f 123//167 124//168 128//172
f 129//173 128//172 124//168
f 124//168 125//169 129//173
f 22//66 129//173 125//169
f 125//169 20//64 22//66
f 130//174 38//82 40//84
f 40//84 126//170 130//174
f 131//175 130//174 126//170
f 126//170 127//171 131//175
f 132//176 131//175 127//171
f 127//171 128//172 132//176
f 133//177 132//176 128//172
f 128//172 129//173 133//177
f 24//68 133//177 129//173
f 129//173 22//66 24//68
f 34//78 36//80 38//82
f 38//82 130//174 34//78
f 32//76 34//78 130//174
f 130//174 131//175 32//76
f 30//74 32//76 131//175
f 131//175 132//176 30//74
f 28//72 30//74 132//176
f 132//176 133//177 28//72
f 26//70 28//72 133//177
f 133//177 24//68 26//70
f 102//146 153//178 83//127
f 83//127 153//178 103//147
f 111//155 161//179 93//137
f 93//137 161//179 112//156
f 115//159 157//180 98//142
f 98//142 157//180 116//160
