# 3ds Max Wavefront OBJ Exporter v0.97b - (c)2007 guruware
# File Created: 21.07.2017 00:51:26

mtllib Steel_French_Doors_Frame.mtl

#
# object Frame
#

v  2.0000 8.2850 93.7400
v  2.0000 8.2850 102.2253
v  2.0000 -0.0003 102.2253
v  2.0000 -0.0003 93.7400
v  2.0000 8.2850 -102.2253
v  2.0000 213.8850 -102.2253
v  2.0000 213.8850 -93.7400
v  2.0000 8.2850 -93.7400
v  2.0000 223.5850 104.9405
v  2.0000 213.8850 102.2253
v  2.0000 213.8850 93.7400
v  2.0000 223.5850 93.7400
v  2.0000 -0.0003 -93.7400
v  2.0000 223.5850 -104.9405
v  2.0000 223.5850 -93.7400
v  2.0000 -0.0003 -102.2253
v  -0.0000 223.5850 104.9405
v  -0.0000 213.8850 102.2253
v  -0.0000 8.2850 102.2253
v  -0.0000 -0.0003 102.2253
v  -0.0000 -0.0003 93.7400
v  0.0000 -0.0003 -93.7400
v  0.0000 -0.0003 -102.2253
v  0.0000 8.2850 -102.2253
v  0.0000 213.8850 -102.2253
v  0.0000 223.5850 -104.9405
v  0.0000 223.5850 -93.7400
v  0.0000 223.5850 93.7400
v  -0.0000 8.2850 93.7400
v  -0.0000 213.8850 93.7400
v  0.0000 213.8850 -93.7400
v  0.0000 8.2850 -93.7400
# 32 vertices

vn 1.0000 0.0000 -0.0000
vn 1.0000 -0.0000 -0.0000
vn 1.0000 -0.0000 0.0000
vn 0.0000 -0.2696 0.9630
vn 0.0000 0.0000 1.0000
vn 0.0000 -1.0000 -0.0000
vn 0.0000 0.0000 -1.0000
vn 0.0000 -0.2696 -0.9630
vn 0.0000 1.0000 -0.0000
# 9 vertex normals

vt 0.7266 -1.1140 0.0000
vt 0.5760 -1.1140 0.0000
vt 0.5760 -1.2611 0.0000
vt 0.7266 -1.2611 0.0000
vt 0.4700 -1.1140 0.0000
vt 0.4700 2.5346 0.0000
vt 0.3194 2.5346 0.0000
vt 0.3194 -1.1140 0.0000
vt 0.2145 2.4563 0.0000
vt 0.0424 2.4082 0.0000
vt 0.0424 2.2576 0.0000
vt 0.2145 2.2576 0.0000
vt 0.8323 -1.3009 0.0000
vt 0.9793 -1.3009 0.0000
vt 0.9793 2.0262 0.0000
vt 0.8323 2.0262 0.0000
vt 0.0424 -1.2201 0.0000
vt 0.2145 -1.2683 0.0000
vt 0.2145 -1.0695 0.0000
vt 0.0424 -1.0695 0.0000
vt 0.7266 2.5346 0.0000
vt 0.5760 2.5346 0.0000
vt 0.3194 -1.2611 0.0000
vt 0.4700 -1.2611 0.0000
vt 0.2049 2.4905 0.0000
vt 0.0328 2.4423 0.0000
vt 0.5405 2.5346 0.0000
vt 0.5405 -1.1140 0.0000
vt 0.5405 -1.2611 0.0000
vt 0.5760 -1.2966 0.0000
vt 0.7266 -1.2965 0.0000
vt 1.0148 -1.3009 0.0000
vt 1.0148 2.0262 0.0000
vt 0.3194 -1.2965 0.0000
vt 0.4700 -1.2966 0.0000
vt 0.5055 -1.2611 0.0000
vt 0.5055 -1.1140 0.0000
vt 0.5055 2.5346 0.0000
vt 0.0328 -1.2543 0.0000
vt 0.2049 -1.3024 0.0000
vt 0.2500 -1.2683 0.0000
vt 0.2500 -1.0695 0.0000
vt 0.2500 2.2576 0.0000
vt 0.2500 2.4563 0.0000
vt 0.7621 -1.1140 0.0000
vt 0.7621 2.5346 0.0000
vt 0.0069 2.2576 0.0000
vt 0.0069 -1.0695 0.0000
vt 0.2839 2.5346 0.0000
vt 0.2839 -1.1140 0.0000
vt 0.7968 2.0262 0.0000
vt 0.7968 -1.3009 0.0000
# 52 texture coords

g Frame
usemtl Material__27
s off
f 1/1/1 2/2/1 3/3/1 4/4/1 
f 5/5/2 6/6/2 7/7/2 8/8/2 
f 9/9/3 10/10/3 11/11/3 12/12/3 
f 1/13/3 4/14/3 13/15/3 8/16/3 
f 6/17/2 14/18/2 15/19/2 7/20/2 
f 15/19/3 12/12/3 11/11/3 7/20/3 
f 1/1/2 11/21/2 10/22/2 2/2/2 
f 8/8/2 13/23/2 16/24/2 5/5/2 
f 17/25/4 18/26/4 10/10/4 9/9/4 
f 18/27/5 19/28/5 2/2/5 10/22/5 
f 19/28/5 20/29/5 3/3/5 2/2/5 
f 20/30/6 21/31/6 4/4/6 3/3/6 
f 21/32/6 22/33/6 13/15/6 4/14/6 
f 22/34/6 23/35/6 16/24/6 13/23/6 
f 23/36/7 24/37/7 5/5/7 16/24/7 
f 24/37/7 25/38/7 6/6/7 5/5/7 
f 25/39/8 26/40/8 14/18/8 6/17/8 
f 26/41/9 27/42/9 15/19/9 14/18/9 
f 27/42/9 28/43/9 12/12/9 15/19/9 
f 28/43/9 17/44/9 9/9/9 12/12/9 
f 29/45/7 30/46/7 11/21/7 1/1/7 
f 30/47/6 31/48/6 7/20/6 11/11/6 
f 31/49/5 32/50/5 8/8/5 7/7/5 
f 32/51/9 29/52/9 1/13/9 8/16/9 
# 24 polygons

