# 3ds Max Wavefront OBJ Exporter v0.97b - (c)2007 guruware
# File Created: 22.07.2017 01:19:07

mtllib Sutter_For_2x3_Window.mtl

#
# object default001
#

v  6.1728 180.8512 -30.3908
v  6.1728 108.2448 -51.2240
v  6.1728 108.3936 -60.2834
v  6.1728 180.8714 -39.4514
v  4.3239 199.3452 -30.5734
v  4.3239 89.6532 -30.5735
v  4.3239 89.6532 -39.6340
v  4.3239 199.3452 -39.6339
v  4.3239 199.3452 -51.5553
v  4.3239 89.6532 -51.5554
v  4.3239 89.6532 -60.6160
v  4.3239 199.3452 -60.6159
v  4.3239 199.3452 -50.4726
v  4.3239 199.3452 -40.7167
v  4.3239 89.6532 -40.7168
v  4.3239 89.6532 -50.4727
v  6.2685 108.3264 -60.8239
v  6.2685 108.3264 -30.5843
v  6.2685 99.2658 -30.5843
v  6.2685 99.2659 -60.8239
v  6.2685 190.2131 -60.8238
v  6.2685 190.2130 -30.5842
v  6.2685 181.1525 -30.5842
v  6.2685 181.1525 -60.8238
v  6.1062 180.7963 39.8283
v  6.1290 108.3089 60.6466
v  6.3950 108.3041 51.5900
v  6.3738 180.8135 30.7717
v  6.1728 99.1949 60.8437
v  6.1728 99.1949 30.6041
v  6.1728 108.2555 30.6041
v  6.1728 108.2555 60.8437
v  6.1728 181.0816 60.8438
v  6.1728 181.0816 30.6041
v  6.1728 190.1422 30.6041
v  6.1728 190.1421 60.8438
v  4.2283 90.0628 30.5933
v  4.2283 199.7548 30.5934
v  4.2283 199.7548 39.6539
v  4.2283 90.0628 39.6538
v  4.2283 90.0628 51.5752
v  4.2283 199.7548 51.5753
v  4.2283 199.7548 60.6359
v  4.2283 90.0628 60.6358
v  4.2283 90.0628 50.4925
v  4.2283 90.0628 40.7366
v  4.2283 199.7548 40.7367
v  4.2283 199.7548 50.4926
v  4.2039 180.8512 -30.3908
v  4.2039 180.8714 -39.4514
v  4.2039 108.3936 -60.2834
v  4.2039 108.2448 -51.2240
v  2.3550 199.3452 -50.4726
v  2.3550 89.6532 -50.4727
v  2.3550 199.3452 -51.5553
v  2.3550 199.3452 -60.6159
v  2.3550 89.6532 -30.5735
v  2.3550 199.3452 -30.5734
v  2.3550 89.6532 -40.7168
v  2.3550 199.3452 -39.6339
v  2.3550 89.6532 -39.6340
v  2.3550 89.6532 -60.6160
v  2.3550 89.6532 -51.5554
v  2.3550 199.3452 -40.7167
v  4.2996 108.3264 -60.8239
v  4.2996 99.2659 -60.8239
v  4.2995 99.2658 -30.5843
v  4.2995 108.3264 -30.5843
v  4.2996 190.2131 -60.8238
v  4.2996 181.1525 -60.8238
v  4.2995 181.1525 -30.5842
v  4.2995 190.2130 -30.5842
v  4.1383 180.7722 39.7701
v  4.4059 180.7894 30.7135
v  4.4271 108.2784 51.5322
v  4.1611 108.2831 60.5888
v  4.2039 99.1949 60.8437
v  4.2039 108.2555 60.8437
v  4.2039 108.2555 30.6041
v  4.2039 99.1949 30.6041
v  4.2039 181.0816 60.8438
v  4.2039 190.1421 60.8438
v  4.2039 190.1422 30.6041
v  4.2039 181.0816 30.6041
v  2.2594 90.0628 50.4925
v  2.2594 199.7548 50.4926
v  2.2594 90.0628 51.5752
v  2.2594 90.0628 60.6358
v  2.2594 199.7548 30.5934
v  2.2594 90.0628 30.5933
v  2.2594 199.7548 40.7367
v  2.2594 90.0628 39.6538
v  2.2594 199.7548 39.6539
v  2.2594 199.7548 60.6359
v  2.2594 199.7548 51.5753
v  2.2594 90.0628 40.7366
# 96 vertices

vn 1.0000 0.0000 -0.0000
vn 0.9995 0.0088 0.0295
vn 0.9995 0.0087 0.0294
vn 0.9995 0.0088 0.0296
vn 0.0000 1.0000 0.0022
vn 0.0000 -0.9999 -0.0164
vn 0.0000 0.2762 -0.9611
vn 0.0000 -0.2758 0.9612
vn 0.0000 0.0000 -1.0000
vn 0.0000 1.0000 -0.0000
vn 0.0000 0.0000 1.0000
vn 0.0000 -1.0000 -0.0000
vn -0.0123 0.9999 0.0015
vn 0.0131 -0.9999 0.0009
vn 0.0318 -0.2758 -0.9607
vn -0.0318 0.2759 0.9607
# 16 vertex normals

vt 1.7271 1.0369 0.0000
vt 1.7255 -1.1605 0.0000
vt 1.9799 -1.2292 0.0000
vt 1.9806 0.9645 0.0000
vt 0.3925 1.9637 0.0000
vt 0.3925 -1.2272 0.0000
vt 0.6561 -1.2272 0.0000
vt 0.6561 1.9637 0.0000
vt -0.4959 1.9637 0.0000
vt -0.4959 -1.2272 0.0000
vt -0.2323 -1.2272 0.0000
vt -0.2323 1.9637 0.0000
vt -1.1410 1.9637 0.0000
vt -1.4248 1.9637 0.0000
vt -1.4248 -1.2272 0.0000
vt -1.1410 -1.2272 0.0000
vt 2.4248 -0.1669 0.0000
vt 2.4248 0.7128 0.0000
vt 2.1612 0.7128 0.0000
vt 2.1612 -0.1669 0.0000
vt 1.5445 1.2150 0.0000
vt 1.5445 2.0947 0.0000
vt 1.2809 2.0947 0.0000
vt 1.2809 1.2150 0.0000
vt 1.2913 0.9645 0.0000
vt 1.2809 -1.2294 0.0000
vt 1.5346 -1.1580 0.0000
vt 1.5448 1.0365 0.0000
vt 2.1612 1.7731 0.0000
vt 2.1612 0.8934 0.0000
vt 2.4248 0.8934 0.0000
vt 2.4248 1.7731 0.0000
vt 2.1612 -0.3476 0.0000
vt 2.1612 -1.2272 0.0000
vt 2.4248 -1.2272 0.0000
vt 2.4248 -0.3476 0.0000
vt 0.2119 -1.2272 0.0000
vt 0.2119 1.9637 0.0000
vt -0.0517 1.9637 0.0000
vt -0.0517 -1.2272 0.0000
vt 1.1003 -1.2272 0.0000
vt 1.1003 1.9637 0.0000
vt 0.8367 1.9637 0.0000
vt 0.8367 -1.2272 0.0000
vt -0.9603 -1.2272 0.0000
vt -0.6765 -1.2272 0.0000
vt -0.6765 1.9637 0.0000
vt -0.9603 1.9637 0.0000
vt 1.7428 1.0919 0.0000
vt 1.9963 1.0196 0.0000
vt 1.9650 -1.2845 0.0000
vt 1.7105 -1.2158 0.0000
vt 2.0378 0.9645 0.0000
vt 2.0372 -1.2292 0.0000
vt 1.6682 -1.1605 0.0000
vt 1.6698 1.0369 0.0000
vt -1.0837 1.9637 0.0000
vt -1.0837 -1.2272 0.0000
vt -0.4959 2.0210 0.0000
vt -0.2323 2.0210 0.0000
vt 0.3352 -1.2272 0.0000
vt 0.3352 1.9637 0.0000
vt -1.1410 -1.2845 0.0000
vt -1.4248 -1.2845 0.0000
vt 0.7133 1.9637 0.0000
vt 0.7133 -1.2272 0.0000
vt -0.2323 -1.2845 0.0000
vt -0.4959 -1.2845 0.0000
vt -0.1751 1.9637 0.0000
vt -0.1751 -1.2272 0.0000
vt 0.3925 2.0210 0.0000
vt 0.6561 2.0210 0.0000
vt -1.4820 -1.2272 0.0000
vt -1.4820 1.9637 0.0000
vt -0.5532 -1.2272 0.0000
vt -0.5532 1.9637 0.0000
vt 0.6561 -1.2845 0.0000
vt 0.3925 -1.2845 0.0000
vt -1.4248 2.0210 0.0000
vt -1.1410 2.0210 0.0000
vt 2.4248 -0.2242 0.0000
vt 2.1612 -0.2242 0.0000
vt 2.1612 0.7700 0.0000
vt 2.4248 0.7700 0.0000
vt 2.1039 -0.1669 0.0000
vt 2.1039 0.7128 0.0000
vt 2.4820 0.7128 0.0000
vt 2.4820 -0.1669 0.0000
vt 1.5445 1.1577 0.0000
vt 1.2809 1.1577 0.0000
vt 1.2809 2.1519 0.0000
vt 1.5445 2.1519 0.0000
vt 1.2236 1.2150 0.0000
vt 1.2236 2.0947 0.0000
vt 1.6017 2.0947 0.0000
vt 1.6018 1.2150 0.0000
vt 1.2756 1.0196 0.0000
vt 1.5292 1.0916 0.0000
vt 1.5501 -1.2131 0.0000
vt 1.2964 -1.2845 0.0000
vt 1.6021 1.0361 0.0000
vt 1.5919 -1.1585 0.0000
vt 1.2236 -1.2293 0.0000
vt 1.2340 0.9646 0.0000
vt 2.1612 1.8303 0.0000
vt 2.4248 1.8303 0.0000
vt 2.4248 0.8361 0.0000
vt 2.1612 0.8361 0.0000
vt 2.4820 1.7731 0.0000
vt 2.4820 0.8934 0.0000
vt 2.1039 0.8934 0.0000
vt 2.1039 1.7731 0.0000
vt 2.1612 -0.2903 0.0000
vt 2.4248 -0.2903 0.0000
vt 2.4248 -1.2845 0.0000
vt 2.1612 -1.2845 0.0000
vt 2.4820 -0.3476 0.0000
vt 2.4820 -1.2272 0.0000
vt 2.1039 -1.2272 0.0000
vt 2.1039 -0.3476 0.0000
vt -1.0176 -1.2272 0.0000
vt -1.0176 1.9637 0.0000
vt 1.1003 -1.2845 0.0000
vt 0.8367 -1.2845 0.0000
vt 0.2691 1.9637 0.0000
vt 0.2691 -1.2272 0.0000
vt -0.9603 2.0210 0.0000
vt -0.6765 2.0210 0.0000
vt -0.1090 -1.2272 0.0000
vt -0.1090 1.9637 0.0000
vt 0.8367 2.0210 0.0000
vt 1.1003 2.0210 0.0000
vt 0.7794 -1.2272 0.0000
vt 0.7794 1.9637 0.0000
vt 0.2119 -1.2845 0.0000
vt -0.0517 -1.2845 0.0000
vt -0.6193 1.9637 0.0000
vt -0.6193 -1.2272 0.0000
vt 1.1575 1.9637 0.0000
vt 1.1575 -1.2272 0.0000
vt -0.0517 2.0210 0.0000
vt 0.2119 2.0210 0.0000
vt -0.6765 -1.2845 0.0000
vt -0.9603 -1.2845 0.0000
# 144 texture coords

g default001
usemtl None_wood_white_jpg
s 1
f 1/1/1 2/2/1 3/3/1 4/4/1 
f 5/5/1 6/6/1 7/7/1 8/8/1 
f 9/9/1 10/10/1 11/11/1 12/12/1 
f 13/13/1 14/14/1 15/15/1 16/16/1 
f 17/17/1 18/18/1 19/19/1 20/20/1 
f 21/21/1 22/22/1 23/23/1 24/24/1 
f 25/25/2 26/26/3 27/27/3 28/28/4 
f 29/29/1 30/30/1 31/31/1 32/32/1 
f 33/33/1 34/34/1 35/35/1 36/36/1 
f 37/37/1 38/38/1 39/39/1 40/40/1 
f 41/41/1 42/42/1 43/43/1 44/44/1 
f 45/45/1 46/46/1 47/47/1 48/48/1 
usemtl None_NONE
f 49/49/5 1/1/5 4/4/5 50/50/5 
f 51/51/6 3/3/6 2/2/6 52/52/6 
f 50/53/7 4/4/7 3/3/7 51/54/7 
f 52/55/8 2/2/8 1/1/8 49/56/8 
f 53/57/9 13/13/9 16/16/9 54/58/9 
f 55/59/10 9/9/10 12/12/10 56/60/10 
f 57/61/11 6/6/11 5/5/11 58/62/11 
f 54/63/12 16/16/12 15/15/12 59/64/12 
f 60/65/9 8/8/9 7/7/9 61/66/9 
f 62/67/12 11/11/12 10/10/12 63/68/12 
f 56/69/9 12/12/9 11/11/9 62/70/9 
f 58/71/10 5/5/10 8/8/10 60/72/10 
f 59/73/11 15/15/11 14/14/11 64/74/11 
f 63/75/11 10/10/11 9/9/11 55/76/11 
f 61/77/12 7/7/12 6/6/12 57/78/12 
f 64/79/10 14/14/10 13/13/10 53/80/10 
f 65/81/9 17/17/9 20/20/9 66/82/9 
f 67/83/11 19/19/11 18/18/11 68/84/11 
f 66/85/12 20/20/12 19/19/12 67/86/12 
f 68/87/10 18/18/10 17/17/10 65/88/10 
f 69/89/9 21/21/9 24/24/9 70/90/9 
f 71/91/11 23/23/11 22/22/11 72/92/11 
f 70/93/12 24/24/12 23/23/12 71/94/12 
f 72/95/10 22/22/10 21/21/10 69/96/10 
f 73/97/13 25/25/13 28/28/13 74/98/13 
f 75/99/14 27/27/14 26/26/14 76/100/14 
f 74/101/15 28/28/15 27/27/15 75/102/15 
f 76/103/16 26/26/16 25/25/16 73/104/16 
f 77/105/11 29/29/11 32/32/11 78/106/11 
f 79/107/9 31/31/9 30/30/9 80/108/9 
f 78/109/10 32/32/10 31/31/10 79/110/10 
f 80/111/12 30/30/12 29/29/12 77/112/12 
f 81/113/11 33/33/11 36/36/11 82/114/11 
f 83/115/9 35/35/9 34/34/9 84/116/9 
f 82/117/10 36/36/10 35/35/10 83/118/10 
f 84/119/12 34/34/12 33/33/12 81/120/12 
f 85/121/11 45/45/11 48/48/11 86/122/11 
f 87/123/12 41/41/12 44/44/12 88/124/12 
f 89/125/9 38/38/9 37/37/9 90/126/9 
f 86/127/10 48/48/10 47/47/10 91/128/10 
f 92/129/11 40/40/11 39/39/11 93/130/11 
f 94/131/10 43/43/10 42/42/10 95/132/10 
f 88/133/11 44/44/11 43/43/11 94/134/11 
f 90/135/12 37/37/12 40/40/12 92/136/12 
f 91/137/9 47/47/9 46/46/9 96/138/9 
f 95/139/9 42/42/9 41/41/9 87/140/9 
f 93/141/10 39/39/10 38/38/10 89/142/10 
f 96/143/12 46/46/12 45/45/12 85/144/12 
# 60 polygons

